<?xml version="1.0" encoding="utf-8"?>
<!-- Generator: Adobe Illustrator 24.0.0, SVG Export Plug-In . SVG Version: 6.00 Build 0)  -->
<svg version="1.1" id="Layer_1" xmlns="http://www.w3.org/2000/svg" xmlns:xlink="http://www.w3.org/1999/xlink" x="0px" y="0px"
	 viewBox="0 0 800 800" style="enable-background:new 0 0 800 800;" xml:space="preserve">
<style type="text/css">
	.st0{fill:#B500C9;}
	.st1{fill:#FF5FEA;}
	.st2{fill:#292F33;}
</style>
<path class="st0" d="M444.5,449.8c-9.5,0-19.1,0.2-28.8,0.7c-9.7,28.2-10.4,61,0,113.3c7.3,36.6,59.1,140,101.9,176.3
	c15.2,12.9,36.4,19.6,59.8,19.6c47.6,0,104.2-28.1,136.8-89.6C780.9,544.1,637,449.8,444.5,449.8L444.5,449.8z"/>
<path class="st0" d="M748.1,43.8c-4.5,0-9.4,0.5-14.7,1.5c-70.7,13.4-206.7,113.9-317.5,261.6c0,0-17.5,114.7-17.5,137.6
	c0,7.5,28.1,11.1,68,11.1c82.6,0,215.8-15.7,253.9-45.4c42.2-32.9,81.1-217.9,77.5-312.9C796.7,71.3,783,43.8,748.1,43.8L748.1,43.8
	z"/>
<path class="st1" d="M602.2,309.7l147.3-9.7c0,0-23.4,80.4-68.9,103.5c-45.5,23-171.5,33.3-171.5,33.3s51.8-94.7,73-117.6
	C587.3,313.6,594.5,310.2,602.2,309.7L602.2,309.7z M613.7,266.3L781,85.2c0,0,0,119.2-26.8,191.9c0,0-119.6,8.4-131.4,8.7
	C607.1,286.1,601.2,279.9,613.7,266.3z M478.9,436.8l122.2-189.9c4.2-4.9,5.6-11.6,3.8-17.7l-21.5-71.8L434,304.2l-18.8,134
	L478.9,436.8z M619.2,197.3c3.8,9,11.5,11.1,20.8,2.8c9.4-8.3,135-135.4,133.3-138.2c0,0-62.9-26.5-173.3,77
	C600,138.9,615.3,188.3,619.2,197.3z M420.8,466.2l119.4,116.2c4.5,4,5.7,10.5,2.8,15.8l-52.8,96.3
	C490.2,694.4,397.2,572.7,420.8,466.2z M582.6,606.2L706,622.7c0,0-23.5,85.4-75.4,107.9c-86.8,37.5-118-13.9-118-13.9l52.3-101.4
	C568.1,608.7,575.3,605,582.6,606.2L582.6,606.2z M450.4,463.4l119.4,110.2c1.7,1.5,3.8,2.4,6,2.9l136,20.1
	c0,0-27.1-67.4-98.4-100.7C531,457.3,450.4,463.4,450.4,463.4z"/>
<path class="st2" d="M444.5,449.8c-9.5,0-19.1,0.2-28.8,0.7c-9.7,28.2-10.4,61,0,113.3c7.3,36.6,59.1,140,101.9,176.3
	c15.2,12.9,36.4,19.6,59.8,19.6c47.6,0,104.2-28.1,136.8-89.6C780.9,544.1,637,449.8,444.5,449.8L444.5,449.8z M678.7,657.1
	c-29.2,55.2-67.8,77.2-101.3,77.2c-17,0-37.9-7-47.8-15.4c-37.7-32-76.4-101.8-94.4-160.5c-10.3-33.6-7.9-89.4-7.9-89.4l14.8-0.5
	c114.8,0,205.5,45.7,238.4,100.3C696.4,595.2,695.8,624.9,678.7,657.1z"/>
<path class="st2" d="M748.1,71.6c5.1,0,20.8,0,21.8,26.8c2.3,59.6-13.2,134.7-31,197.4c-12,42.2-35.2,73.2-46.5,81.9
	c-12.4,9.7-41.4,27.5-82.6,34.7c-45.1,7.9-93.5,18.5-143.5,18.5c-18.4,0-31.8,0.4-39.9-0.5c2.9-27.1,10.9-78.9,15.9-112.5
	C526,208.2,658.1,87.8,738.6,72.6C742,72,745.2,71.6,748.1,71.6 M748.1,43.8c-4.5,0-9.4,0.5-14.7,1.5
	c-70.7,13.4-206.7,113.9-317.5,261.6c0,0-17.5,114.7-17.5,137.6c0,7.5,28.1,11.1,68,11.1c82.6,0,215.8-15.7,253.9-45.4
	c42.2-32.9,81.1-217.9,77.5-312.9C796.7,71.3,783,43.8,748.1,43.8L748.1,43.8z"/>
<path class="st0" d="M86.7,670.1c32.6,61.5,89.2,89.6,136.8,89.6c23.4,0,44.6-6.8,59.8-19.6c42.8-36.3,94.6-139.7,101.9-176.3
	c10.4-52.2,9.7-85.1,0-113.3c-9.6-0.5-19.2-0.7-28.8-0.7C163.9,449.8,20,544.1,86.7,670.1L86.7,670.1z"/>
<path class="st0" d="M52.8,43.8c-34.9,0-48.6,27.5-49.6,53.6c-3.6,95,35.3,280,77.5,312.9c38.1,29.7,171.2,45.4,253.9,45.4
	c39.9,0,68-3.6,68-11.1c0-23-17.5-137.6-17.5-137.6C274.2,159.2,138.2,58.7,67.5,45.3C62.7,44.4,57.7,43.9,52.8,43.8z"/>
<path class="st1" d="M198.7,309.7L51.4,300c0,0,23.4,80.4,68.9,103.5c45.5,23,171.5,33.3,171.5,33.3s-51.8-94.7-73-117.6
	C213.7,313.6,206.4,310.2,198.7,309.7z M187.2,266.3L20,85.2c0,0,0,119.2,26.8,191.9c0,0,119.6,8.4,131.4,8.7
	C193.8,286.1,199.7,279.9,187.2,266.3z M322,436.8L199.8,246.9c-4.2-4.9-5.6-11.6-3.8-17.7l21.5-71.8l149.4,146.9l18.8,134
	L322,436.8z M181.8,197.3c-3.8,9-11.5,11.1-20.8,2.8c-9.4-8.3-135-135.4-133.3-138.2c0,0,62.9-26.5,173.3,77
	C200.9,138.9,185.6,188.3,181.8,197.3L181.8,197.3z M380.1,466.2L260.7,582.4c-4.5,4-5.7,10.5-2.8,15.8l52.8,96.3
	C310.7,694.4,403.8,572.7,380.1,466.2z M218.3,606.2L95,622.7c0,0,23.5,85.4,75.4,107.9c86.8,37.5,118-13.9,118-13.9l-52.3-101.4
	C232.8,608.7,225.6,605,218.3,606.2L218.3,606.2z M350.5,463.4L231.1,573.6c-1.7,1.5-3.8,2.5-6,2.9l-136,20.1
	c0,0,27.1-67.4,98.4-100.7C270,457.3,350.5,463.4,350.5,463.4L350.5,463.4z"/>
<path class="st2" d="M86.7,670.1c32.6,61.5,89.2,89.6,136.8,89.6c23.4,0,44.6-6.8,59.8-19.6c42.8-36.3,94.6-139.7,101.9-176.3
	c10.4-52.2,9.7-85.1,0-113.3c-9.6-0.5-19.2-0.7-28.8-0.7C163.9,449.8,20,544.1,86.7,670.1L86.7,670.1z M120.4,568.8
	c32.8-54.5,123.5-100.3,238.4-100.3l14.8,0.5c0,0,2.5,55.8-7.9,89.4c-18.1,58.8-56.8,128.6-94.4,160.5c-9.9,8.4-30.7,15.4-47.8,15.4
	c-33.5,0-72-21.9-101.3-77.2C105.2,624.9,104.6,595.2,120.4,568.8L120.4,568.8z"/>
<path class="st2" d="M52.8,71.6c2.9,0,6.1,0.3,9.6,1C142.8,87.8,274.9,208.2,358.6,318c5.1,33.6,13,85.5,15.9,112.5
	c-8,0.9-21.5,0.5-39.9,0.5c-50,0-98.4-10.6-143.5-18.5c-41.2-7.2-70.2-25-82.6-34.7C97.3,369,74.1,338.1,62,295.8
	C44.2,233.2,28.7,158,31,98.5C32,71.6,47.6,71.6,52.8,71.6 M52.8,43.8c-34.9,0-48.6,27.5-49.6,53.6c-3.6,95,35.3,280,77.5,312.9
	c38.1,29.7,171.2,45.4,253.9,45.4c39.9,0,68-3.6,68-11.1c0-23-17.5-137.6-17.5-137.6C274.2,159.2,138.2,58.7,67.5,45.3
	C62.7,44.4,57.7,43.9,52.8,43.8z"/>
<path class="st2" d="M486.4,105.8c-5.5-3.1-12.5-1.1-15.6,4.5c0,0,0,0,0,0L409.9,221c-0.4,0.7-0.5,1.5-0.7,2.3
	c-2.8-0.2-5.4-0.4-8.7-0.4c-3.3,0-5.9,0.2-8.7,0.4c-0.2-0.8-0.3-1.5-0.7-2.3l-60.9-110.7c-3.1-5.6-10-7.6-15.6-4.5
	c-5.6,3.1-7.6,10-4.5,15.6l59,107.2c-26.2,17.4,25.6,76.4,8.5,204.5c-23,172.2,23,218.2,23,218.2s45.9-45.9,23-218.2
	c-17.1-128.1,34.7-187.1,8.5-204.5l59-107.2C494,115.9,491.9,108.9,486.4,105.8C486.4,105.8,486.4,105.8,486.4,105.8L486.4,105.8z"
	/>
</svg>
