<?xml version="1.0" encoding="utf-8"?>
<!-- Generator: Adobe Illustrator 24.0.0, SVG Export Plug-In . SVG Version: 6.00 Build 0)  -->
<svg version="1.1" id="Layer_1" xmlns="http://www.w3.org/2000/svg" xmlns:xlink="http://www.w3.org/1999/xlink" x="0px" y="0px"
	 viewBox="0 0 800 800" style="enable-background:new 0 0 800 800;" xml:space="preserve">
<style type="text/css">
	.st0{fill:#E75E8A;}
</style>
<path class="st0" d="M500.4,400l196.2-196.2c28.5-28.5,28.5-71.3,0-99.9l0,0c-10.7-14.3-28.5-25-46.4-25s-35.7,7.1-49.9,21.4
	L400.5,300.1L204.3,103.9c-28.5-28.5-74.9-28.5-99.9,0c-14.3,10.7-25,28.5-25,49.9s7.1,35.7,21.4,49.9L297.1,400L100.9,596.2
	c-10.7,14.3-21.4,32.1-21.4,53.5c0,17.8,7.1,35.7,21.4,49.9c14.3,14.3,32.1,21.4,49.9,21.4s35.7-7.1,49.9-21.4L397,503.4
	l196.2,196.2c28.5,28.5,74.9,28.5,99.9,0c28.5-28.5,28.5-74.9,0-99.9L500.4,400z"/>
</svg>
