<?xml version="1.0" encoding="utf-8"?>
<!-- Generator: Adobe Illustrator 24.0.0, SVG Export Plug-In . SVG Version: 6.00 Build 0)  -->
<svg version="1.1" id="_x34_" xmlns="http://www.w3.org/2000/svg" xmlns:xlink="http://www.w3.org/1999/xlink" x="0px" y="0px"
	 viewBox="0 0 800 800" style="enable-background:new 0 0 800 800;" xml:space="preserve">
<style type="text/css">
	.st0{fill:#93B793;}
	.st1{fill:#6DB96D;}
	.st2{fill:#8AC887;}
	.st3{fill:#78C175;}
</style>
<g>
	<g>
		<path class="st0" d="M722.3,733.4c91.3-202.8,67.2-432.3-80.4-579.8C499.9,11.5,282-16.1,85,63.4C71.5,49.6,59,37,48,25.9
			c-9.2-9.2,0,0,0,0L14.8,59c3,3,0,0,0,0c11.1,11.1,23.7,23.6,37.5,37.1C-27.2,293,0.4,510.9,142.5,653
			C290,800.5,519.5,824.6,722.3,733.4z"/>
		<path class="st1" d="M-3.9,40.3C-5.1,39.1-5.5,38.6-3.9,40.3L-3.9,40.3z"/>
		<path class="st1" d="M1.9,46.1c-1.3-1.3-2.2-2.3-3.1-3.1C0.4,44.6,1.9,46.1,1.9,46.1z"/>
		<path class="st1" d="M-2.2,42c-0.6-0.6-1.2-1.2-1.7-1.7C-3.4,40.7-2.9,41.3-2.2,42z"/>
	</g>
	<g>
		<g>
			<path class="st2" d="M661,153.5C513.4,6,283.9-18.2,81.1,73.1l660.2,660.2C832.6,530.6,808.5,301.1,661,153.5z"/>
			<path class="st3" d="M161.5,652.9C14,505.4-10.2,275.9,81.1,73.1l660.2,660.2C538.6,824.6,309.1,800.5,161.5,652.9z"/>
		</g>
		<path class="st1" d="M21,46.1C24.1,51,24.1,51,33.9,59c158.9,158.9,618.6,592.1,639.6,606.5C659.2,644.6,225.9,184.8,67,25.9
			C57.9,16.8,54.1,13,54.1,13L21,46.1z"/>
		<path class="st1" d="M425.7,430.2c0,0,0,0,14.5,0c65.4,0,249.3-12.5,256.6-15.7c-7.3-3.1-191.1-15.7-256.6-15.7
			c-14.5,0-14.5,0-14.5,0V430.2z"/>
		<path class="st1" d="M259.2,263.7c0,0,0,0,14.5,0c65.4,0,249.3-12.5,256.6-15.7c-7.3-3.1-191.1-15.7-256.6-15.7
			c-14.5,0-14.5,0-14.5,0V263.7z"/>
		<path class="st1" d="M435.4,420.5c0,0,0,0,0,14.5c0,65.4-12.5,249.3-15.7,256.6c-3.1-7.3-15.7-191.1-15.7-256.6
			c0-14.5,0-14.5,0-14.5H435.4z"/>
		<path class="st1" d="M268.9,254c0,0,0,0,0,14.5c0,65.4-12.5,249.3-15.7,256.6c-3.1-7.3-15.7-191.1-15.7-256.6
			c0-14.5,0-14.5,0-14.5H268.9z"/>
	</g>
</g>
</svg>
