<?xml version="1.0" encoding="utf-8"?>
<!-- Generator: Adobe Illustrator 24.0.0, SVG Export Plug-In . SVG Version: 6.00 Build 0)  -->
<svg version="1.1" id="Layer_1" xmlns="http://www.w3.org/2000/svg" xmlns:xlink="http://www.w3.org/1999/xlink" x="0px" y="0px"
	 viewBox="0 0 800 800" style="enable-background:new 0 0 800 800;" xml:space="preserve">
<style type="text/css">
	.st0{display:none;}
	.st1{display:inline;fill:#42ADE2;}
	.st2{fill:#7AFFCA;}
</style>
<g>
	<g class="st0">
		<path class="st1" d="M226.3,276.3C156.3,295,112.5,362.5,125,410s60-6.3,130-25s137.5,3.7,125-42.5S297.5,257.5,226.3,276.3"/>
		<path class="st1" d="M172.5,253.7c21.3-7.5,23.8-53.8,12.5-85s-37.5-50-58.7-42.5c-21.3,7.5-28.8,38.8-17.5,70
			S151.3,262.5,172.5,253.7"/>
		<path class="st1" d="M258.8,230c22.5-2.5,37.5-46.3,33.8-78.8c-2.5-32.5-23.8-57.5-46.3-56.3c-22.5,2.5-38.8,30-35,63.7
			C213.8,191.2,236.3,232.5,258.8,230"/>
		<path class="st1" d="M358.8,133.8c-22.5,0-41.2,26.2-41.2,60s18.8,75,41.2,75c22.5,0,41.3-42.5,41.3-75
			C400,160,381.3,133.8,358.8,133.8"/>
		<path class="st1" d="M41.3,218.8c-20,11.3-22.5,43.8-5,72.5c16.2,28.7,53.8,56.3,73.8,45s13.8-57.5-2.5-86.3
			S61.3,207.5,41.3,218.8"/>
	</g>
	<g>
		<path class="st2" d="M389.9,399.9c2.3-146.7-107.1-270.6-203.4-269.9s-19.5,119.7-21.8,266.4c-2.3,146.7-84.4,266.5,15,267.6
			C279.1,665.1,387.6,546.6,389.9,399.9"/>
		<path class="st2" d="M458.1,494.9c-4.3,45.4,77.4,90.1,144.3,96.8c66.9,6.7,124.6-23.4,128.8-68.9c4.3-45.4-45.5-87.7-112.4-94.4
			S462.4,449.5,458.1,494.9"/>
		<path class="st2" d="M462.2,313.9c6.2,45.4,98.3,69.3,163.3,58.1c65-11.1,114.1-54.7,107.9-100.2s-68.2-74.2-133.3-63.1
			C534.5,217.4,456,268.5,462.2,313.9"/>
		<path class="st2" d="M336.8,136.6c11.1,44.2,103.8,60,167.6,44S613,114.2,601.9,70.1S530,2,463.8,18.7
			C399.9,34.7,325.7,92.4,336.8,136.6"/>
		<path class="st2" d="M594,734.8c12.2-44.8-28.9-94.5-93.4-112.2s-158.4-7.2-170.6,37.6c-12.2,44.8,59.6,102.4,124.7,122.6
			S581.1,777.2,594,734.8"/>
	</g>
</g>
</svg>
