<?xml version="1.0" encoding="utf-8"?>
<!-- Generator: Adobe Illustrator 24.0.0, SVG Export Plug-In . SVG Version: 6.00 Build 0)  -->
<svg version="1.1" id="Layer_1" xmlns="http://www.w3.org/2000/svg" xmlns:xlink="http://www.w3.org/1999/xlink" x="0px" y="0px"
	 viewBox="0 0 800 800" style="enable-background:new 0 0 800 800;" xml:space="preserve">
<style type="text/css">
	.st0{display:none;fill:#F0E6D1;}
	.st1{display:none;fill:#CFC8AB;}
	.st2{display:none;fill:#FFF8ED;}
	.st3{display:none;fill:#945136;}
	.st4{display:none;fill:#FF6A2E;}
	.st5{fill:#FDA654;}
	.st6{fill:#B3B3B3;}
	.st7{fill:#BE8A66;}
	.st8{fill:#333333;}
	.st9{fill:none;stroke:#7A7A7A;stroke-width:36.2336;stroke-linecap:round;stroke-linejoin:round;stroke-miterlimit:52.4349;}
	.st10{fill:#7A7A7A;}
	.st11{fill:#985C4C;}
	.st12{fill:#E5E5E5;}
	.st13{display:none;}
	.st14{display:inline;}
	.st15{fill:none;stroke:#1A1A1A;stroke-width:36.2336;stroke-linecap:round;stroke-linejoin:round;stroke-miterlimit:52.4349;}
	.st16{fill:#1A1A1A;}
	.st17{fill:none;}
	.st18{fill:#666666;}
</style>
<polygon class="st0" points="745.4,274.2 745.4,754.3 523,754.3 488.6,228.2 "/>
<path class="st1" d="M524.4,246.2V755H56V246.2L290.2,59.4L524.4,246.2z"/>
<path class="st2" d="M281.6,584.2c21.4,0,38.7,17.3,38.7,38.7c0,21.4-17.3,38.7-38.7,38.7h-217H44.4c21.4,0,38.7-17.3,38.7-38.7
	c0-21.4-17.3-38.7-38.7-38.7h20.2H281.6z"/>
<path class="st3" d="M317.2,297.7c47.7,12.5,82.8,55.9,82.8,107.5s-35.1,95-82.8,107.6c-47.7-12.5-117.2-55.9-117.2-107.6
	C199.9,353.6,269.5,310.2,317.2,297.7z"/>
<path class="st0" d="M44.9,583.6c21.4,0,38.7,17.3,38.7,38.7c0,21.4-17.3,38.7-38.7,38.7S6.2,643.6,6.2,622.3
	C6.2,600.9,23.5,583.6,44.9,583.6z"/>
<path class="st4" d="M795,264.1L519.2,48.5c-2.3-1.8-5.1-2.7-7.9-2.7H288.8c-3,0-5.8,1-8,2.8L5,264.1c-5.6,4.4-6.6,12.5-2.2,18.1
	c2.5,3.3,6.3,5,10.2,5c2.8,0,5.6-0.9,7.9-2.7L288.8,75l267.9,209.4c2.3,1.8,5.1,2.7,7.9,2.7h222.4c5.5,0,10.4-3.5,12.2-8.7
	C801.1,273.2,799.4,267.5,795,264.1z"/>
<path class="st2" d="M288.8,294c9.8,0,19.3,1.3,28.4,3.7c-47.7,12.5-82.8,55.9-82.8,107.5c0,51.6,35.2,95,82.8,107.6
	c-9.1,2.4-18.6,3.7-28.4,3.7c-61.4,0-111.2-49.8-111.2-111.2C177.6,343.8,227.4,294,288.8,294z"/>
<g id="Group_2099" transform="translate(-47.317 -275.218)">
	<g id="Group_2098">
		<g id="Group_2022">
			<g id="Group_2021">
				<g id="Group_2020">
					<g id="Group_2019">
						<g id="Group_2018">
							<path id="Path_1101" class="st5" d="M153.6,387.4c1.4-0.2,2.2-0.3,2.2-0.3l27.4,32.4l-16.9,17.3l-2.2-0.4l-68.7-13.6
								C109.2,404.3,130.1,391.6,153.6,387.4z"/>
						</g>
					</g>
				</g>
			</g>
		</g>
		<g id="Group_2027">
			<g id="Group_2026">
				<g id="Group_2025">
					<g id="Group_2024">
						<g id="Group_2023">
							<path id="Path_1102" class="st6" d="M233.1,350.9c25-0.9,75.2,0,108.1,62.8l-52.7,1.9c0,0-19.8-32.6-54.1-31.4
								c-23.1,1.8-45.5,7.8-66.2,17.6l-12.5-14.8c0,0-0.8,0-2.2,0.3C173.7,365.5,202.4,352.3,233.1,350.9z"/>
						</g>
					</g>
				</g>
			</g>
		</g>
		<g id="Group_2032">
			<g id="Group_2031">
				<g id="Group_2030">
					<g id="Group_2029">
						<g id="Group_2028">
							<path id="Path_1103" class="st7" d="M288.5,415.6l52.7-1.9c18.2,34.8,72.3,47.4,72.3,47.4s-88.2-5.1-85.1,69.8l0,0
								C292.9,502.9,277.5,458.1,288.5,415.6z"/>
						</g>
					</g>
				</g>
			</g>
		</g>
		<g id="Group_2037">
			<g id="Group_2036">
				<g id="Group_2035">
					<g id="Group_2034">
						<g id="Group_2033">
							<path id="Path_1104" class="st8" d="M164,436.4l2.2,0.4l16.9-17.3l-14.9-17.6c20.7-9.8,43.2-15.8,66.2-17.6
								c34.3-1.3,54.1,31.4,54.1,31.4c-32.9,0.2-61.3,22-68.2,52.6l2,50l35.2-1.3c-24.1,20.8-40.9,48.2-47.9,78.5
								c-15.6-34.5-23.7-71.7-23.7-109.2C184.2,467.8,176.5,450.4,164,436.4z"/>
						</g>
					</g>
				</g>
			</g>
		</g>
		<g id="Group_2042">
			<g id="Group_2041">
				<g id="Group_2040">
					<g id="Group_2039">
						<g id="Group_2038">
							<path id="Path_1105" class="st9" d="M569.6,839.1"/>
						</g>
					</g>
				</g>
			</g>
		</g>
		<g id="Group_2047">
			<g id="Group_2046">
				<g id="Group_2045">
					<g id="Group_2044">
						<g id="Group_2043">
							<path id="Path_1106" class="st6" d="M621.1,753.8c5.4,7.6,3.4,17.9-4.6,23.1c-5,3.2-11.5,3.8-17,1.4l-63.3-27.2
								c11.4-7.7,21.1-17.4,28.7-28.6l-0.7-16.7l32.6,14L621.1,753.8z"/>
						</g>
					</g>
				</g>
			</g>
		</g>
		<g id="Group_2052">
			<g id="Group_2051">
				<g id="Group_2050">
					<g id="Group_2049">
						<g id="Group_2048">
							<path id="Path_1107" class="st10" d="M564.6,714.6c5.1-0.2,9.1-4.3,8.9-9.1c-0.1-3.3-2.2-6.3-5.5-7.7l-19.5-8.4
								c-4.7-2-10.2,0-12.3,4.4c-2.1,4.4,0,9.7,4.6,11.7l19.5,8.4C561.7,714.4,563.1,714.7,564.6,714.6z"/>
						</g>
					</g>
				</g>
			</g>
		</g>
		<g id="Group_2057">
			<g id="Group_2056">
				<g id="Group_2055">
					<g id="Group_2054">
						<g id="Group_2053">
							<path id="Path_1108" class="st7" d="M618.9,729.3l201.5,217.4c-27.4,0.1-53.6-11.2-71.6-30.7L599.5,778.3
								c8.8,3.8,19.2,0.1,23.2-8.3c2.5-5.3,2-11.4-1.5-16.2l-24.4-34l0,0L618.9,729.3z"/>
						</g>
					</g>
				</g>
			</g>
		</g>
		<g id="Group_2062">
			<g id="Group_2061">
				<g id="Group_2060">
					<g id="Group_2059">
						<g id="Group_2058">
							<path id="Path_1109" class="st11" d="M413.5,461.1c67.9-2.5,258.1,290.8,258.1,290.8l-52.8-22.7l-22.1-9.5l0,0l-32.6-14
								l-19.5-8.4l-16.3-7c0,0-197-84.5-200-159.5S413.5,461.1,413.5,461.1z"/>
						</g>
					</g>
				</g>
			</g>
		</g>
		<g id="Group_2067">
			<g id="Group_2066">
				<g id="Group_2065">
					<g id="Group_2064">
						<g id="Group_2063">
							<path id="Path_1110" class="st12" d="M257.5,516.9l-35.1,1.3l-2-50c7-30.5,35.3-52.4,68.2-52.6c-11,42.5,4.4,87.3,39.9,115.3
								c3.1,75,200,159.5,200,159.5l16.3,7l19.5,8.4l0.7,16.7c-7.6,11.1-17.3,20.8-28.7,28.6c-22.1,14.6-47.9,23.3-74.7,25.2
								L444,777l-0.7-16.7c-142.3-36.6-205.5-104.8-233.8-165C216.6,565.1,233.3,537.7,257.5,516.9z"/>
						</g>
					</g>
				</g>
			</g>
		</g>
		<g id="Group_2072" class="st13">
			<g id="Group_2071" class="st14">
				<g id="Group_2070">
					<g id="Group_2069">
						<g id="Group_2068">
							<path id="Path_1111" class="st5" d="M66.9,590.6L559.6,1023l-70.3,2.6L69.6,657.2L66.9,590.6z"/>
						</g>
					</g>
				</g>
			</g>
		</g>
		<g id="Group_2077">
			<g id="Group_2076">
				<g id="Group_2075">
					<g id="Group_2074">
						<g id="Group_2073">
							<path id="Path_1112" class="st10" d="M343.7,906.2c5.1-0.2,9.1-4.3,8.9-9.2c-0.9-21,23.1-25.1,25.9-25.5
								c2.4-0.4,4.6-1.6,6.1-3.5l66.9-85.9c3.1-3.9,2.2-9.4-2-12.3c-4.1-2.9-10-2.1-13,1.9l-64.7,83.1c-22,3.5-38.1,21.7-37.7,42.9
								C334.2,902.6,338.5,906.4,343.7,906.2C343.7,906.2,343.7,906.2,343.7,906.2z"/>
						</g>
					</g>
				</g>
			</g>
		</g>
		<g id="Group_2082">
			<g id="Group_2081">
				<g id="Group_2080">
					<g id="Group_2079">
						<g id="Group_2078">
							<path id="Path_1113" class="st10" d="M377.5,871.6c5.1-0.2,9.1-4.3,8.9-9.2c-0.1-2.6-1.4-5-3.5-6.6
								c-15.9-12.1-53.8-26.8-82.9,3.5c-3.6,3.2-3.5,8.4,0.4,12.5c3.5,3.6,9.6,3.1,13.1-0.4c0.1-0.1,0.1-0.1,0.2-0.2
								c24.8-25.9,56.2-2.6,57.6-1.6C373,871,375.2,871.7,377.5,871.6z"/>
						</g>
					</g>
				</g>
			</g>
		</g>
		<g id="Group_2087">
			<g id="Group_2086">
				<g id="Group_2085">
					<g id="Group_2084">
						<g id="Group_2083">
							<path id="Path_1114" class="st10" d="M216,794.1c5.1-0.2,9.1-4.3,8.9-9.2c-0.9-21.6,24.7-25.4,25.8-25.5
								c2.1-0.3,4-1.3,5.5-2.7l50.7-51.9c3.5-3.6,3.3-9.2-0.5-12.5c-3.8-3.3-9.7-3.1-13.2,0.5l0,0l-48.6,49.8
								c-22.3,3.3-38.6,21.7-38.3,43.1C206.5,790.5,210.8,794.3,216,794.1C216,794.1,216,794.1,216,794.1z"/>
						</g>
					</g>
				</g>
			</g>
		</g>
		<g id="Group_2092">
			<g id="Group_2091">
				<g id="Group_2090">
					<g id="Group_2089">
						<g id="Group_2088">
							<path id="Path_1115" class="st10" d="M249.8,759.6c5.1-0.2,9.1-4.3,8.9-9.2c-0.1-2.6-1.4-5-3.5-6.6
								c-16-12.1-53.8-26.9-83,3.5c-3.5,3.6-3.3,9.1,0.4,12.5c3.7,3.3,9.6,3.1,13.1-0.4c0.1-0.1,0.1-0.1,0.2-0.2
								c24.8-25.9,56.3-2.6,57.6-1.6C245.3,758.9,247.5,759.6,249.8,759.6z"/>
						</g>
					</g>
				</g>
			</g>
		</g>
		<g id="Group_2097">
			<g id="Group_2096">
				<g id="Group_2095">
					<g id="Group_2094">
						<g id="Group_2093">
							<path id="Path_1116" class="st15" d="M569.6,839.1"/>
						</g>
					</g>
				</g>
			</g>
		</g>
	</g>
	<path class="st16" d="M380.3,871c-15.6,4.8-25.7,12-27.3,22.7l-0.7,6.1c-0.7,1.7-1.3,5.6-8.8,6.4c-1.9-0.1-3.8-0.1-6.9-2.6
		c0,0-0.1,0-0.1,0c-1.6-2.1-3.2-4.2-4.8-6.3c-0.5-4.7-0.1-5,2.1-10.9l3.5-6.3c3.7-7.8,9.9-14.3,17.7-18.6l0,0
		c-11.4-4.2-24.3-2.7-34.3,4l-3.2,2.6c-3.5,4.5-7,6-11.5,5.9l-5.2-2l-3-4.3c1.1-7.2,0.6-6,4.3-10.7l4.7-3.9
		c9.1-7.3,20.5-11.5,32.4-11.8l7.7,0.3c3.9,0.6,13.9,0.4,26.9,6.9l2.1,0.9l58.7-75.5l-0.3-7.1c-47.2-11.9-92.1-31.1-132.9-56.6
		l-38.3,39.2c-4.8,4.4-9.5,8.9-17.1,10.8c-10.9,2.3-19.1,10.8-20.7,21.3l0,0c-0.9,1.3-0.2,4.6-1,6.6c-1.3,3.2-4.2,5.1-6.7,5.6
		c-2.1,0.4-5.9,0-8.7-2.3c-1.6-1.4-3.1-4-3.5-5.5c-2.1-6.1-0.1-12.1,4.1-18.2l0.1,0.1c3.7-7.8,9.9-14.3,17.7-18.6
		c-11.4-4.2-24.3-2.7-34.3,4.1l0.3,0.3c-7,3.7-13.9,10.6-19.6,6.9l-0.8-0.7L172,759c-0.5-0.5-0.9-1.1-1.4-1.8
		c-2.1-6,1.7-11.5,8-15.7l0.6-0.4c9.1-7.3,20.4-11.4,32.3-11.7l4.3,0c13.3,1,20.4,3.4,31.5,9.1l1.7-0.3l37.3-38.3
		c-36.9-26.4-66.2-61.1-85.2-101.1c-15.7-34.4-24-71.5-24.4-109.1l-0.1-3.4c-1.4-15.5-7.7-30.2-18-42.2l-65.2-12.9
		c-5-1-8.2-5.7-7.2-10.4c0.3-1.3,0.8-2.4,1.7-3.5c14.7-19.3,36.3-32.9,60.8-38.1c21.9-22.2,52.1-35.6,84.1-37.2
		c19.7-0.7,79.8-2.9,116.8,67.6c15.3,29.3,61.3,41.5,65.7,42.6c72.6,2.5,244.7,264.7,264.3,294.9c2.7,4.1,1.3,9.6-3,12.1
		c-2.6,1.5-5.9,1.7-8.7,0.5l-13.5-5.8l173,186.7c3.4,3.7,3,9.2-0.8,12.4c-1.6,1.3-3.6,2.1-5.8,2.2c-30.2,0.2-59-12-78.8-33.6
		L594.2,785.5l-57-24.5c-22.6,13.8-48.4,22-75.2,23.9l-13.1,0.5l-59.3,76.1 M335.9,422.7L335.9,422.7l-39.8,1.4
		c-5,27.1,1.1,55,17.1,78c0.9,1.1,1.7,2.4,2.6,3.5c0.9,1.2,1.9,2.3,2.9,3.4c0.6,0.7,1.2,1.3,1.8,2c0.1-0.5,0.3-0.9,0.3-1.3
		c0.5-2.5,1.2-4.9,2-7.3c0.2-0.6,0.4-1.3,0.6-2c1-2.8,2.2-5.6,3.7-8.3c0.4-0.6,0.8-1.3,1.2-1.9c1.2-2,2.5-4,3.9-5.9
		c0.5-0.7,1-1.4,1.6-2.1c1.9-2.4,4-4.7,6.3-6.8c2.4-2.2,4.9-4.2,7.6-6c0.5-0.4,1-0.7,1.6-1.1c2.5-1.7,5.2-3.2,7.9-4.6
		c0.5-0.3,1-0.5,1.5-0.7c2.6-1.2,5.1-2.3,7.7-3.3c0.3-0.1,0.6-0.3,1-0.4c2.8-1,5.6-1.9,8.3-2.7c0.3-0.1,0.5-0.2,0.8-0.3
		C360,448.7,346,437.1,335.9,422.7z M413.9,469.9L413.9,469.9c-0.3,0-0.6,0-0.9,0l-0.1,0c-0.4,0-2.8-0.1-6.5,0
		c-11.1,0.3-22,2.3-32.4,5.9l-0.3,0.1c-4.8,1.7-9.3,4-13.5,6.7l-1.4,0.9c-2.1,1.4-4,2.9-5.8,4.6c-1.4,1.5-2.8,3-4,4.7
		c-1.1,1.2-2.1,2.4-3.1,3.6c-1.1,1.8-2,3.8-2.8,5.7c-0.7,1.4-1.5,2.7-2.1,4.1c-0.8,2.6-1.5,5.3-1.9,7.9c-0.2,1.2-0.7,2.2-0.8,3.4
		c-0.6,4.3-0.7,8.6-0.5,12.8c0.2,3.7,0.8,7.3,2,10.9c13.3,42.1,90,89.9,147.6,119.6c2.5,1.3,5,2.5,7.4,3.8c4.9,2.4,9.5,4.7,13.9,6.9
		c8.9,4.3,16.9,7.9,23.6,10.8l35.8,15.4l32.6,14l22.1,9.5l24.7,10.6C573,620.6,456.2,468.3,413.9,469.9z M755.2,909.6
		c0.3,0.2,0.5,0.5,0.7,0.8c11.2,11.7,25.5,20.4,41.5,24.9L633,757.8c0,0.3,0,0.6,0,0.8c0.3,1.3,0.4,2.7,0.4,4c0,0.4,0,0.8,0,1.2
		c-0.1,1.7-0.3,3.3-0.7,5c-0.1,0.3-0.2,0.7-0.3,1c-0.4,1.3-0.9,2.7-1.5,3.9c-0.2,0.4-0.4,0.9-0.7,1.3c-2.1,3.9-5.3,7.2-9.3,9.5
		c-0.3,0.2-0.5,0.4-0.7,0.6L755.2,909.6z M603.3,770.2c4.1,1.8,9,0,10.8-3.9c1.2-2.5,0.9-5.4-0.7-7.6l-22.9-31.9l-16.4-7.1l0.1,2.4
		c0.1,1.8-0.4,3.6-1.5,5.1c-2.4,3.6-5.1,7-7.9,10.2c-0.8,1-1.7,1.9-2.6,2.8c-2.2,2.4-4.5,4.6-6.8,6.8c-0.6,0.6-1.1,1.2-1.7,1.7
		L603.3,770.2z M445.9,751.8c3.9,1,6.7,4.3,6.8,8.2l0.2,7.8l8.3-0.3c25-2,49-10.1,69.6-23.6c9.6-6.6,18-14.7,24.8-24l-0.3-8.4
		l-11.7-5l-2.5-1.1l-16.3-7c-0.5-0.2-1.7-0.7-3.6-1.6c-1.5-0.7-3.5-1.6-5.8-2.6l-1.6-0.7l-2.5-1.1l-2.4-1.1l-3.1-1.5l-2.5-1.2
		l-3.7-1.8l-2.6-1.2l-3.9-1.9l-3.1-1.5l-4-2l-3.5-1.7c-1.4-0.7-2.8-1.4-4.3-2.2l-3.6-1.8l-4.5-2.5l-3.8-2l-4.5-2.4
		c-1.4-0.7-2.7-1.5-4.1-2.2c-1.4-0.7-3.1-1.7-4.6-2.6l-4.2-2.4l-4.8-2.8c-1.4-0.8-2.8-1.6-4.2-2.4c-1.6-1-3.3-1.9-4.9-2.9l-4.3-2.6
		l-4.9-3c-1.5-0.9-2.9-1.8-4.4-2.7c-1.5-0.9-3.3-2.1-4.9-3.1c-1.6-1-2.9-1.9-4.4-2.8c-1.5-0.9-3.2-2.1-4.8-3.2
		c-1.6-1.1-2.9-1.9-4.4-2.9l-4.7-3.3c-1.4-1-2.9-2-4.3-3c-1.6-1.1-3.1-2.2-4.6-3.4c-1.5-1.1-2.8-2.1-4.2-3.1c-1.4-1.1-3-2.2-4.5-3.4
		c-1.5-1.2-2.7-2.1-4.1-3.2s-2.9-2.3-4.3-3.5s-2.7-2.2-4-3.3c-1.3-1.1-2.7-2.3-4.1-3.5c-1.3-1.2-2.6-2.3-3.8-3.4
		c-1.2-1.1-2.6-2.4-3.8-3.6c-1.2-1.2-2.4-2.3-3.5-3.4c-1.2-1.1-2.4-2.4-3.5-3.6c-1.1-1.2-2.2-2.4-3.3-3.5s-2.2-2.4-3.2-3.6
		c-1-1.2-2-2.4-3-3.6c-1-1.2-1.9-2.5-2.9-3.7c-0.9-1.2-1.8-2.4-2.6-3.6c-0.8-1.2-1.7-2.4-2.5-3.7c-0.8-1.2-1.6-2.5-2.3-3.7
		c-0.7-1.2-1.4-2.5-2.1-3.7c-0.7-1.2-1.3-2.5-1.9-3.7c-0.6-1.3-1.1-2.4-1.6-3.7c-0.5-1.2-1-2.5-1.4-3.8c-0.4-1.3-0.8-2.4-1.2-3.7
		c-0.4-1.2-0.7-2.5-0.9-3.8c-0.3-1.2-0.5-2.4-0.7-3.6c0-0.6-0.3-1.2-0.3-1.8c-6-5-11.5-10.5-16.5-16.4c-0.8-0.9-1.5-1.8-2.2-2.7
		c-1.8-2.3-3.6-4.6-5.1-7c-0.6-0.9-1.2-1.7-1.8-2.6c-2-3.1-3.8-6.2-5.4-9.3l-0.3-0.6c-1.5-2.9-2.8-5.9-4-8.8c-0.4-0.9-0.7-1.8-1-2.7
		c-0.9-2.3-1.7-4.6-2.3-6.9c-0.2-0.8-0.5-1.6-0.7-2.4c-0.8-3-1.5-5.9-2.1-8.8c0-0.3-0.1-0.6-0.2-0.9c-0.5-2.6-0.9-5.1-1.2-7.6
		c-0.1-0.8-0.2-1.6-0.3-2.4c-0.2-2.1-0.4-4.1-0.5-6.1c0-0.7-0.1-1.3-0.1-2c-0.1-2.5-0.1-5,0-7.3c0-0.3,0-0.7,0-1
		c0.1-2,0.2-3.9,0.3-5.7c0-0.6,0.1-1.2,0.2-1.9c0.1-1.6,0.3-3,0.5-4.5c0.1-0.4,0.1-0.9,0.2-1.3l0.1-0.5l-1,0.2
		c-3.7,0.7-7.4,1.8-11,3.1c-0.5,0.2-1,0.4-1.4,0.6c-3.2,1.3-6.3,2.9-9.2,4.7c-0.2,0.1-0.4,0.3-0.6,0.4c-2.6,1.7-5.1,3.7-7.3,5.8
		l-0.4,0.4c-2,1.9-3.9,4-5.6,6.2c-0.2,0.3-0.5,0.6-0.7,0.9c-1.4,1.9-2.8,3.9-3.9,6c-0.2,0.3-0.4,0.7-0.6,1c-1,1.9-1.9,3.7-2.6,5.4
		c-0.1,0.3-0.2,0.6-0.4,0.8c-0.7,1.6-1.2,3.1-1.6,4.3l-0.1,0.4c-0.4,1.2-0.7,2.2-0.8,2.9l1.6,40.1l25.8-0.9c5.1-0.2,9.5,3.6,9.7,8.5
		c0.1,2.7-1.1,5.3-3.2,7l-1,0.9l-0.7,0.6l-0.6,0.5l-1.3,1.2l-1,0.9c-0.5,0.4-0.9,0.9-1.4,1.4c-0.5,0.5-0.8,0.8-1.2,1.2l-1.7,1.7
		l-1.4,1.5c-0.6,0.6-1.2,1.2-1.8,2c-0.6,0.8-1,1.2-1.6,1.7c-0.7,0.8-1.3,1.5-2,2.3c-0.5,0.6-1.1,1.3-1.6,1.9
		c-0.7,0.9-1.4,1.7-2.1,2.6c-0.6,0.7-1.2,1.5-1.7,2.2c-0.5,0.7-1.4,1.8-2.1,2.8c-0.6,0.8-1.2,1.6-1.7,2.4c-0.7,1-1.4,2-2.1,3
		c-0.7,1-1.2,1.8-1.7,2.7c-0.5,0.9-1.3,2.1-2,3.2c-0.7,1.1-1.1,1.9-1.6,2.9c-0.6,1.2-1.3,2.3-1.9,3.4s-1,2-1.5,3.1
		c-0.5,1-1.1,2.4-1.7,3.6c-0.6,1.2-0.9,2.2-1.3,3.2c-0.4,1.1-1,2.5-1.5,3.8s-0.8,2.3-1.1,3.4c-0.3,1.1-0.8,2.6-1.2,3.9
		c-0.4,1.3-0.6,2.4-0.9,3.6c-0.2,0.9-0.4,1.9-0.6,2.9C255.9,669.5,332.1,722.5,445.9,751.8z M195.3,485.8l0,3.4
		c0.4,26.6,4.8,53,13.1,78.4c0.2-0.5,0.5-1,0.8-1.6c1.5-3.3,3.1-6.6,4.8-9.7c0.2-0.4,0.4-0.8,0.6-1.2c1.9-3.5,4-6.8,6.1-9.9
		c0.6-0.9,1.2-1.7,1.8-2.6c1.6-2.3,3.2-4.5,4.8-6.6c0.6-0.8,1.2-1.5,1.8-2.3c2.1-2.6,4.1-5.1,6-7.3l-12.3,0.5
		c-5.1,0.2-9.5-3.6-9.7-8.5l-2-50c0-0.6,0-1.3,0.1-1.9c0.4-2.2,1-4.4,1.7-6.5c0.1-0.3,0.2-0.6,0.3-1c0.8-2.4,1.8-4.7,2.9-7
		c0.2-0.4,0.4-0.9,0.6-1.3c1.2-2.5,2.6-5,4.1-7.4c0.2-0.4,0.5-0.8,0.8-1.2c1.7-2.7,3.7-5.3,5.8-7.7c0.1-0.2,0.3-0.3,0.4-0.5
		c2.2-2.5,4.6-4.9,7.2-7.2c0.3-0.3,0.6-0.6,0.9-0.8c2.7-2.3,5.6-4.4,8.7-6.4l1.7-1.1c3.3-1.9,6.7-3.6,10.3-5.1
		c0.6-0.3,1.3-0.5,2-0.8c4-1.5,8.1-2.8,12.3-3.7l0.3-0.1c-0.9-0.9-1.7-1.8-2.8-2.7l-0.2-0.2c-1.9-1.6-3.8-3.1-5.9-4.5
		c-0.3-0.2-0.7-0.5-1-0.7c-2.1-1.4-4.4-2.6-6.7-3.7c-0.4-0.2-0.9-0.4-1.4-0.6c-2.5-1.1-5.2-1.9-7.8-2.5c-0.4-0.1-0.8-0.1-1.2-0.2
		c-0.4-0.1-0.9,0-1.2-0.1c4.2,8.6,0.3,18.8-8.8,22.9c-9.1,4-19.9,0.3-24.1-8.3c-1.7-3.5-2.2-7.4-1.2-11.2c-0.4,0.1-0.7,0.1-1.1,0.2
		l-1.6,0.4c-4,1.1-7.8,2.2-11.3,3.4l-2.8,0.9c-2.8,1-5.4,1.9-7.8,2.8c-0.4,0.2-0.8,0.3-1.1,0.4l7.4,8.7c2.9,3.4,2.7,8.3-0.4,11.5
		l-12.9,13.2C187.9,452.4,194.1,468.8,195.3,485.8z M226.9,400.7c0-0.3-0.2-0.5-0.5-0.5c-0.3,0-0.5,0.2-0.5,0.5
		C225.9,401.3,226.9,401.2,226.9,400.7z M173.8,389.8l2.4-1c2.2-0.9,4.6-1.8,7.2-2.7l1.2-0.4c2.2-0.8,4.5-1.5,6.8-2.3
		c1-0.3,2-0.6,3-0.9c2-0.6,3.9-1.2,6-1.7l3.5-0.9c2-0.5,4.1-1,6.1-1.4c1.2-0.2,2.5-0.5,3.7-0.7c2.2-0.4,4.5-0.8,6.8-1.1
		c1.1-0.2,2.2-0.3,3.3-0.5c3.4-0.4,6.8-0.7,10.2-0.8c3.4-0.1,6.8,0.1,10.1,0.5c0.7,0.1,1.4,0.2,2.1,0.3c3,0.5,6,1.1,8.9,2
		c0.5,0.1,0.9,0.3,1.4,0.5c2.5,0.9,4.9,1.8,7.3,3c0.4,0.2,0.9,0.4,1.3,0.6c2.4,1.2,4.8,2.6,7,4.1l1.4,1c2.1,1.4,4,2.9,5.9,4.4
		l0.3,0.2c1.9,1.6,3.6,3.2,5.2,4.8l1,1c1.5,1.5,2.8,3,4,4.3l0.5,0.6c1.1,1.3,2,2.4,2.8,3.5l0.3,0.3l32.5-1.2
		c-18.3-31.4-54.7-49.4-92.3-45.6l0,0c-24.7,1.4-48.2,10.7-66.6,26.4l4.1,4.8C171.8,390.6,172.8,390.2,173.8,389.8z M163,427.1
		l7.9-8.1l-9.9-11.7l-6.2-7.3l-2.9-3.4c-14.8,3.3-28.4,10.3-39.2,20.5L163,427.1z"/>
</g>
<g id="Group_3123" transform="translate(-190.792 -1301.359)" class="st13">
	<g id="Group_3121" class="st14">
		<g id="Group_3019">
			<g id="Group_3018">
				<g id="Group_3017">
					<g id="Group_3016">
						<g id="Group_3015">
							<circle id="Ellipse_139" class="st10" cx="329.5" cy="1744.9" r="8.1"/>
						</g>
					</g>
				</g>
			</g>
		</g>
		<g id="Group_3024">
			<g id="Group_3023">
				<g id="Group_3022">
					<g id="Group_3021">
						<g id="Group_3020">
							<path id="Path_1307" class="st17" d="M304.7,1795.8c0.3-0.3,0.5-0.7,0.9-1C305.3,1795.1,305,1795.4,304.7,1795.8z"/>
						</g>
					</g>
				</g>
			</g>
		</g>
		<g id="Group_3029">
			<g id="Group_3028">
				<g id="Group_3027">
					<g id="Group_3026">
						<g id="Group_3025">
							<path id="Path_1308" class="st17" d="M307.4,1793c-0.4,0.3-0.7,0.6-1,1C306.7,1793.7,307.1,1793.3,307.4,1793z"/>
						</g>
					</g>
				</g>
			</g>
		</g>
		<g id="Group_3034">
			<g id="Group_3033">
				<g id="Group_3032">
					<g id="Group_3031">
						<g id="Group_3030">
							<path id="Path_1309" class="st7" d="M313.7,1753.7L313.7,1753.7l-7.8,8.4c0,0-7.9-0.2-16-1.1c1,12.7,7.4,24.3,17.5,32.1
								c6.9-5.1,15.2-7.8,23.7-7.9c5.3-0.2,10.5-0.9,15.7-2C337,1753.8,313.7,1753.7,313.7,1753.7z"/>
						</g>
					</g>
				</g>
			</g>
		</g>
		<g id="Group_3039">
			<g id="Group_3038">
				<g id="Group_3037">
					<g id="Group_3036">
						<g id="Group_3035">
							<path id="Path_1310" class="st8" d="M329.2,1718.5c-1.5,0-3.1,0-4.7,0.1c-20.1,0.8-35.9,13.3-35.3,27.9c0,0.2,0,0.4,0,0.6
								c5.4-0.7,10.7-1.1,16.1-1.2l8.4,7.8c0,0,23.3,0.2,33.1,29.5c15.9-2.8,30.2-11.5,40-24.3
								C360.3,1734.4,365.9,1718.3,329.2,1718.5z"/>
						</g>
					</g>
				</g>
			</g>
		</g>
		<g id="Group_3044">
			<g id="Group_3043">
				<g id="Group_3042">
					<g id="Group_3041">
						<g id="Group_3040">
							<path id="Path_1311" class="st6" d="M305.3,1745.9c-5.4,0.1-10.8,0.5-16.1,1.2c-8,1.2-16.1,3.5-15.9,8.1
								c0.1,3,8.5,4.7,16.7,5.7c8,0.9,16,1.1,16,1.1l7.8-8.4L305.3,1745.9z"/>
						</g>
					</g>
				</g>
			</g>
		</g>
		<g id="Group_3049">
			<g id="Group_3048">
				<g id="Group_3047">
					<g id="Group_3046">
						<g id="Group_3045">
							<path id="Path_1312" class="st7" d="M236.1,1837.7l210.2,194.1l24.3-1l-235.4-217.4L236.1,1837.7z"/>
						</g>
					</g>
				</g>
			</g>
		</g>
		<g id="Group_3060">
			<g id="Group_3054">
				<g id="Group_3053">
					<g id="Group_3052">
						<g id="Group_3051">
							<g id="Group_3050">
								<path id="Path_1313" class="st8" d="M300.1,1814.7c-0.1-1.2-0.3-2.5-0.3-3.7C299.8,1812.2,299.9,1813.4,300.1,1814.7z"/>
							</g>
						</g>
					</g>
				</g>
			</g>
			<g id="Group_3059">
				<g id="Group_3058">
					<g id="Group_3057">
						<g id="Group_3056">
							<g id="Group_3055">
								<path id="Path_1314" class="st8" d="M615.7,1895.5l-4.9,0.2c-96.9,3.9-301.1-8.6-310.7-81c2.8,22.9,22.3,43,50.8,59.6
									c8.4,4.9,17.1,9.3,25.9,13.3c6.7,3,13.7,5.8,20.9,8.5c13.9,5.2,28.6,9.9,43.7,14c47.7,13.2,97,19.6,146.5,19
									c98.6-3.9,112.9-12.6,112.9-12.6C671.8,1912.1,643.3,1905.1,615.7,1895.5z"/>
							</g>
						</g>
					</g>
				</g>
			</g>
		</g>
		<g id="Group_3065">
			<g id="Group_3064">
				<g id="Group_3063">
					<g id="Group_3062">
						<g id="Group_3061">
							<path id="Path_1315" class="st12" d="M441.4,1910c-16.8-4.5-33.3-9.9-49.4-16.2l-0.9-0.4c-4.8-1.9-9.6-3.9-14.2-5.9l-1.2-0.5
								l1,26.1c0.3,4.4,4,7.8,8.4,7.8l56.6-2.3L441.4,1910z"/>
						</g>
					</g>
				</g>
			</g>
		</g>
		<g id="Group_3070">
			<g id="Group_3069">
				<g id="Group_3068">
					<g id="Group_3067">
						<g id="Group_3066">
							<path id="Path_1316" class="st17" d="M304.7,1795.8c0.3-0.3,0.5-0.7,0.9-1C305.3,1795.1,305,1795.4,304.7,1795.8z"/>
						</g>
					</g>
				</g>
			</g>
		</g>
		<g id="Group_3075">
			<g id="Group_3074">
				<g id="Group_3073">
					<g id="Group_3072">
						<g id="Group_3071">
							<path id="Path_1317" class="st17" d="M307.4,1793c-0.4,0.3-0.7,0.6-1,1C306.7,1793.7,307.1,1793.3,307.4,1793z"/>
						</g>
					</g>
				</g>
			</g>
		</g>
		<g id="Group_3080">
			<g id="Group_3079">
				<g id="Group_3078">
					<g id="Group_3077">
						<g id="Group_3076">
							<path id="Path_1318" class="st12" d="M313.7,1753.7L313.7,1753.7l-7.8,8.4c0,0-7.9-0.2-16-1.1c1,12.7,7.4,24.3,17.5,32.1
								c6.9-5.1,15.2-7.8,23.7-7.9c5.3-0.2,10.5-0.9,15.7-2C337,1753.8,313.7,1753.7,313.7,1753.7z"/>
						</g>
					</g>
				</g>
			</g>
		</g>
		<g id="Group_3085">
			<g id="Group_3084">
				<g id="Group_3083">
					<g id="Group_3082">
						<g id="Group_3081">
							<path id="Path_1319" class="st18" d="M305.3,1745.9c-5.4,0.1-10.8,0.5-16.1,1.2c-8,1.2-16.1,3.5-15.9,8.1
								c0.1,3,8.5,4.7,16.7,5.7c8,0.9,16,1.1,16,1.1l7.8-8.4L305.3,1745.9z"/>
						</g>
					</g>
				</g>
			</g>
		</g>
		<g id="Group_3090">
			<g id="Group_3089">
				<g id="Group_3088">
					<g id="Group_3087">
						<g id="Group_3086">
							<path id="Path_1320" class="st12" d="M350.9,1874.3l0.6,15.5c0.2,4.5,3.9,7.9,8.4,7.8c0,0,0,0,0,0l16.2-0.6l-0.4-9.9
								C367.2,1883.2,358.9,1879,350.9,1874.3z"/>
						</g>
					</g>
				</g>
			</g>
		</g>
		<g id="Group_3095">
			<g id="Group_3094">
				<g id="Group_3093">
					<g id="Group_3092">
						<g id="Group_3091">
							<path id="Path_1321" class="st12" d="M441.4,1910c-16.8-4.5-33.3-9.9-49.4-16.2l-0.9-0.4c-4.8-1.9-9.6-3.9-14.2-5.9l-1.2-0.5
								l1,26.1c0.3,4.4,4,7.8,8.4,7.8l56.6-2.3L441.4,1910z"/>
						</g>
					</g>
				</g>
			</g>
		</g>
		<g id="Group_3100">
			<g id="Group_3099">
				<g id="Group_3098">
					<g id="Group_3097">
						<g id="Group_3096">
							<path id="Path_1322" class="st18" d="M441.7,1918.6l52,87l6.8-32.7l33,14.9l-39.7-66.3c-17.5-3-35.2-6.8-52.5-11.5
								L441.7,1918.6z"/>
						</g>
					</g>
				</g>
			</g>
		</g>
		<g id="Group_3105">
			<g id="Group_3104">
				<g id="Group_3103">
					<g id="Group_3102">
						<g id="Group_3101">
							<path id="Path_1323" class="st11" d="M490.3,1835.7c-36.9-22.3-71.6-48-103.6-76.8c-9.8,12.8-24.1,21.5-40,24.3
								C346.8,1783.2,361.3,1839.5,490.3,1835.7z"/>
						</g>
					</g>
				</g>
			</g>
		</g>
		<g id="Group_3110">
			<g id="Group_3109">
				<g id="Group_3108">
					<g id="Group_3107">
						<g id="Group_3106">
							<path id="Path_1324" class="st18" d="M490.3,1835.7c-129,3.8-143.5-52.5-143.5-52.5c-5.2,1.1-10.4,1.8-15.7,2
								c-8.5,0-16.8,2.8-23.7,7.9c-0.4,0.3-0.7,0.6-1,1c-0.3,0.3-0.6,0.5-0.8,0.8c-0.3,0.3-0.6,0.7-0.9,1s-0.5,0.6-0.8,1
								c-0.2,0.3-0.5,0.7-0.7,1c-0.2,0.4-0.5,0.7-0.7,1.1c-0.2,0.4-0.4,0.7-0.6,1.1c-0.2,0.4-0.4,0.9-0.6,1.3
								c-0.2,0.4-0.3,0.7-0.4,1.1c-0.2,0.5-0.3,1-0.4,1.5c-0.1,0.4-0.2,0.7-0.3,1.1c-0.1,0.6-0.2,1.2-0.3,1.9c0,0.3-0.1,0.6-0.1,1
								c-0.1,1-0.1,2.1-0.1,3.1c3,75.7,212.5,88.7,311.1,84.8l4.9-0.2C571.9,1880.2,529.8,1860.1,490.3,1835.7z"/>
						</g>
					</g>
				</g>
			</g>
		</g>
		<g id="Group_3115">
			<g id="Group_3114">
				<g id="Group_3113">
					<g id="Group_3112">
						<g id="Group_3111">
							<path id="Path_1325" class="st17" d="M304.7,1795.8c0.3-0.3,0.5-0.7,0.9-1C305.3,1795.1,305,1795.4,304.7,1795.8z"/>
						</g>
					</g>
				</g>
			</g>
		</g>
		<g id="Group_3120">
			<g id="Group_3119">
				<g id="Group_3118">
					<g id="Group_3117">
						<g id="Group_3116">
							<path id="Path_1326" class="st17" d="M307.4,1793c-0.4,0.3-0.7,0.6-1,1C306.7,1793.7,307.1,1793.3,307.4,1793z"/>
						</g>
					</g>
				</g>
			</g>
		</g>
	</g>
	<g id="Group_3122" class="st14">
		<circle id="Ellipse_140" class="st16" cx="329.5" cy="1744.9" r="8.1"/>
		<path id="Path_1327" class="st16" d="M704.9,1915.6c-0.4-1.8-1.8-3.1-3.6-3.4c-28.7-4.3-56.9-11.3-84.3-20.7
			c-43.5-15.2-85.3-35.1-124.5-59.4c-36.6-22.1-71-47.7-102.9-76.3l0,0l0,0c-6.5-6.1-12.4-12.9-17.5-20.2
			c-9.2-12.5-15.9-21.5-43-21.3l0,0c-1.6,0-3.2,0-4.9,0.1c-20.9,0.8-37.6,13.5-39.3,29.1c-6.3,1.2-16.3,4.1-16,12
			c0.2,5.6,7,7.9,17.3,9.3c1.6,10.9,6.9,21,14.9,28.5c-0.2,0.3-0.4,0.5-0.7,0.8c-0.3,0.4-0.6,0.8-0.9,1.3c-0.3,0.4-0.6,0.9-0.8,1.3
			s-0.5,0.9-0.7,1.3c-0.2,0.4-0.5,1-0.7,1.6c-0.2,0.5-0.4,0.9-0.5,1.4c-0.2,0.6-0.4,1.2-0.5,1.8l-0.1,0.3c-0.1,0.3-0.2,0.7-0.3,1.1
			c-0.1,0.7-0.2,1.5-0.4,2.5c0,0.3-0.1,0.6-0.1,0.9c-0.1,1.2-0.1,2.4-0.1,3.6c0.1,1.5,0.2,2.9,0.4,4.4c2.8,22.2,19.9,42.8,50.8,61.3
			l0.3,8.2l-32.7-4.1l-76.3-70.5c-1.7-1.6-4.4-1.5-6.1,0.2s-1.5,4.4,0.2,6.1l0,0l68.3,63.1c-3,0.6-5.6,2.4-7.4,4.8l-54.1-49.9
			c-1.7-1.6-4.4-1.5-6.1,0.2c-1.6,1.7-1.5,4.4,0.2,6.1l57.8,53.3c1.1,5.2,5.3,9.1,10.6,9.8l14.6,13.5c1.1,5.2,5.3,9.1,10.6,9.8
			L443.4,2035c1.7,1.6,4.4,1.5,6.1-0.2s1.5-4.4-0.2-6.1L331.4,1920l0,0l-6.8-6.3c0.5-1.4,1.8-2.3,3.3-2.4l7.9,1L467.6,2034
			c1.7,1.6,4.4,1.5,6.1-0.2c1.6-1.7,1.5-4.4-0.2-6.1l-123-113.6l22.8,2.9c1.9,4.8,6.4,8,11.6,8.2c0.2,0,0.4,0,0.5,0l54.1-2.2
			l50.7,84.8c0.8,1.3,2.3,2.1,3.8,2.1c0.2,0,0.4,0,0.6-0.1c1.7-0.3,3.1-1.6,3.5-3.3l5.7-27.4l28.1,12.7c2.2,1,4.7,0,5.7-2.1
			c0.6-1.3,0.5-2.8-0.2-4l-35-58.4c28.3,4.7,57.1,6.7,85.8,6.1c96.9-3.9,113.4-12.3,114.9-13.2
			C704.5,1919.1,705.3,1917.3,704.9,1915.6z M592.1,1891.9l-2.9,0c-2.4,0-4.8,0.1-7.3,0.1l-2.7,0c-2.6,0-5.3,0-8,0l-2.5,0
			c-2.9,0-5.7-0.1-8.7-0.1l-2.3,0c-3.1-0.1-6.3-0.1-9.5-0.2l-1.8,0c-3.5-0.1-7.1-0.2-10.6-0.4l-0.9,0c-15.9-0.7-32.5-1.7-49.2-3.3
			l-0.9-0.1c-3.7-0.3-7.4-0.7-11.1-1.1l-2.7-0.3c-3.1-0.3-6.2-0.7-9.2-1.1l-3.6-0.5c-2.8-0.3-5.5-0.7-8.2-1.1
			c-1.4-0.2-2.8-0.4-4.1-0.6c-2.6-0.4-5.1-0.8-7.7-1.2l-4.3-0.7c-2.5-0.4-4.9-0.8-7.4-1.3c-1.8-0.3-3.6-0.6-5.4-1
			c-0.7-0.1-1.3-0.2-2-0.4l-1.4-0.3l-3.6-0.7l-1.3-0.3l-3.7-0.8l-1.2-0.3c-1.2-0.3-2.5-0.5-3.7-0.8l-1.3-0.3l-3.7-0.8l-1.3-0.3
			c-1.2-0.3-2.4-0.6-3.6-0.9l-1.4-0.4c-1.2-0.3-2.4-0.6-3.5-0.9l-1.6-0.4c-1.1-0.3-2.2-0.6-3.4-0.9l-1.7-0.5
			c-1.1-0.3-2.1-0.6-3.2-0.9l-1.9-0.6c-1-0.3-1.9-0.6-2.9-0.9l-2.1-0.7c-0.9-0.3-1.8-0.6-2.7-0.9l-2.3-0.8l-2.5-0.8l-2.4-0.9
			c-0.7-0.3-1.5-0.5-2.2-0.8c-0.9-0.3-1.7-0.7-2.6-1c-0.7-0.3-1.3-0.5-2-0.8c-0.9-0.4-1.8-0.7-2.7-1.1c-0.6-0.2-1.2-0.5-1.8-0.7
			c-0.9-0.4-1.8-0.8-2.7-1.2l-1.6-0.7c-0.9-0.4-1.9-0.9-2.8-1.3c-0.5-0.2-0.9-0.4-1.4-0.7c-1-0.5-1.9-1-2.8-1.4
			c-0.4-0.2-0.8-0.4-1.2-0.6c-1-0.5-1.9-1.1-2.8-1.6c-0.4-0.2-0.7-0.4-1.1-0.6c-0.9-0.5-1.9-1.1-2.8-1.7c-0.3-0.2-0.7-0.4-1-0.6
			c-0.9-0.6-1.8-1.2-2.7-1.8c-0.3-0.2-0.6-0.4-0.9-0.6c-0.9-0.6-1.7-1.2-2.6-1.9c-0.3-0.2-0.5-0.4-0.8-0.6c-0.8-0.6-1.6-1.3-2.4-2
			c-0.2-0.2-0.5-0.4-0.7-0.6c-0.8-0.7-1.5-1.4-2.3-2c-0.2-0.2-0.5-0.4-0.7-0.6c-0.7-0.7-1.4-1.4-2.1-2.1c-0.2-0.2-0.4-0.4-0.6-0.7
			c-0.6-0.7-1.2-1.4-1.8-2.1c-0.2-0.3-0.4-0.5-0.7-0.8c-0.5-0.7-1-1.4-1.5-2.1c-0.2-0.3-0.4-0.6-0.6-0.9c-0.4-0.7-0.9-1.3-1.3-2
			c-0.2-0.3-0.4-0.7-0.6-1c-0.4-0.6-0.7-1.3-1-1.9c-0.2-0.4-0.4-0.8-0.6-1.3c-0.3-0.6-0.5-1.1-0.7-1.7c-0.2-0.6-0.4-1-0.6-1.6
			c-0.2-0.5-0.3-0.9-0.4-1.4c-0.2-0.7-0.4-1.3-0.6-2c-0.1-0.3-0.1-0.6-0.2-1c-0.2-0.8-0.3-1.7-0.5-2.5c-0.2-1.1-0.3-2.2-0.3-3.4
			c0-0.9,0-1.7,0.1-2.6l0.1-0.8c0.1-0.5,0.1-1,0.2-1.5c0-0.2,0.1-0.4,0.1-0.6l0.1-0.3c0.1-0.4,0.2-0.8,0.4-1.2
			c0.1-0.3,0.2-0.6,0.3-0.9c0.1-0.3,0.3-0.7,0.5-1c0.2-0.3,0.3-0.6,0.5-0.9c0.2-0.3,0.4-0.6,0.5-0.9s0.4-0.6,0.5-0.8
			c0.2-0.3,0.4-0.5,0.6-0.7l0.2-0.2c0.2-0.2,0.3-0.4,0.5-0.6c0.2-0.2,0.3-0.3,0.4-0.4l0.6-0.5c0.2-0.2,0.4-0.4,0.6-0.5
			c6.1-4.5,13.5-6.9,21.1-6.9c2.5-0.1,5-0.3,7.5-0.6c0.8-0.1,1.5-0.2,2.3-0.3c1-0.1,2-0.3,3.1-0.4c0.1,0.2,0.2,0.5,0.3,0.7
			s0.2,0.3,0.2,0.5c0.2,0.5,0.5,1,0.8,1.6l0,0.1c0.3,0.6,0.7,1.2,1.1,1.9c0.1,0.2,0.2,0.4,0.4,0.6c0.3,0.5,0.6,0.9,0.9,1.4l0.5,0.8
			c0.3,0.5,0.6,0.9,1,1.4l0.6,0.8c0.4,0.5,0.8,1,1.2,1.6c0.2,0.2,0.4,0.5,0.6,0.7c0.6,0.8,1.3,1.6,2,2.4l0.1,0.1
			c0.7,0.8,1.4,1.5,2.2,2.3l0.8,0.8c0.6,0.5,1.2,1.1,1.8,1.6c0.3,0.3,0.7,0.6,1.1,1c0.6,0.5,1.2,1.1,1.9,1.6c0.4,0.3,0.8,0.6,1.2,1
			c0.7,0.6,1.5,1.1,2.3,1.7c0.4,0.3,0.7,0.5,1.1,0.8c1.2,0.8,2.4,1.7,3.6,2.5c0.2,0.1,0.5,0.3,0.7,0.4c1.1,0.7,2.2,1.4,3.4,2.1
			c0.5,0.3,1,0.6,1.6,0.9c0.9,0.5,1.9,1.1,2.9,1.6c0.6,0.3,1.2,0.6,1.8,0.9c1,0.5,2,1,3.1,1.5c0.6,0.3,1.3,0.6,1.9,0.9
			c1.2,0.5,2.4,1,3.7,1.6c0.6,0.2,1.1,0.5,1.7,0.7c1.8,0.7,3.7,1.4,5.7,2.1c0.4,0.1,0.9,0.3,1.3,0.4c1.6,0.5,3.2,1.1,4.9,1.6
			c0.8,0.2,1.6,0.5,2.4,0.7c1.4,0.4,2.9,0.8,4.4,1.2c0.9,0.2,1.8,0.5,2.7,0.7c1.5,0.4,3.1,0.7,4.6,1.1c0.9,0.2,1.8,0.4,2.8,0.6
			c1.8,0.4,3.7,0.7,5.6,1.1c0.7,0.1,1.5,0.3,2.2,0.4c2.7,0.5,5.4,0.9,8.3,1.2c0.7,0.1,1.5,0.2,2.2,0.3c2.2,0.3,4.4,0.5,6.7,0.8
			c1.1,0.1,2.2,0.2,3.4,0.3c2,0.2,4,0.3,6.1,0.5c1.2,0.1,2.5,0.2,3.7,0.2c2.1,0.1,4.3,0.2,6.6,0.3c1.2,0,2.4,0.1,3.7,0.1
			c2.7,0.1,5.5,0.1,8.3,0.1c0.8,0,1.6,0,2.4,0c3.5,0,7-0.1,10.6-0.1c33.1,20.3,68,37.7,104.1,51.9L592.1,1891.9z M358.9,1784.1
			c0.5-0.2,1-0.4,1.5-0.6c1.4-0.5,2.7-1.1,4-1.7c0.5-0.2,1-0.5,1.5-0.7c1.5-0.7,2.9-1.5,4.3-2.3l0.4-0.2c1.5-0.9,2.8-1.7,4.1-2.6
			c0.4-0.3,0.7-0.5,1.1-0.8c0.9-0.7,1.8-1.3,2.7-1.9c0.3-0.3,0.7-0.5,1-0.8c1.1-0.8,2-1.7,2.9-2.5l0,0c0.9-0.8,1.7-1.6,2.5-2.4
			c0.2-0.2,0.4-0.4,0.6-0.6c0.5-0.6,1-1.1,1.5-1.6c0.1-0.1,0.2-0.2,0.3-0.3c27.7,24.4,57.2,46.6,88.3,66.4c-1.8,0-3.7,0-5.5-0.1
			c-0.7,0-1.5,0-2.3,0c-3.1-0.1-6.2-0.2-9.2-0.4c-0.7,0-1.4-0.1-2.1-0.1c-2.2-0.1-4.4-0.3-6.6-0.5c-1-0.1-1.9-0.2-2.9-0.3
			c-1.9-0.2-3.7-0.4-5.6-0.6c-0.9-0.1-1.8-0.2-2.7-0.3c-2-0.3-4-0.5-6-0.8c-0.6-0.1-1.1-0.2-1.7-0.2c-2.4-0.4-4.8-0.8-7.1-1.2
			c-0.6-0.1-1.2-0.3-1.9-0.4c-1.7-0.3-3.3-0.7-4.9-1c-0.8-0.2-1.5-0.4-2.2-0.5c-1.4-0.4-2.8-0.7-4.2-1.1c-0.7-0.2-1.4-0.4-2.1-0.6
			c-1.6-0.4-3.1-0.9-4.6-1.4c-0.4-0.1-0.8-0.2-1.1-0.3c-1.8-0.6-3.6-1.2-5.3-1.8c-0.5-0.2-1-0.4-1.5-0.6c-1.2-0.5-2.4-0.9-3.5-1.4
			l-1.7-0.7c-1.1-0.4-2.1-0.9-3.1-1.4l-1.5-0.7c-1.2-0.6-2.3-1.1-3.5-1.7l-0.7-0.4c-1.3-0.7-2.6-1.4-3.8-2.1
			c-0.4-0.2-0.8-0.5-1.2-0.7c-0.8-0.5-1.6-1-2.4-1.5c-0.4-0.3-0.8-0.5-1.2-0.8c-0.7-0.5-1.4-1-2.1-1.5l-1-0.7
			c-0.9-0.6-1.7-1.3-2.5-1.9l-0.3-0.3c-0.9-0.7-1.7-1.4-2.5-2.1l-0.8-0.7c-0.5-0.5-1-1-1.5-1.4c-0.3-0.3-0.5-0.5-0.8-0.8
			c-0.5-0.5-0.9-0.9-1.4-1.4c-0.2-0.2-0.4-0.4-0.6-0.7c-0.6-0.6-1.1-1.3-1.7-1.9l-0.2-0.2c-0.5-0.6-1-1.2-1.4-1.7
			c-0.2-0.2-0.3-0.4-0.5-0.6c-0.3-0.4-0.6-0.8-0.9-1.2c-0.2-0.2-0.3-0.4-0.4-0.6c-0.3-0.4-0.5-0.7-0.7-1.1c-0.1-0.2-0.2-0.3-0.3-0.5
			c-0.3-0.5-0.6-1-0.9-1.4l-0.1-0.2c-0.2-0.3-0.4-0.6-0.5-0.9l0.1-0.1C355,1785.5,357,1784.8,358.9,1784.1L358.9,1784.1z
			 M324.6,1722.9c1.6-0.1,3.1-0.1,4.6-0.1c22.7-0.1,27.2,5.9,36,17.8c4.7,6.6,10,12.9,15.8,18.7l0,0c-0.4,0.5-1,1.1-1.6,1.7
			c-0.2,0.2-0.3,0.3-0.5,0.5c-0.5,0.5-1.1,1.1-1.7,1.7l-0.5,0.5c-0.8,0.7-1.7,1.5-2.6,2.2c-0.2,0.2-0.4,0.3-0.6,0.5
			c-0.8,0.6-1.7,1.3-2.6,1.9l-0.9,0.6c-1.2,0.8-2.4,1.6-3.8,2.4l-0.1,0.1c-1.3,0.7-2.7,1.5-4.2,2.2c-0.4,0.2-0.8,0.4-1.3,0.6
			c-1.3,0.6-2.7,1.2-4.1,1.7c-0.3,0.1-0.7,0.3-1,0.4c-1.7,0.6-3.6,1.2-5.5,1.7c-0.2,0-0.3,0.1-0.5,0.1c-0.2-0.4-0.3-0.7-0.5-1.1
			c-0.3-0.6-0.5-1.2-0.8-1.8c-0.5-1-1-2.1-1.5-3c-0.3-0.5-0.5-1-0.8-1.5c-0.6-1-1.2-2-1.8-3c-0.2-0.3-0.4-0.7-0.6-1
			c-0.9-1.2-1.7-2.3-2.6-3.4c-0.2-0.2-0.4-0.4-0.6-0.7c-0.7-0.8-1.4-1.6-2.2-2.3c-0.3-0.3-0.6-0.6-1-0.9c-0.6-0.5-1.2-1.1-1.9-1.6
			c-0.3-0.3-0.7-0.5-1-0.8c-0.6-0.5-1.3-0.9-1.9-1.4c-0.3-0.2-0.6-0.4-0.9-0.6c-0.9-0.5-1.7-1-2.5-1.5l-0.2-0.1
			c-0.9-0.5-1.8-0.9-2.7-1.3c-0.3-0.1-0.5-0.2-0.8-0.3c-0.6-0.3-1.2-0.5-1.7-0.7l-0.8-0.3c-0.5-0.2-1-0.3-1.5-0.5l-0.7-0.2
			c-0.5-0.1-1-0.3-1.5-0.4l-0.5-0.1c-0.6-0.1-1.2-0.2-1.7-0.3l-0.2,0c-0.3,0-0.7-0.1-0.9-0.1l-7.3-6.7c-0.8-0.7-1.8-1.1-2.9-1.1
			l-0.4,0l-0.2,0l-0.8,0l-2,0.1l-2,0.1l-0.3,0c-0.6,0-1.3,0.1-2,0.1l-0.6,0l-2,0.2l-0.7,0.1l-0.5,0
			C296.2,1731.9,308.9,1723.5,324.6,1722.9L324.6,1722.9z M289.8,1751.4c4.6-0.6,9.2-1,13.9-1.2l4,3.7l-3.5,3.8
			c-2.8-0.1-8.2-0.4-13.7-1c-4-0.3-7.9-1.1-11.8-2.3C282.2,1752.8,285.9,1751.8,289.8,1751.4L289.8,1751.4z M295.1,1765.8l0.2,0
			l0.7,0.1l1.8,0.1l0.8,0l1.7,0.1l0.4,0l1.9,0.1l0,0l1.5,0.1l0.4,0l0.7,0l0.3,0l0.3,0l0.3,0c0.3,0,0.6-0.1,1-0.2
			c0.2,0,0.4-0.1,0.6-0.1c0.5-0.2,1-0.6,1.4-1l6.3-6.9l0.3,0l0.4,0.1l0.9,0.2l0.4,0.1c0.5,0.1,1,0.2,1.5,0.4c0.1,0,0.2,0.1,0.3,0.1
			c0.5,0.1,0.9,0.3,1.4,0.5l0.6,0.2c0.4,0.2,0.9,0.4,1.3,0.6l0.6,0.3c0.6,0.3,1.2,0.6,1.8,0.9c0.1,0,0.1,0.1,0.2,0.1
			c0.7,0.4,1.4,0.8,2.1,1.3c0.2,0.1,0.4,0.3,0.6,0.4c0.5,0.4,1,0.7,1.5,1.2c0.2,0.2,0.5,0.4,0.7,0.6c0.5,0.5,1.1,1,1.6,1.5
			c0.2,0.2,0.4,0.3,0.5,0.5c0.7,0.7,1.4,1.5,2.1,2.3c0.2,0.2,0.3,0.4,0.5,0.6c0.5,0.7,1.1,1.4,1.6,2.1c0.2,0.3,0.4,0.6,0.7,1
			c0.5,0.7,0.9,1.5,1.4,2.3c0.2,0.3,0.4,0.7,0.6,1c0.6,1.1,1.2,2.3,1.7,3.5c-0.3,0-0.7,0.1-1,0.2c-3,0.5-6,0.7-9,0.9
			c-0.7,0-1.5,0.1-2.4,0.1l-0.8,0.1c-0.6,0.1-1.3,0.1-1.9,0.2c-0.4,0-0.7,0.1-1.1,0.2c-0.6,0.1-1.3,0.2-1.9,0.3
			c-0.4,0.1-0.9,0.2-1.3,0.3c-0.7,0.1-1.3,0.3-2,0.5c-0.5,0.1-0.9,0.2-1.4,0.4c-0.7,0.2-1.3,0.4-2,0.7c-0.5,0.2-0.9,0.3-1.4,0.5
			c-0.7,0.3-1.4,0.6-2.1,0.9c-0.5,0.2-0.9,0.4-1.4,0.6c-0.7,0.4-1.5,0.8-2.2,1.2c-0.4,0.2-0.8,0.4-1.2,0.7c-0.1,0.1-0.2,0.1-0.3,0.1
			C301.1,1781.8,296.7,1774.2,295.1,1765.8L295.1,1765.8z M362.8,1885.6l1.5,0.7c2.2,1.1,4.4,2.1,6.6,3.2c0.2,0.1,0.4,0.2,0.6,0.3
			l0.1,3l-11.9,0.5c-2.1,0.1-3.9-1.6-4-3.7l-0.3-7.9c0.3,0.2,0.6,0.3,0.9,0.5C358.4,1883.4,360.6,1884.5,362.8,1885.6L362.8,1885.6z
			 M306.2,1896.7L306.2,1896.7l-6.8-6.3c0.5-1.4,1.8-2.3,3.3-2.4l7.9,1l15.2,14c-3,0.6-5.6,2.4-7.4,4.8L306.2,1896.7z M325.1,1890.8
			l22.9,2.9c1.8,5.1,6.7,8.4,12.1,8.2l11.9-0.5l0.3,6.8l-32.7-4.1L325.1,1890.8z M381,1912.9l-0.8-19.2l0.7,0.3l2.4,1
			c1.9,0.8,3.8,1.6,5.7,2.3l0.4,0.2l0.9,0.4l0.3,0.1c1.8,0.7,3.6,1.5,5.5,2.2c1.2,0.4,2.4,0.9,3.6,1.3c1.2,0.4,2.5,0.9,3.7,1.3
			c2.2,0.8,4.3,1.5,6.5,2.3c1.7,0.6,3.5,1.2,5.3,1.8c2,0.6,4,1.3,6,1.9c1.9,0.6,3.7,1.1,5.6,1.7c2.2,0.7,4.4,1.3,6.7,1.9
			c1.2,0.3,2.5,0.7,3.7,1.1l0,1.1l-52,2.1C383.8,1916.4,381.1,1915.7,381,1912.9L381,1912.9z M502.3,1969.1c-2.2-1-4.7,0-5.7,2.2
			c-0.1,0.3-0.2,0.6-0.3,0.9l-4.6,21.9l-45.9-76.7l-0.1-1.7c5,1.3,10.2,2.5,15.3,3.6c2,0.5,4,1,6,1.4c7.9,1.7,15.9,3.3,24,4.8
			l31.6,52.9L502.3,1969.1z M587.7,1924.7c-31.2,0.7-62.4-1.8-93.1-7.4c-17.8-3.1-35.4-6.9-52.1-11.4c-4.1-1.1-8.1-2.2-12.1-3.4
			c-1.5-0.5-3.1-0.9-4.6-1.4c-2.4-0.7-4.8-1.5-7.2-2.2c-1.6-0.5-3.2-1.1-4.8-1.6c-2.4-0.8-4.8-1.6-7.1-2.5c-1.2-0.4-2.3-0.8-3.4-1.2
			c-3.3-1.2-6.5-2.4-9.7-3.7l-1.1-0.4c-5.3-2.1-10.3-4.3-15-6.5c-0.2-0.1-0.3,0-0.5-0.1c-4.2-1.9-8.4-3.9-12.3-5.9l-1.3-0.7
			c-1.6-0.8-3.1-1.6-4.6-2.4c-1.9-1.1-3.9-2.1-5.7-3.3c-2.3-1.3-4.5-2.7-6.6-4c68,29.9,187.2,35.3,252.3,33.8l0.3,0l5.4-0.1l1.3,0
			c1.8-0.1,3.6-0.1,5.3-0.2l4.1-0.2c21.1,7.2,42.8,13,64.7,17.4C649.2,1921.4,618.5,1924,587.7,1924.7L587.7,1924.7z"/>
	</g>
</g>
<path class="st16" d="M194.7,623.3"/>
</svg>
