<?xml version="1.0" encoding="utf-8"?>
<!-- Generator: Adobe Illustrator 24.0.0, SVG Export Plug-In . SVG Version: 6.00 Build 0)  -->
<svg version="1.1" id="Layer_1" xmlns="http://www.w3.org/2000/svg" xmlns:xlink="http://www.w3.org/1999/xlink" x="0px" y="0px"
	 viewBox="0 0 800 897.3" style="enable-background:new 0 0 800 897.3;" xml:space="preserve">
<style type="text/css">
	.st0{fill:#A7D0D7;}
	.st1{fill:#DBEFF5;}
	.st2{fill:#6BA4AE;}
	.st3{fill:url(#SVGID_1_);}
	.st4{fill:#00BFED;}
	.st5{fill:#69A6AE;}
	.st6{fill:#FBFFFF;}
	.st7{fill:#FFDCE8;}
	.st8{display:none;fill:#A7D0D7;}
	.st9{display:none;fill:#DBEFF5;}
	.st10{display:none;fill:#6BA4AE;}
	.st11{display:none;fill:url(#SVGID_2_);}
	.st12{display:none;fill:#00BFED;}
	.st13{display:none;fill:#69A6AE;}
	.st14{display:none;fill:#FBFFFF;}
	.st15{display:none;fill:#FFDCE8;}
	.st16{display:none;fill:url(#SVGID_3_);}
</style>
<path class="st0" d="M356,794.4l-21.2,61.8c0,0,9.9,11.3,16.1,11.2c9.5-0.2,28.5-0.4,68.4-9.6c42.1-9.7,63.1-7.1,65.3-11.3
	c4-7.4-9-77.8,5.3-133c11.4-44.4,33.7-100.4,35.4-143.1c1.7-42.8,1.4-49.6-1.2-56.8c-1.4-4-4.8-8.2-18.3-3.6
	c-8,4.3-16.7,6.9-17.4,7.8c-19.8,10-95.6,15.3-95.6,15.3L356,794.4L356,794.4z"/>
<path class="st1" d="M379.3,528.1c-0.2,5.2,2.8,34.2-3.7,77.2c-7.1,46.6-25,113.7-40.6,167.4c-15.1,51.2-0.2,83.4-0.2,83.4
	s49.6-5,75.7-12.3c28.1-7.9,55.4-9,55.4-9s-2.7-70.8,5.1-122.4c9.5-47,19-53.7,30.3-116.8c6.8-52.6,4.4-85.7,4.4-85.7L379.3,528.1
	L379.3,528.1z"/>
<path class="st2" d="M443.2,547.4c9.6,1.9,16.2-3.7,16.9-17.7c0.8-14,0.8-78.9,0.8-78.9l-22.9,1.5c0,0-0.8,59.8-2.2,71.5
	C434.3,535.6,432.1,545.2,443.2,547.4L443.2,547.4z"/>
<path class="st0" d="M449.1,583.5c7.6-4.1,10.5-12.4,6.4-19.4s-11.8-8.3-17.8-4.3s-8.1,12-3.8,18.9
	C438.2,585.5,445.1,585.6,449.1,583.5z"/>
<path class="st0" d="M438.6,626.7c-6.1,1.4-12.9,7.3-13.8,15.2c-0.9,7.9,4.2,13,10.5,11.8c5.8-1.1,11.8-8.4,12.8-14.2
	C449,633.7,446.8,624.8,438.6,626.7z"/>
<path class="st0" d="M415.1,707c-7,7.3-7.5,15.8-3.2,20.5s14.1,2.7,19-3.4c4.7-5.9,8.6-13.6,2.1-19.9
	C428.8,699.9,420.4,701.5,415.1,707z"/>
<radialGradient id="SVGID_1_" cx="320.161" cy="-47.609" r="68.281" gradientTransform="matrix(6.25 0 0 6.25 -1575 300)" gradientUnits="userSpaceOnUse">
	<stop  offset="0.687" style="stop-color:#82D8FF"/>
	<stop  offset="0.735" style="stop-color:#7BD7FE"/>
	<stop  offset="0.805" style="stop-color:#67D3FC"/>
	<stop  offset="0.888" style="stop-color:#47CCF7"/>
	<stop  offset="0.947" style="stop-color:#2CC7F4"/>
</radialGradient>
<path class="st3" d="M264.3,448.9c27.8,24.6,80.1,38.3,187.8,31.4C568,472.8,624,413,631,404.6c5.2-6.3,50.3-91,18.4-189.9
	C619.1,120.2,529.1,53.6,407.9,62.6c-118.1,8.7-188.1,101-202.8,166.9C176.3,359.8,253.7,439.6,264.3,448.9L264.3,448.9z"/>
<path class="st4" d="M404.1,90.3l-24.1,4c0,0,21.1,51.1,39.5,171.6c18.1,119.3,18,215.1,18,215.1s4.8-0.3,11.3-0.5
	c6.7-0.3,12-0.9,12-0.9s-3.5-128.5-18.2-224.4C426.2,148.7,404.1,90.2,404.1,90.3L404.1,90.3z"/>
<path class="st5" d="M369.1,68.9c0,0-13.1,12.4-11,19.9c2.1,7.6,19.3,33.7,27.5,35.1c8.3,1.4,37.8-24.1,39.2-35.8
	c1.4-11.7-26.8-23.4-26.8-23.4s-12.4-33-15.1-38.5s-9.6-9.6-16.5-8.3c-7.9,1.6-9.6,11.9-8.3,15.1C362.2,42.8,369.1,68.9,369.1,68.9z
	"/>
<path class="st6" d="M342.1,114.2c-7.6-7-39.8-8.9-82.7,61.9S224,299.5,242.6,299c20.4-0.4,14.1-47.1,30.1-79.6
	c22.1-45.1,59.7-75.6,67.7-84.9C348.3,125.3,347.4,119.1,342.1,114.2L342.1,114.2z"/>
<path class="st7" d="M594.9,219.9c0.9-12.6-13.1-27.6-34.1-20.7c0.3-0.5,0.7-0.9,1-1.4c8.1-13.8,7.5-38.5-11.5-46.3
	c-11.1-4.6-34.8,3.8-35.2,30.2c-1.4-2.3-2.8-4.3-4.1-5.9c-11.1-13.7-34.1-21.7-48.2-5.3c-8.8,10.2-6.9,39.2,20.9,48.3
	c-0.8,0.3-1.6,0.5-2.3,0.8c-15.1,6.4-26.5,25.4-16.5,43c6.6,11.4,34.6,16.8,50.1-5.8c0.2-0.3,0.3-0.6,0.5-0.9c0,0.7-0.1,1.6-0.1,2.3
	c-0.1,15.6,11.8,32.8,30.9,30.5c14.3-1.8,30.6-20.2,14.3-44c0.4,0.1,0.8,0.2,1.2,0.2C576.7,246.4,593.7,238.1,594.9,219.9
	L594.9,219.9z M530.1,228.7c-4.8,1.6-8.3,4.5-10.5,8.9c-0.4-4.7-1.9-9.3-4.5-12.9c-1.8-2.5-4.1-4.3-6.7-5.6c4.3-1.4,8-3.6,10.2-6.8
	c1.8-2.5,2.7-5.3,3-8.1c2.2,2.9,4.9,5.1,8.1,6.3c3.2,1.3,6.3,1.6,9.4,1.4c-2.1,2.4-2.7,4.9-2.9,8.8c-0.1,2.7,1.7,6.9,4.3,9.7
	C537.6,229.2,533.4,227.6,530.1,228.7L530.1,228.7z"/>
<path class="st7" d="M396.3,344.4c-6.6-5.2-13.2-7.4-19.4-7.2c2.7-2.1,4.8-4.5,6.1-7c5.9-11.4,1.6-24.6-6.8-30.3
	c-8.3-5.7-25.3-6.8-33.1,7.3c-1.3,2.3-2.3,5.1-2.8,8.2c-2.6-3.8-6.7-7.1-12.9-8.9c-16.9-5.1-25.9,4.9-30.5,13.2
	c-6.4,11.3-2.3,28.9,13.2,34.6c2.9,1.1,5.8,1.6,8.4,1.7c-12.6,11.6-9.3,24.6-5.4,32.5c5.3,10.9,20.3,15.5,33.8,6.2
	c9.7-6.7,12.9-16.2,12.9-24.4c1.8,2.6,4.6,6.9,8,8.8c13.9,7.1,28.1,0.3,32.8-7.1C404.5,365.6,405.1,351.4,396.3,344.4L396.3,344.4z
	 M359,345.4c-1.8,2.3-3.3,5.3-3.6,9.7c-3-3.6-9.4-7.4-17.2-7.5c2.1-2.3,3.6-4.8,4.4-7.1c1-3,1.9-4.9,1.6-9.3c1.8,2.3,4,5.3,9,7.8
	c3.6,1.8,7.9,2.3,11.6,1.6C362.6,341.2,360.8,343.2,359,345.4L359,345.4z"/>
<path class="st8" d="M203.8,711.9L150.7,749c0,0-1.6,15.7,4.4,17.4s24.6,2.4,65.1,8.5s72.4,21.2,76.7,19.2
	c7.7-3.4,12.4-33.5,57.5-68.4c36.2-28.1,94.8-51,122.3-83.7c27.6-32.7,39.7-72.2,38.8-100.2s2.4-40.7-12.1-40
	c-1.9,0.1-6.6,0.8-7.7,1.1c-14.4,4.2-24.7,29.3-24.7,29.3L203.8,711.9L203.8,711.9z"/>
<path class="st9" d="M387,517.2c-3.4,4,0.8,44.5-30.7,74.4c-34.2,32.5-109,58.8-154.3,91.6c-43.3,31.2-51.3,65.8-51.3,65.8
	s47.2-1.8,73.6,4.1s65.2,18.2,65.2,18.2s20-43.9,63.4-72.8c43.4-28.9,93.3-42,122.5-90.4c29.2-48.3,20.6-105.4,20.6-105.4L387,517.2
	L387,517.2z"/>
<path class="st10" d="M443.2,548.1c9.6,1.9,16.2-3.7,16.9-17.7c0.8-14,0.8-78.9,0.8-78.9L438,453c0,0-0.8,59.8-2.2,71.5
	C434.3,536.3,432.1,545.9,443.2,548.1L443.2,548.1z"/>
<path class="st8" d="M411.6,608.7c8.4,1.9,16-2.5,17.5-10.5s-3.5-14-10.7-14.9s-14,3.8-15.2,11.8
	C402.1,603.1,407.2,607.7,411.6,608.7z"/>
<path class="st8" d="M368.5,626.6c-5.5-2.9-14.5-2.9-20.4,2.5s-5.3,12.6,0.2,15.8c5.1,2.9,14.4,1.4,19-2.4
	C371.7,638.7,375.9,630.5,368.5,626.6z"/>
<path class="st8" d="M295.7,663.3c-10.1,0.9-16,7-15.8,13.4s8.9,11.3,16.6,9.9c7.4-1.4,15.4-4.7,14.6-13.7
	C310.7,666.9,303.2,662.6,295.7,663.3z"/>
<radialGradient id="SVGID_2_" cx="320.1613" cy="-47.4969" r="68.281" gradientTransform="matrix(6.25 0 0 6.25 -1575 300)" gradientUnits="userSpaceOnUse">
	<stop  offset="0.687" style="stop-color:#82D8FF"/>
	<stop  offset="0.735" style="stop-color:#7BD7FE"/>
	<stop  offset="0.805" style="stop-color:#67D3FC"/>
	<stop  offset="0.888" style="stop-color:#47CCF7"/>
	<stop  offset="0.947" style="stop-color:#2CC7F4"/>
</radialGradient>
<path class="st11" d="M264.3,449.6c27.8,24.6,80.1,38.3,187.8,31.4C568,473.5,624,413.7,631,405.3c5.2-6.3,50.3-91,18.4-189.9
	C619.1,120.9,529.1,54.3,407.9,63.3c-118.1,8.7-188.1,101-202.8,166.9C176.3,360.5,253.7,440.3,264.3,449.6L264.3,449.6z"/>
<path class="st12" d="M404.1,91L380,95c0,0,21.1,51.1,39.5,171.6c18.1,119.3,18,215.1,18,215.1s4.8-0.3,11.3-0.5
	c6.7-0.3,12-0.9,12-0.9s-3.5-128.5-18.2-224.4C426.2,149.4,404.1,90.9,404.1,91L404.1,91z"/>
<path class="st13" d="M369.1,69.6c0,0-13.1,12.4-11,19.9c2.1,7.6,19.3,33.7,27.5,35.1c8.3,1.4,37.8-24.1,39.2-35.8
	c1.4-11.7-26.8-23.4-26.8-23.4s-12.4-33-15.1-38.5s-9.6-9.6-16.5-8.3c-7.9,1.6-9.6,11.9-8.3,15.1C362.2,43.5,369.1,69.6,369.1,69.6z
	"/>
<path class="st14" d="M342.1,114.9c-7.6-7-39.8-8.9-82.7,61.9S224,300.2,242.6,299.7c20.4-0.4,14.1-47.1,30.1-79.6
	c22.1-45.1,59.7-75.6,67.7-84.9C348.3,126,347.4,119.8,342.1,114.9L342.1,114.9z"/>
<path class="st15" d="M594.9,220.6c0.9-12.6-13.1-27.6-34.1-20.7c0.3-0.5,0.7-0.9,1-1.4c8.1-13.8,7.5-38.5-11.5-46.3
	c-11.1-4.6-34.8,3.8-35.2,30.2c-1.4-2.3-2.8-4.3-4.1-5.9c-11.1-13.7-34.1-21.7-48.2-5.3c-8.8,10.2-6.9,39.2,20.9,48.3
	c-0.8,0.3-1.6,0.5-2.3,0.8c-15.1,6.4-26.5,25.4-16.5,43c6.6,11.4,34.6,16.8,50.1-5.8c0.2-0.3,0.3-0.6,0.5-0.9c0,0.7-0.1,1.6-0.1,2.3
	c-0.1,15.6,11.8,32.8,30.9,30.5c14.3-1.8,30.6-20.2,14.3-44c0.4,0.1,0.8,0.2,1.2,0.2C576.7,247.1,593.7,238.8,594.9,220.6
	L594.9,220.6z M530.1,229.4c-4.8,1.6-8.3,4.5-10.5,8.9c-0.4-4.7-1.9-9.3-4.5-12.9c-1.8-2.5-4.1-4.3-6.7-5.6c4.3-1.4,8-3.6,10.2-6.8
	c1.8-2.5,2.7-5.3,3-8.1c2.2,2.9,4.9,5.1,8.1,6.3c3.2,1.3,6.3,1.6,9.4,1.4c-2.1,2.4-2.7,4.9-2.9,8.8c-0.1,2.7,1.7,6.9,4.3,9.7
	C537.6,229.9,533.4,228.3,530.1,229.4L530.1,229.4z"/>
<path class="st15" d="M396.3,345.1c-6.6-5.2-13.2-7.4-19.4-7.2c2.7-2.1,4.8-4.5,6.1-7c5.9-11.4,1.6-24.6-6.8-30.3
	c-8.3-5.7-25.3-6.8-33.1,7.3c-1.3,2.3-2.3,5.1-2.8,8.2c-2.6-3.8-6.7-7.1-12.9-8.9c-16.9-5.1-25.9,4.9-30.5,13.2
	c-6.4,11.3-2.3,28.9,13.2,34.6c2.9,1.1,5.8,1.6,8.4,1.7c-12.6,11.6-9.3,24.6-5.4,32.5c5.3,10.9,20.3,15.5,33.8,6.2
	c9.7-6.7,12.9-16.2,12.9-24.4c1.8,2.6,4.6,6.9,8,8.8c13.9,7.1,28.1,0.3,32.8-7.1C404.5,366.3,405.1,352.1,396.3,345.1L396.3,345.1z
	 M359,346.1c-1.8,2.3-3.3,5.3-3.6,9.7c-3-3.6-9.4-7.4-17.2-7.5c2.1-2.3,3.6-4.8,4.4-7.1c1-3,1.9-4.9,1.6-9.3c1.8,2.3,4,5.3,9,7.8
	c3.6,1.8,7.9,2.3,11.6,1.6C362.6,341.9,360.8,343.9,359,346.1L359,346.1z"/>
<path class="st8" d="M192,688.8l-56.1,32.4c0,0-2.9,15.5,2.9,17.7c5.9,2.2,24.3,4.4,64.1,14s70.4,27.3,74.8,25.7
	c7.9-2.8,15.2-32.3,63.1-63.3c38.5-24.9,98.8-42.8,129-73c30.2-30.3,45.7-68.6,47.2-96.6c1.5-28,5.9-40.3-8.6-40.9
	c-1.9-0.1-6.6,0.3-7.7,0.4c-14.8,2.9-27.1,27.1-27.1,27.1L192,688.8L192,688.8z"/>
<path class="st9" d="M391,510.4c-3.7,3.7-3,44.4-36.9,71.5c-36.9,29.5-113.6,49.4-161.5,78.1c-45.8,27.4-56.8,61.2-56.8,61.2
	s47.2,2.2,73,10.3c25.8,8.1,63.4,23.6,63.4,23.6s23.6-42,69.3-67.1c45.7-25.1,96.6-33.9,129.8-79.6s29.5-103.2,29.5-103.2L391,510.4
	L391,510.4z"/>
<path class="st10" d="M443.4,548c9.6,1.9,16.3-3.7,16.9-17.7c0.8-14,0.8-78.9,0.8-78.9l-22.9,1.5c0,0-0.8,59.8-2.2,71.5
	C434.5,536.2,432.4,545.8,443.4,548L443.4,548z"/>
<path class="st8" d="M407.8,603.6c8.3,2.6,16.1-1.1,18.4-9c2.3-7.9-2.3-14.3-9.4-15.8c-7.1-1.5-14.2,2.6-16.1,10.5
	C398.8,597.2,403.4,602.2,407.8,603.6z"/>
<path class="st8" d="M363.2,617.9c-5.3-3.3-14.3-4.1-20.6,0.8c-6.4,4.9-6.4,12.1-1.1,15.8c4.9,3.4,14.3,2.6,19.1-0.8
	C365.5,630.2,370.4,622.4,363.2,617.9z"/>
<path class="st8" d="M287.6,648.2c-10.1,0-16.5,5.6-16.9,12c-0.4,6.4,7.9,12,15.8,11.3c7.5-0.8,15.8-3.4,15.8-12.4
	C302.2,653,295.1,648.2,287.6,648.2z"/>
<radialGradient id="SVGID_3_" cx="194.1983" cy="673.5219" r="68.281" gradientTransform="matrix(6.25 0 0 -6.25 -787.5 4212.5)" gradientUnits="userSpaceOnUse">
	<stop  offset="0.687" style="stop-color:#82D8FF"/>
	<stop  offset="0.735" style="stop-color:#7BD7FE"/>
	<stop  offset="0.805" style="stop-color:#67D3FC"/>
	<stop  offset="0.888" style="stop-color:#47CCF7"/>
	<stop  offset="0.947" style="stop-color:#2CC7F4"/>
</radialGradient>
<path class="st16" d="M264.5,449.4c27.8,24.6,80.1,38.3,187.8,31.4c115.9-7.5,171.9-67.3,178.9-75.7c5.2-6.3,50.3-91,18.4-189.9
	C619.3,120.8,529.4,54.2,408.1,63.2C290,71.9,220,164.2,205.4,230.1C176.5,360.3,253.9,440.1,264.5,449.4L264.5,449.4z"/>
<path class="st12" d="M404.4,90.8l-24.1,4.1c0,0,21.1,51.1,39.5,171.6c18.1,119.3,18,215.1,18,215.1s4.8-0.3,11.3-0.5
	c6.7-0.3,12-0.9,12-0.9s-3.5-128.5-18.2-224.4C426.5,149.3,404.4,90.8,404.4,90.8L404.4,90.8z"/>
<path class="st13" d="M369.3,69.5c0,0-13.1,12.4-11,19.9c2.1,7.6,19.3,33.7,27.5,35.1c8.3,1.4,37.8-24.1,39.2-35.7
	s-26.8-23.4-26.8-23.4s-12.4-33-15.1-38.5s-9.6-9.6-16.5-8.3c-7.9,1.6-9.6,11.9-8.3,15.1C362.4,43.4,369.3,69.5,369.3,69.5z"/>
<path class="st14" d="M342.3,114.7c-7.6-7-39.8-8.9-82.7,61.9S224.2,300,242.8,299.6c20.4-0.4,14.1-47.1,30.1-79.6
	c22.1-45.1,59.7-75.6,67.7-84.9C348.5,125.8,347.6,119.6,342.3,114.7L342.3,114.7z"/>
<path class="st15" d="M595.2,220.4c0.9-12.6-13.1-27.6-34.1-20.7c0.3-0.5,0.7-0.9,1-1.4c8.1-13.8,7.5-38.5-11.5-46.3
	c-11.1-4.6-34.8,3.8-35.2,30.2c-1.4-2.3-2.8-4.3-4.1-5.9c-11.1-13.7-34.1-21.7-48.2-5.3c-8.8,10.2-6.9,39.2,20.9,48.3
	c-0.8,0.3-1.6,0.5-2.3,0.8c-15.1,6.4-26.5,25.4-16.5,43c6.6,11.4,34.6,16.8,50.1-5.8c0.2-0.3,0.3-0.6,0.5-0.9c0,0.8-0.1,1.6-0.1,2.3
	c-0.1,15.6,11.8,32.8,30.9,30.5c14.3-1.7,30.6-20.2,14.3-44c0.4,0.1,0.8,0.2,1.2,0.2C576.9,247,593.9,238.7,595.2,220.4L595.2,220.4
	z M530.3,229.3c-4.8,1.6-8.3,4.5-10.5,8.9c-0.4-4.7-1.9-9.3-4.5-12.9c-1.8-2.5-4.1-4.3-6.7-5.6c4.3-1.4,8-3.6,10.2-6.8
	c1.8-2.5,2.7-5.3,3-8.1c2.2,2.9,4.9,5.1,8.1,6.3c3.2,1.3,6.3,1.6,9.4,1.4c-2.1,2.4-2.7,4.9-2.9,8.8c-0.1,2.7,1.7,6.9,4.3,9.7
	C537.8,229.8,533.6,228.2,530.3,229.3L530.3,229.3z"/>
<path class="st15" d="M396.5,344.9c-6.6-5.2-13.2-7.4-19.4-7.2c2.7-2.1,4.8-4.5,6.1-7c5.9-11.4,1.6-24.6-6.8-30.3
	c-8.3-5.7-25.3-6.8-33.1,7.3c-1.3,2.3-2.3,5.1-2.8,8.2c-2.6-3.8-6.7-7.1-12.9-8.9c-16.9-5.1-25.9,4.9-30.5,13.2
	c-6.4,11.3-2.3,28.9,13.2,34.6c2.9,1.1,5.7,1.6,8.4,1.7c-12.6,11.6-9.3,24.6-5.4,32.5c5.3,10.9,20.3,15.5,33.8,6.2
	c9.7-6.7,12.9-16.2,12.9-24.4c1.8,2.6,4.6,6.9,8,8.8c13.9,7.1,28.1,0.3,32.8-7.1C404.7,366.1,405.4,351.9,396.5,344.9L396.5,344.9z
	 M359.2,346c-1.8,2.3-3.3,5.3-3.6,9.7c-3-3.6-9.4-7.4-17.2-7.5c2.1-2.3,3.6-4.8,4.4-7.1c1-3,1.9-4.9,1.6-9.3c1.8,2.3,4,5.3,9,7.8
	c3.6,1.8,7.9,2.3,11.6,1.6C362.8,341.7,361,343.7,359.2,346L359.2,346z"/>
</svg>
