<?xml version="1.0" encoding="iso-8859-1"?>
<!-- Uploaded to: SVG Repo, www.svgrepo.com, Generator: SVG Repo Mixer Tools -->
<svg height="800px" width="800px" version="1.1" id="Layer_1" xmlns="http://www.w3.org/2000/svg" xmlns:xlink="http://www.w3.org/1999/xlink" 
	 viewBox="0 0 511.999 511.999" xml:space="preserve">
<polygon style="fill:#F0E6D1;" points="477.062,175.513 477.062,482.734 334.704,482.734 312.683,146.059 "/>
<path style="fill:#CFC8AB;" d="M334.704,157.07v325.664H34.937V157.07L184.826,37.526L334.704,157.07z"/>
<path style="fill:#FFF8ED;" d="M184.826,375.666c13.675,0,24.774,11.088,24.774,24.774c0,13.675-11.099,24.774-24.774,24.774H45.948
	H33.032c13.686,0,24.774-11.099,24.774-24.774c0-13.686-11.088-24.774-24.774-24.774h12.916H184.826z"/>
<path style="fill:#945136;" d="M202.983,190.509C233.494,198.525,256,226.305,256,259.338s-22.495,60.812-53.006,68.839
	c-30.511-8.027-75.038-35.796-75.038-68.839C127.956,226.316,172.483,198.536,202.983,190.509z"/>
<path style="fill:#F0E6D1;" d="M33.032,375.666c13.686,0,24.774,11.088,24.774,24.774c0,13.675-11.088,24.774-24.774,24.774
	S8.258,414.115,8.258,400.44C8.258,386.754,19.346,375.666,33.032,375.666z"/>
<path style="fill:#FF6A2E;" d="M508.826,169.007L332.261,31.017c-1.452-1.135-3.242-1.752-5.085-1.752H184.824
	c-1.944,0-3.73,0.671-5.141,1.796L3.174,169.007c-3.594,2.809-4.23,7.998-1.421,11.591c1.628,2.084,4.057,3.173,6.513,3.173
	c1.778,0,3.57-0.573,5.079-1.752l171.48-134.016l171.48,134.016c1.452,1.135,3.242,1.752,5.085,1.752h142.352
	c3.525,0,6.66-2.236,7.808-5.569C512.696,174.87,511.603,171.177,508.826,169.007z"/>
<path style="fill:#FFF8ED;" d="M184.826,188.164c6.276,0,12.365,0.815,18.157,2.345c-30.5,8.027-53.006,35.807-53.006,68.828
	c0,33.043,22.506,60.812,53.017,68.839c-5.792,1.531-11.892,2.345-18.168,2.345c-39.308,0-71.184-31.865-71.184-71.184
	C113.642,220.029,145.518,188.164,184.826,188.164z"/>
</svg>