<?xml version="1.0" encoding="utf-8"?>
<!-- Generator: Adobe Illustrator 24.0.0, SVG Export Plug-In . SVG Version: 6.00 Build 0)  -->
<svg version="1.1" id="Layer_1" xmlns="http://www.w3.org/2000/svg" xmlns:xlink="http://www.w3.org/1999/xlink" x="0px" y="0px"
	 viewBox="0 0 800 800" style="enable-background:new 0 0 800 800;" xml:space="preserve">
<style type="text/css">
	.st0{fill:#1E8B55;}
</style>
<path class="st0" d="M394.8,109c-13-13-34.1-13-47.1,0L126.2,330.5c-39,39-39.1,102.3,0,141.4l219,219.2c13,13,34.1,13,47.1,0
	c13-13,13-34.1,0-47.1L173.3,424.8c-13-13-13-34.1,0-47.1l221.6-221.6C407.9,143.1,407.9,122,394.8,109z"/>
<path class="st0" d="M706.8,109c-13-13-34.1-13-47.1,0L438.2,330.5c-39,39-39.1,102.3,0,141.4l219,219.2c13,13,34.1,13,47.1,0
	c13-13,13-34.1,0-47.1L485.3,424.8c-13-13-13-34.1,0-47.1l221.6-221.6C719.8,143.1,719.8,122,706.8,109z"/>
</svg>
