<?xml version="1.0" encoding="utf-8"?>
<!-- Generator: Adobe Illustrator 24.0.0, SVG Export Plug-In . SVG Version: 6.00 Build 0)  -->
<svg version="1.1" id="Layer_1" xmlns="http://www.w3.org/2000/svg" xmlns:xlink="http://www.w3.org/1999/xlink" x="0px" y="0px"
	 viewBox="0 0 800 800" style="enable-background:new 0 0 800 800;" xml:space="preserve">
<style type="text/css">
	.st0{fill:#1E8B55;}
</style>
<path class="st0" d="M418.7,691c13,13,34.1,13,47.1,0l221.5-221.5c39-39,39.1-102.3,0-141.4L468.3,109c-13-13-34.1-13-47.1,0
	c-13,13-13,34.1,0,47.1l219.1,219.1c13,13,13,34.1,0,47.1L418.7,643.9C405.7,656.9,405.7,678,418.7,691z"/>
<path class="st0" d="M106.7,691c13,13,34.1,13,47.1,0l221.5-221.5c39-39,39.1-102.3,0-141.4L156.3,109c-13-13-34.1-13-47.1,0
	c-13,13-13,34.1,0,47.1l219.1,219.1c13,13,13,34.1,0,47.1L106.7,643.9C93.7,656.9,93.7,678,106.7,691z"/>
</svg>
