<?xml version="1.0" encoding="utf-8"?>
<!-- Generator: Adobe Illustrator 24.0.0, SVG Export Plug-In . SVG Version: 6.00 Build 0)  -->
<svg version="1.1" id="Layer_1" xmlns="http://www.w3.org/2000/svg" xmlns:xlink="http://www.w3.org/1999/xlink" x="0px" y="0px"
	 viewBox="0 0 800 800" style="enable-background:new 0 0 800 800;" xml:space="preserve">
<style type="text/css">
	.st0{fill:url(#SVGID_1_);}
</style>
<linearGradient id="SVGID_1_" gradientUnits="userSpaceOnUse" x1="33.8983" y1="399.9988" x2="766.1" y2="399.9988">
	<stop  offset="5.618000e-03" style="stop-color:#7DA7D9"/>
	<stop  offset="7.303400e-02" style="stop-color:#35517D"/>
	<stop  offset="0.5" style="stop-color:#DEE6F5"/>
	<stop  offset="0.618" style="stop-color:#BACDEA"/>
	<stop  offset="0.6659" style="stop-color:#B6CBE9"/>
	<stop  offset="0.7136" style="stop-color:#AAC3E6"/>
	<stop  offset="0.7612" style="stop-color:#96B7E0"/>
	<stop  offset="0.8085" style="stop-color:#7AA5D8"/>
	<stop  offset="0.809" style="stop-color:#7AA5D8"/>
	<stop  offset="1" style="stop-color:#174D6B"/>
</linearGradient>
<path class="st0" d="M514.4,37.1c-20.9-0.4-18.8,143.6-8.9,161c6.1,10.7,9.7-16.7,32.8-19.1c-8.5,8-38,48-22.5,64.7
	c1.1,1.2,28.9-28.3,28.2-17.1c-27.1,34.7-26,53-13.7,55.9c4,6.8,6.1-10.6,23.1-14.1c-18.6,21.8-12.5,42.6-2.9,50.6
	c18.6,33.6,44.5,51.2,56.6,81.5c21.1,0.9,41.4,5.1,60.2,12.2c4-121.5-32.5-248.5-147.1-372.3C518.1,38.2,516.2,37.1,514.4,37.1
	L514.4,37.1z M46.2,156.8C2.9,154.5,85.7,312.1,110,320.4c14.1,4.8-11.2-39.2,10.6-55.8c-1.1,11.3,4.6,81.7,33.8,85.6
	c1.9,0.3,2.7-65.9,10.5-56.5c-0.3,44.1,18.7,83.6,32.9,78.5c9.1,3-1.4-41,12.7-54.1c-1.8,28.6,19.2,70.2,34.6,70.8
	c44.4,15.6,91.1,31.7,135.9,48.3c6.9,2.6,1.7-10.5,10.9-17.3c1.7,14.4,19.7,28.8,24.6,30.7c12.7,4.9,25.1,9.9,37.2,14.9
	c6.3-7,13-13.5,20.2-19.5c-120.4-98.3-266.4-194-405.7-238.6l8.3-26.9C241,242.9,375,323.1,497.5,428.9c6.5-3.9,13.2-7.5,20.1-10.7
	C393.7,301.6,247.8,188.4,48.4,157C47.6,156.9,46.9,156.8,46.2,156.8L46.2,156.8z M598.9,428.5c-92.5,0-167.2,74.7-167.2,167.2
	c0,47.3,19.5,90,51,120.3c-2.2-14.1-3-28.9-2.3-43.1c0.8-15.4,3.4-30.2,9.1-43.2c5.7-13,15-24.6,28.8-30.1c6.5-2.6,13.1-3.8,19.7-4
	c19.6-0.4,38.8,9.1,53.2,21.7c6.5,5.6,12.2,12,16.6,19c20.6,4.4,50.1,0.1,73.7-11.5c13.3-6.5,24.7-15.1,31.9-24.3
	c4.9-6.2,8-12.4,9.1-18.8c0-10.1,3.2-20.9,8.5-29.1c5.5-7.9,13.8-14.2,23.9-17.7C730.5,472.6,670,428.5,598.9,428.5L598.9,428.5z
	 M762.7,562c-4.2,1.6-6.8,3.9-8.7,6.7c-8,14.6,1,32.4,11.6,40.1c0.3-4.3,0.5-8.7,0.5-13.1C766.1,584.1,764.9,572.9,762.7,562
	L762.7,562z M735.3,618.1c-8.5,10.8-19.6,19.7-32.1,27c8.1,26.4,8,54,4,78c25.7-21.9,44.6-51.3,53.4-85
	C750.2,633.4,741.7,626.4,735.3,618.1L735.3,618.1z M538.7,624.1c-11.7-0.5-19.8,8.9-23.4,16.9c-3.7,8.5-6.1,20.3-6.7,33.3
	c-1.1,22.8,3,49.1,9.6,67.8c23.9,13.2,51.5,20.8,80.9,20.8c26.4,0,51.4-6.1,73.6-17c7.7-22.4,12.6-58.1,4.8-88.8
	c-19.5,7.1-40.3,10.7-60,9.2c0,5.7-1.1,11.5-3.7,17c-7.9,16.5-25.2,23.9-43.2,23.5c-18-0.4-38.1-13.7-42.8-38.1l27.6-5.4
	c2.7,13.9,8,15.1,15.8,15.3c7.7,0.2,16.5-6,17.3-7.6c1.5-3.1,1.6-7.4-1-13.5c-2.6-6.1-7.8-13.2-14.7-19.1
	C562.4,629.7,549.5,624.3,538.7,624.1L538.7,624.1z"/>
</svg>
