<?xml version="1.0" encoding="utf-8"?>
<!-- Generator: Adobe Illustrator 24.0.0, SVG Export Plug-In . SVG Version: 6.00 Build 0)  -->
<svg version="1.1" id="Layer_1" xmlns="http://www.w3.org/2000/svg" xmlns:xlink="http://www.w3.org/1999/xlink" x="0px" y="0px"
	 viewBox="0 0 800 800" style="enable-background:new 0 0 800 800;" xml:space="preserve">
<style type="text/css">
	.st0{display:none;}
	.st1{display:inline;fill:#42ADE2;}
	.st2{fill:#7AFFCA;}
</style>
<g>
	<g class="st0">
		<path class="st1" d="M226.3,276.3C156.3,295,112.5,362.5,125,410s60-6.3,130-25s137.5,3.7,125-42.5S297.5,257.5,226.3,276.3"/>
		<path class="st1" d="M172.5,253.7c21.3-7.5,23.8-53.8,12.5-85s-37.5-50-58.7-42.5c-21.3,7.5-28.8,38.8-17.5,70
			S151.3,262.5,172.5,253.7"/>
		<path class="st1" d="M258.8,230c22.5-2.5,37.5-46.3,33.8-78.8c-2.5-32.5-23.8-57.5-46.3-56.3c-22.5,2.5-38.8,30-35,63.7
			C213.8,191.2,236.3,232.5,258.8,230"/>
		<path class="st1" d="M358.8,133.8c-22.5,0-41.2,26.2-41.2,60s18.8,75,41.2,75c22.5,0,41.3-42.5,41.3-75
			C400,160,381.3,133.8,358.8,133.8"/>
		<path class="st1" d="M41.3,218.8c-20,11.3-22.5,43.8-5,72.5c16.2,28.7,53.8,56.3,73.8,45s13.8-57.5-2.5-86.3
			S61.3,207.5,41.3,218.8"/>
	</g>
	<g>
		<path class="st2" d="M457.8,401.6c-3.2,146.7,105.4,271.2,201.8,271.1c96.4-0.1,20.3-119.6,23.5-266.3
			c3.2-146.7,86.1-265.9-13.4-267.7C570.2,137,461,254.9,457.8,401.6"/>
		<path class="st2" d="M390.1,306.1c4.5-45.4-76.9-90.6-143.7-97.7c-66.9-7.1-124.7,22.7-129.2,68.1c-4.5,45.4,45,88,111.8,95.1
			S385.6,351.5,390.1,306.1"/>
		<path class="st2" d="M384.9,487.1c-5.9-45.5-97.8-69.9-163-59.1c-65.1,10.7-114.4,54-108.5,99.5s67.7,74.6,132.9,63.9
			C312,583.1,390.8,532.6,384.9,487.1"/>
		<path class="st2" d="M509.2,665.2c-10.8-44.2-103.4-60.7-167.3-45.1c-63.9,15.6-109,65.7-98.2,110c10.8,44.2,71.5,68.5,137.8,52.3
			C445.5,766.7,520,709.4,509.2,665.2"/>
		<path class="st2" d="M255.7,65.4c-12.5,44.7,28.4,94.7,92.7,112.8s158.3,8.2,170.8-36.6c12.5-44.7-59-102.8-124-123.4
			S268.8,23.1,255.7,65.4"/>
	</g>
</g>
</svg>
