<?xml version="1.0" encoding="utf-8"?>
<!-- Generator: Adobe Illustrator 24.0.0, SVG Export Plug-In . SVG Version: 6.00 Build 0)  -->
<svg version="1.1" id="Layer_1" xmlns="http://www.w3.org/2000/svg" xmlns:xlink="http://www.w3.org/1999/xlink" x="0px" y="0px"
	 viewBox="0 0 800 897.3" style="enable-background:new 0 0 800 897.3;" xml:space="preserve">
<style type="text/css">
	.st0{fill:#A7D0D7;}
	.st1{fill:#DBEFF5;}
	.st2{fill:#6BA4AE;}
	.st3{fill:url(#SVGID_1_);}
	.st4{fill:#00BFED;}
	.st5{fill:#69A6AE;}
	.st6{fill:#FBFFFF;}
	.st7{fill:#FFDCE8;}
</style>
<path class="st0" d="M374.8,803.9l-17.8,62.8c0,0,10.5,10.7,16.7,10.3c9.5-0.7,28.4-1.9,67.8-13.2c41.5-11.9,62.6-10.4,64.6-14.8
	c3.6-7.6-13.1-77.2-1.8-133.1c9-44.9,28.3-102,27.7-144.7c-0.5-42.8-1.3-49.6-4.2-56.7c-1.6-3.9-5.2-7.9-18.5-2.6
	c-7.8,4.7-16.3,7.7-16.9,8.7c-19.3,11-94.7,20.3-94.7,20.3L374.8,803.9L374.8,803.9z"/>
<path class="st1" d="M383.9,536.8c0,5.2,4.7,34,0.4,77.2c-4.6,47-18.9,114.9-31.7,169.3c-12.3,51.9,4.3,83.3,4.3,83.3
	s49.3-7.7,74.9-16.4c27.7-9.4,54.8-11.9,54.8-11.9s-6.4-70.6-1.4-122.5c7-47.5,16.2-54.6,24.1-118.2c4-52.8-0.2-85.8-0.2-85.8
	L383.9,536.8L383.9,536.8z"/>
<path class="st2" d="M443.2,547.4c9.6,1.9,16.2-3.7,16.9-17.7c0.8-14,0.8-78.9,0.8-78.9l-22.9,1.5c0,0-0.8,59.8-2.2,71.5
	C434.3,535.6,432.1,545.2,443.2,547.4L443.2,547.4z"/>
<path class="st0" d="M449.1,583.5c7.6-4.1,10.5-12.4,6.4-19.4s-11.8-8.3-17.8-4.3s-8.1,12-3.8,18.9
	C438.2,585.5,445.1,585.6,449.1,583.5z"/>
<path class="st0" d="M438.6,626.7c-6.1,1.4-12.9,7.3-13.8,15.2c-0.9,7.9,4.2,13,10.5,11.8c5.8-1.1,11.8-8.4,12.8-14.2
	C449,633.7,446.8,624.8,438.6,626.7z"/>
<path class="st0" d="M415.1,707c-7,7.3-7.5,15.8-3.2,20.5s14.1,2.7,19-3.4c4.7-5.9,8.6-13.6,2.1-19.9
	C428.8,699.9,420.4,701.5,415.1,707z"/>
<radialGradient id="SVGID_1_" cx="320.161" cy="-47.609" r="68.281" gradientTransform="matrix(6.25 0 0 6.25 -1575 300)" gradientUnits="userSpaceOnUse">
	<stop  offset="0.687" style="stop-color:#82D8FF"/>
	<stop  offset="0.735" style="stop-color:#7BD7FE"/>
	<stop  offset="0.805" style="stop-color:#67D3FC"/>
	<stop  offset="0.888" style="stop-color:#47CCF7"/>
	<stop  offset="0.947" style="stop-color:#2CC7F4"/>
</radialGradient>
<path class="st3" d="M264.3,448.9c27.8,24.6,80.1,38.3,187.8,31.4C568,472.8,624,413,631,404.6c5.2-6.3,50.3-91,18.4-189.9
	C619.1,120.2,529.1,53.6,407.9,62.6c-118.1,8.7-188.1,101-202.8,166.9C176.3,359.8,253.7,439.6,264.3,448.9L264.3,448.9z"/>
<path class="st4" d="M404.1,90.3l-24.1,4c0,0,21.1,51.1,39.5,171.6c18.1,119.3,18,215.1,18,215.1s4.8-0.3,11.3-0.5
	c6.7-0.3,12-0.9,12-0.9s-3.5-128.5-18.2-224.4C426.2,148.7,404.1,90.2,404.1,90.3L404.1,90.3z"/>
<path class="st5" d="M369.1,68.9c0,0-13.1,12.4-11,19.9c2.1,7.6,19.3,33.7,27.5,35.1c8.3,1.4,37.8-24.1,39.2-35.8
	c1.4-11.7-26.8-23.4-26.8-23.4s-12.4-33-15.1-38.5s-9.6-9.6-16.5-8.3c-7.9,1.6-9.6,11.9-8.3,15.1C362.2,42.8,369.1,68.9,369.1,68.9z
	"/>
<path class="st6" d="M342.1,114.2c-7.6-7-39.8-8.9-82.7,61.9S224,299.5,242.6,299c20.4-0.4,14.1-47.1,30.1-79.6
	c22.1-45.1,59.7-75.6,67.7-84.9C348.3,125.3,347.4,119.1,342.1,114.2L342.1,114.2z"/>
<path class="st7" d="M594.9,219.9c0.9-12.6-13.1-27.6-34.1-20.7c0.3-0.5,0.7-0.9,1-1.4c8.1-13.8,7.5-38.5-11.5-46.3
	c-11.1-4.6-34.8,3.8-35.2,30.2c-1.4-2.3-2.8-4.3-4.1-5.9c-11.1-13.7-34.1-21.7-48.2-5.3c-8.8,10.2-6.9,39.2,20.9,48.3
	c-0.8,0.3-1.6,0.5-2.3,0.8c-15.1,6.4-26.5,25.4-16.5,43c6.6,11.4,34.6,16.8,50.1-5.8c0.2-0.3,0.3-0.6,0.5-0.9c0,0.7-0.1,1.6-0.1,2.3
	c-0.1,15.6,11.8,32.8,30.9,30.5c14.3-1.8,30.6-20.2,14.3-44c0.4,0.1,0.8,0.2,1.2,0.2C576.7,246.4,593.7,238.1,594.9,219.9
	L594.9,219.9z M530.1,228.7c-4.8,1.6-8.3,4.5-10.5,8.9c-0.4-4.7-1.9-9.3-4.5-12.9c-1.8-2.5-4.1-4.3-6.7-5.6c4.3-1.4,8-3.6,10.2-6.8
	c1.8-2.5,2.7-5.3,3-8.1c2.2,2.9,4.9,5.1,8.1,6.3c3.2,1.3,6.3,1.6,9.4,1.4c-2.1,2.4-2.7,4.9-2.9,8.8c-0.1,2.7,1.7,6.9,4.3,9.7
	C537.6,229.2,533.4,227.6,530.1,228.7L530.1,228.7z"/>
<path class="st7" d="M396.3,344.4c-6.6-5.2-13.2-7.4-19.4-7.2c2.7-2.1,4.8-4.5,6.1-7c5.9-11.4,1.6-24.6-6.8-30.3
	c-8.3-5.7-25.3-6.8-33.1,7.3c-1.3,2.3-2.3,5.1-2.8,8.2c-2.6-3.8-6.7-7.1-12.9-8.9c-16.9-5.1-25.9,4.9-30.5,13.2
	c-6.4,11.3-2.3,28.9,13.2,34.6c2.9,1.1,5.8,1.6,8.4,1.7c-12.6,11.6-9.3,24.6-5.4,32.5c5.3,10.9,20.3,15.5,33.8,6.2
	c9.7-6.7,12.9-16.2,12.9-24.4c1.8,2.6,4.6,6.9,8,8.8c13.9,7.1,28.1,0.3,32.8-7.1C404.5,365.6,405.1,351.4,396.3,344.4L396.3,344.4z
	 M359,345.4c-1.8,2.3-3.3,5.3-3.6,9.7c-3-3.6-9.4-7.4-17.2-7.5c2.1-2.3,3.6-4.8,4.4-7.1c1-3,1.9-4.9,1.6-9.3c1.8,2.3,4,5.3,9,7.8
	c3.6,1.8,7.9,2.3,11.6,1.6C362.6,341.2,360.8,343.2,359,345.4L359,345.4z"/>
</svg>
