<?xml version="1.0" encoding="utf-8"?>
<!-- Generator: Adobe Illustrator 24.0.0, SVG Export Plug-In . SVG Version: 6.00 Build 0)  -->
<svg version="1.1" id="Layer_1" xmlns="http://www.w3.org/2000/svg" xmlns:xlink="http://www.w3.org/1999/xlink" x="0px" y="0px"
	 viewBox="0 0 800 800" style="enable-background:new 0 0 800 800;" xml:space="preserve">
<style type="text/css">
	.st0{display:none;}
	.st1{display:inline;fill:#888071;}
	.st2{display:inline;fill:#4D4D4D;}
	.st3{display:inline;fill:#5D6265;}
	.st4{display:inline;fill:#2C312C;}
	.st5{display:inline;fill:#FED0AB;}
	.st6{display:inline;fill:#010000;}
	.st7{display:inline;fill:#DEDEDE;}
	.st8{fill:#4D4D4D;}
	.st9{fill:#B0B1B2;}
	.st10{fill:#5D6265;}
	.st11{fill:#FFAB93;}
	.st12{fill:#2F2F2F;}
	.st13{fill:#010000;}
	.st14{fill:#DEDEDE;}
</style>
<g class="st0">
	<path class="st1" d="M123.1,285.4c-0.3,0-0.5,0-0.8-0.1c-0.4-0.1-9.8-1.1-25.7-4c-17.4-3.2-28.8-4.5-28.9-4.5
		c-3.8-0.4-6.5-3.8-6.1-7.6c0.4-3.8,3.9-6.5,7.6-6.1c0.5,0.1,12,1.4,29.9,4.6c15.4,2.8,24.7,3.9,24.7,3.9c3.8,0.4,6.5,3.8,6.1,7.6
		C129.6,282.8,126.6,285.4,123.1,285.4L123.1,285.4z"/>
	<path class="st1" d="M67.4,313c-3.4,0-6.4-2.6-6.8-6.1c-0.4-3.8,2.3-7.2,6-7.6c0,0,0,0,0,0c0.2,0,17.6-2.1,26.4-3.5
		c9.1-1.4,29.6-4.7,29.6-4.7l2.1,13.6l-29.6,4.7c-9.1,1.5-26.3,3.5-27,3.6C67.9,312.9,67.6,313,67.4,313L67.4,313z"/>
	<path class="st1" d="M78.2,341.8c-3,0-5.8-1.9-6.6-5c-1.1-3.6,1.1-7.4,4.8-8.5l49.2-14.1c3.7-0.9,7.4,1.3,8.4,5
		c0.9,3.6-1.1,7.2-4.6,8.3l-49.3,14.1C79.5,341.6,78.8,341.8,78.2,341.8z"/>
	<path class="st2" d="M333.1,527.6l-67.8,51.9c0,0,2.6,108.3,0.9,112.6c-1.8,4.4-25.5,31.7-22.9,47.5c2.1,12.3,11.4,16.7,36.9,17.6
		c25.5,0.9,77.4-10.6,77.4-10.6L333.1,527.6z"/>
	<path class="st2" d="M531.9,568.9L481.8,597c0,0,7.1,21.1,7.1,51.1c0,29.9-2.6,48.7-4.4,54.9c-1.7,6.2-16.4,17.9-14.9,34.9
		c0.7,7.9,10.6,14.1,28.1,13.2s43.1-2.6,43.1-2.6l25.5-166.3L531.9,568.9z"/>
	<path class="st2" d="M207.9,173.8c0,0-8.2-28.8-1.2-74.5c7.1-45.8,18.8-69.8,29.9-71c11.1-1.2,32.3,19.9,48.7,45.2
		c16.4,25.3,29.9,69.8,29.9,69.8L207.9,173.8L207.9,173.8z"/>
	<path class="st2" d="M399.1,607.9c0,0,0.6,52.8,1.7,76.3c1.2,23.4,0.1,75.5-4.7,81.3c-7.3,8.8-14.7,9.1-30.5,9.7
		c-9.4,0.4,2.9-58.1,2.9-60.4c0-2.4,0.6-142.6,0.6-142.6L399.1,607.9L399.1,607.9z"/>
	<path class="st3" d="M242.4,425.5c0,0-14.1,44.6-10.6,78s22.9,75.7,42.2,92.7s36.9,25.8,38.7,29.9s8.8,62.2,6.4,74.5
		c-2.4,12.3-19.4,44-16.4,56.3c2.9,12.3,14.6,20.1,44.6,19.4c39-0.9,36.9-6.8,39.9-31.1c2-16.4-0.6-129.6-0.6-129.6s24.1,2.4,58.1,0
		c34-2.4,76.2-17.6,76.2-17.6s24.1,75.1,15.8,97.9c-8.2,22.9-21.7,35.8-19.4,51.6c2.4,15.8,22.9,22.9,48.1,20.5
		c25.3-2.4,44.6-18.8,45.8-40.5c1.2-21.7,0.6-141.9,4.1-151.3c3.5-9.4,16.4-41.6,15.3-73.9c-1.2-32.3-3.5-45.2-3.5-45.2
		s30.3-11.6,58.4-32.8c21.4-16.2,37.4-37.5,46-69.3c14.1-52.2-5.2-103.8-44-121.4c-37.3-16.9-73.9-10.6-75.1,16.4
		s22.9,21.1,41.1,28.1c18.2,7.1,38.7,39.3,17,71S610.8,390.8,599,392c-11.7,1.2-33.4-17-78.6-18.2c-45.2-1.2-110.2,31.7-112.1,27.6
		c-1.7-4.1,64.5-46.9,69.2-102.6c4.4-51.6-6.4-75.7-6.4-75.7s-8.2-87.4-19.9-128.4s-28-71.6-38.6-70.9C402,24.3,368,61.3,355.7,79.4
		c-12.3,18.2-25.8,47.5-25.8,47.5s-52.5-1.9-75.7,6.4c-21.1,7.6-45.2,20.5-60.4,44.6s-19.9,38.1-27,41.6
		c-7.1,3.5-40.5,10.6-43.4,14.7c-2.9,4.1-10.6,58.7-8.8,66.9c1.8,8.2,3.1,27.3,12.9,38.1c11.1,12.3,41.9,33.1,66.3,48.7
		C217.3,402.9,240.1,414.9,242.4,425.5z"/>
	<path class="st2" d="M458.6,482.9c21.7-0.3,21.1-26.4,21.4-58.7c0.3-28.3-0.9-44.9-0.9-44.9s-12.4,1.7-23.4,5.9
		c-10.9,4.1-20.3,7.9-20.3,7.9v45.4C435.4,454.2,437.2,483.2,458.6,482.9L458.6,482.9z"/>
	<path class="st2" d="M496.8,375.3c0,0,0,27.2,0.3,50.4c0.3,24.9-2.1,51.9,22.9,51.6c21.4-0.3,21.4-27.6,21.7-58.4
		c0.1-16.1,0.6-43.7,0.6-43.7s-10.6-2.1-23.2-1.8C509.1,373.8,496.8,375.3,496.8,375.3L496.8,375.3z"/>
	<path class="st4" d="M172.9,253c-0.3-7.1-18.5-12-32.6-17.3c-11.9-4.4-18.5-4.7-21.7-1.8c-3.2,2.9-7.1,10.6-8.8,22.3
		c-1.8,11.8-1.1,31.6,1.8,44c2.9,12.6,7.6,28.4,28.4,36.7c17.9,7.1,28.4-2.6,36.1-7.9c9.7-6.7,5.5-22.6-8.2-14.4
		c-10.2,6.2-17.3,7.9-25.2,2.1c-10.9-8.1-13.5-31.9-12.6-34c3.8-8.9,19.1-11.1,25.3-13.5C161.5,266.8,173.3,259.2,172.9,253
		L172.9,253z"/>
	<path class="st1" d="M295.9,315.3h-0.5c-0.2,0-19.9-1.4-32.3-1.8l-35.2-0.9c0,0-7.4,0.6-7.4-6.6c0-7.7,7.7-6.5,7.7-6.5l35.2,0.9
		c12.6,0.3,32.1,1.7,32.9,1.8c3.6,0.3,6.3,3.4,6.1,7C302.1,312.7,299.2,315.3,295.9,315.3L295.9,315.3z"/>
	<path class="st1" d="M284.7,358.1c-0.9,0-1.9-0.2-2.8-0.6c-0.1-0.1-15.7-7.5-29.8-12.3c-14.6-4.9-31-10.3-31-10.3
		c-3.4-1.1-5.4-4.8-4.3-8.3s4.8-5.4,8.3-4.3c0,0,16.5,5.3,31.2,10.3c14.9,5.1,30.6,12.6,31.3,12.9c3.3,1.6,4.6,5.5,3.1,8.8
		C289.5,356.8,287.1,358.1,284.7,358.1L284.7,358.1z"/>
	<path class="st1" d="M252.7,382.5c-1.3,0-2.6-0.4-3.7-1.1c-0.1-0.1-11.1-7.6-18.5-12.1c-7.7-4.7-21.5-13.6-21.5-13.6
		s-6.2-3.6-2.2-9.4c4-5.8,9.3-1.8,9.3-1.8s13.8,8.8,21.3,13.4c7.7,4.7,18.6,12.2,19.1,12.5c3,2.1,3.8,6.1,1.7,9.1
		C256.9,381.5,254.8,382.5,252.7,382.5L252.7,382.5z"/>
	<path class="st5" d="M402.2,77.1c-3-1.1-22.4,21.6-32.1,44s-13.2,34.7-12.3,38.7c0.4,1.8,11.6,11.4,28.1,24.6
		c17.2,13.6,28.1,22,33,21.6c4.8-0.4,6.2-37.8,2.2-71.7S407,78.8,402.2,77.1z"/>
	<ellipse transform="matrix(0.5 -0.866 0.866 0.5 -85.1513 351.7173)" class="st6" cx="262" cy="249.6" rx="29.8" ry="23.4"/>
	<path class="st7" d="M260,245.1c-3.4,6.4-9.4,10.6-14.4,7.5c-4.9-3.1-2.1-12.9,0.6-16.6c2.8-3.7,7.7-8.3,12.6-5.3
		C263.8,234,262.3,240.9,260,245.1L260,245.1z"/>
</g>
<g>
	<path class="st8" d="M256.2,510.3c0,0-26.4,46.3-34.6,80.4c-8.2,34-3.7,47.3,5.3,75.1c10.3,31.7,22.7,57.4,46.6,42.3
		c19.4-12.3,21.4-41.9,18.5-53.7c-2.9-11.8-5.6-28.1-4.4-35.2s14.4-39,24.9-54.3s10.6-37.6,8.8-39.3
		C319.5,523.8,256.2,510.3,256.2,510.3L256.2,510.3z"/>
	<path class="st8" d="M317.5,738.8c0,0-7.5,41.4-3.5,41.4c3.9,0,31.7-1.3,41.4-7.9c9.7-6.6,18.4-29.1,26.4-54.6
		c9.7-30.8,23.2-70.3,26.4-80.1c5.9-17.9,12.3-36.1,12.3-36.1s29.9-2.7,48.4-3.5c29.5-1.3,50-2.7,54.6,0.4
		c5.8,3.9,32.2,21.8,38.7,31.3c9.7,14.1-23.8,80.1-23.8,80.1s-23.8,21.1-22.9,33s23.8,10.6,44,9.7c20.3-0.9,31.1-6.6,33.9-9.7
		c10.6-11.4,21.6-42.7,28.6-68.2c6.8-24.4,15.8-39.6,13.2-55.4c-2.6-15.8-82.7-83.6-82.7-83.6l-196.6,47.5L317.5,738.8L317.5,738.8z
		"/>
	<path class="st8" d="M206.7,187.7L310,146c0,0-10-26.4-22.9-49.3c-12.9-22.9-41.6-65.7-55.1-62.2c-13.5,3.5-27.6,68.8-30.8,86.3
		C194.6,156.5,206.7,187.7,206.7,187.7z"/>
	<path class="st9" d="M111.1,278.8c-0.2,0-21.4,0-35.8-0.4c-14.5-0.4-28-0.9-28-0.9s-6.7-0.2-6.7-6.8c0-6.6,6.9-6.3,6.9-6.3
		s13.6,0.4,28.1,0.9c14.3,0.4,35.3,0.4,35.4,0.4c3.6,0,6.6,2.9,6.6,6.6C117.6,276,114.7,278.8,111.1,278.8L111.1,278.8z"/>
	<path class="st9" d="M47.6,318.5c0,0-6.2,1.7-7.6-5.1c-1.4-6.8,4.8-7.8,4.8-7.8s17.9-5.3,30.3-7.9c12.3-2.6,37.7-7.4,38-7.5
		c3.6-0.7,7,1.7,7.7,5.3c0.7,3.6-1.7,7-5.3,7.7c-0.3,0.1-25.6,4.9-37.7,7.4C65.6,313.2,47.6,318.5,47.6,318.5L47.6,318.5z"/>
	<path class="st9" d="M78,352.3c-2.1,0-4.2-1.1-5.5-2.9c-2-3-1.2-7.1,1.8-9.1l34.3-26.8c3-2,7.1-1.2,9.1,1.8c2,3,1.2,7.1-1.8,9.1
		l-32.1,25.3C82.6,350.5,79.2,352.3,78,352.3L78,352.3z"/>
	<path class="st10" d="M222.5,426.5c0,5.2,3.7,44.3,7.9,72.1c4.4,29.1,17.6,51.1,44,68.6c31.7,21.1,59.8,24.6,59.8,24.6
		s-9.7,59.8-22.9,99.4c-2.4,7.2-16.7,36.5-19.8,41.4c-3.1,4.9-11.4,18.9-10.1,29.1c1.4,11,9.7,23.8,44.9,16.7
		c28.5-5.7,31.3-34.4,39.6-57.7c3.1-8.8,22.6-62.8,26.4-75.4c8.4-27.9,13.2-46.8,17.6-51.6c4.4-4.8,51.1-7.1,80.1-8.8
		c29.1-1.8,75.7-2.6,75.7-2.6s19.8,16.3,41.8,26.4c34.3,15.8,66.4,20.3,81.4,40.5c14.4,19.5,12.1,38.3,8.8,54.1
		c-5.2,25.5-14.9,39.6-13.2,48.8c2.2,12.3,14.1,13.6,38.7,14.1c23.8,0.4,28.4-4.3,33-15.8c18.1-45.6-11-104.7-13.2-143.9
		c-1.1-18.6-30.4-23.8-36.9-51.1c-6.6-27.3-8.6-55-16.6-82.3c-8.6-29.8-19.4-54.9-19.4-54.9s30.6-18.6,49.6-39.3
		c18.9-20.7,45.9-48.1,34.9-102.4c-8.8-43.1-37.6-71.9-105.8-93.4c-67.4-21.3-81.2,3.4-83.1,19.6c-2.6,22,25.5,29.6,55.4,35.3
		s87.3,23.9,70.4,73.9c-10.6,31.3-57.2,50.3-57.2,50.3s-44.9-6.8-105.6-0.1c-49,5.4-72.2,18.3-77.5,15.9c-7.9-3.5-2.6-14.9,5.7-28.1
		c13.3-20.9,29.5-48.4,29.5-82.7s-16.2-52.8-16.2-52.8s-0.4-67.3-10.1-105.6c-9.7-38.2-27.8-82.8-46.7-83.6S361,70.6,352.3,85.1
		c-8.7,14.5-23.3,44.4-23.3,44.4s-51.3-6.2-94.1,14.5c-37.6,18.1-60.7,74.8-72.1,79.2c-11.4,4.4-38.4,3.4-49,21
		c-4.4,7.2-4.8,55.6-4.8,55.6s3.3,11.4,6.8,21.4c2.8,7.8,17,28.7,34.1,41.3c22.3,16.3,52,39.4,58.6,44.6
		C215,412.4,222.5,426.5,222.5,426.5L222.5,426.5z"/>
	<path class="st11" d="M351.8,156.8c0.4,9.2,21.6,21.6,32.6,29.5c11,7.9,26.8,25.3,33,24.2c10.9-1.9,10.1-48.4,7.9-69.1
		c-2.2-20.7-13.2-55-20.2-57.6c-7.1-2.6-25.3,23.7-29.9,30.8C367.2,126.9,351.4,148.5,351.8,156.8L351.8,156.8z"/>
	<path class="st12" d="M129.3,284.2c2.9-3.5,47.3-15.3,48.8-23.2c1.4-7.9-9.1-14.4-27.6-18.7c-16.6-3.9-31.8-2.4-35.6,0.3
		c-5,3.5-10.6,21.4-9.1,39.6c1.5,18.8,7.9,34.2,16.1,42.5c5.8,5.8,19.8,14.9,32.1,15.8s23.8-4.4,29.9-10.6
		c6.2-6.2,1.8-16.1-7.6-10.6s-15.6,7.3-23.8,5c-8.5-2.4-20.7-10.7-23.3-24.3C127.7,292,129.3,284.2,129.3,284.2L129.3,284.2z"/>
	<path class="st9" d="M313.6,340.7c-1,0-2-0.3-2.9-0.7c-0.2-0.1-17.6-8.9-32.6-13.3c-15.5-4.6-30-8.1-30.2-8.1
		c-3.5-0.9-5.7-4.4-4.9-7.9c0.9-3.5,4.4-5.7,7.9-4.9c0.1,0.1,15,3.6,30.8,8.3c16.3,4.8,34.1,13.9,34.8,14.3c3.2,1.6,4.5,5.6,2.9,8.8
		C318.3,339.3,316,340.6,313.6,340.7z"/>
	<path class="st9" d="M306.8,385.8c-1.4,0-2.7-0.4-3.9-1.3c-0.2-0.1-20.3-15-33.2-23.9c-12.6-8.6-29.9-16.7-30.1-16.8
		c-3.2-1.6-4.6-5.6-3-8.8c1.5-3.1,5.2-4.5,8.4-3.1c0.7,0.4,18.6,8.6,32.1,17.9c13.1,9.1,33.4,24,33.6,24.2c2.9,2.1,3.5,6.3,1.4,9.2
		C310.8,384.9,308.8,385.8,306.8,385.8L306.8,385.8z"/>
	<path class="st9" d="M275.8,408.7c-1.6,0-3.1-0.6-4.4-1.7L228,368.3c-2.7-2.4-2.9-6.6-0.5-9.3c2.4-2.7,6.6-2.9,9.2-0.5l43.4,38.7
		c2.7,2.4,2.9,6.6,0.5,9.3C279.4,407.9,277.6,408.7,275.8,408.7L275.8,408.7z"/>
	<ellipse transform="matrix(0.5 -0.866 0.866 0.5 -86.0956 345.4617)" class="st13" cx="256.1" cy="247.3" rx="29.8" ry="23.4"/>
	<path class="st14" d="M254.1,242.8c-3.4,6.4-9.4,10.6-14.4,7.5c-4.9-3.1-2.1-12.9,0.6-16.6c2.8-3.7,7.7-8.3,12.6-5.3
		C258,231.7,256.5,238.6,254.1,242.8L254.1,242.8z"/>
</g>
</svg>
