<?xml version="1.0" encoding="iso-8859-1"?>
<!-- Uploaded to: SVG Repo, www.svgrepo.com, Generator: SVG Repo Mixer Tools -->
<svg height="800px" width="800px" version="1.1" id="Layer_1" xmlns="http://www.w3.org/2000/svg" xmlns:xlink="http://www.w3.org/1999/xlink" 
	 viewBox="0 0 512 512" xml:space="preserve">
<circle style="fill:#FF9233;" cx="256" cy="256" r="256"/>
<path style="fill:#FFAD66;" d="M256,486.4C128.957,486.4,25.6,383.043,25.6,256S128.957,25.6,256,25.6S486.4,128.957,486.4,256
	S383.043,486.4,256,486.4z"/>
<g>
	<path style="fill:#FF9233;" d="M179.808,114.654l-54.959,58.498c-3.227,3.436-3.058,8.836,0.377,12.063
		c1.647,1.547,3.746,2.314,5.841,2.314c2.273,0,4.542-0.903,6.22-2.69l54.959-58.498L179.808,114.654z"/>
	<path style="fill:#FF9233;" d="M245.839,51.308c-3.436-3.228-8.836-3.058-12.063,0.375c-3.227,3.436-3.058,8.836,0.377,12.063
		l34.413,32.331l11.686-12.438L245.839,51.308z"/>
</g>
<path style="fill:#EB550C;" d="M226.694,452.96c-29.456-4.363-56.831-15.202-80.625-31.017
	c0.006-0.007,295.957-94.967,295.957-94.967c-10.522,27.524-26.996,52.128-47.833,72.242
	C394.189,399.213,226.694,452.956,226.694,452.96z"/>
<g>
	<path style="fill:#FF7700;" d="M269.582,401.446c-2.377,0-4.74-0.986-6.426-2.916l-75.018-85.778
		c-3.103-3.548-2.742-8.938,0.806-12.041c3.548-3.103,8.937-2.741,12.041,0.806l75.018,85.778c3.103,3.548,2.742,8.938-0.806,12.041
		C273.576,400.751,271.574,401.446,269.582,401.446z"/>
	<path style="fill:#FF7700;" d="M309.404,401.446c-2.377,0-4.74-0.986-6.426-2.916l-75.989-86.888
		c-3.103-3.548-2.742-8.938,0.806-12.041c3.548-3.104,8.938-2.742,12.041,0.806l75.989,86.888c3.103,3.548,2.742,8.938-0.806,12.041
		C313.399,400.751,311.396,401.446,309.404,401.446z"/>
	<path style="fill:#FF7700;" d="M339.314,69.038c-1.442-4.489-6.246-6.955-10.733-5.519L221.255,97.956l-11.019-10.353
		c-3.436-3.228-8.837-3.058-12.062,0.375c-3.227,3.436-3.058,8.836,0.377,12.063l4.126,3.876L85.052,141.659
		c-4.487,1.44-6.958,6.245-5.518,10.733c1.162,3.622,4.515,5.929,8.124,5.929c0.864,0,1.743-0.132,2.609-0.41l126.63-40.631
		l40.15,37.721c1.647,1.547,3.746,2.314,5.84,2.314c2.273,0,4.542-0.903,6.221-2.69c3.227-3.436,3.058-8.836-0.375-12.063
		l-33.257-31.245l98.319-31.547C338.282,78.33,340.753,73.524,339.314,69.038z"/>
</g>
<path style="fill:#EB550C;" d="M422.494,290.323h-7.964V158.539l-46.186,17.014c-4.423,1.63-6.687,6.535-5.056,10.958
	c1.27,3.45,4.534,5.585,8.008,5.585c0.978,0,1.975-0.17,2.949-0.529l5.014-1.848v100.602h-7.964c-4.714,0-8.533,3.82-8.533,8.533
	c0,4.714,3.819,8.533,8.533,8.533h51.2c4.714,0,8.533-3.819,8.533-8.533C431.028,294.142,427.208,290.323,422.494,290.323z"/>
<g>
	<polygon style="fill:#FF7700;" points="123.093,215.008 70.567,215.008 167.443,306.025 185.677,286.571 	"/>
	<path style="fill:#FF7700;" d="M337.386,171.891l-19.732-0.002l-33.529,17.067l53.263,0.002c4.713,0,8.533-3.82,8.533-8.533
		C345.92,175.712,342.099,171.891,337.386,171.891z"/>
</g>
<path style="fill:#EB550C;" d="M321.438,191.903c-0.682-6.892-1.963-13.578-3.785-20.015h-33.529L123.028,343.7
	c-3.223,3.437-3.049,8.838,0.388,12.062c1.646,1.544,3.743,2.309,5.835,2.309c2.276,0,4.548-0.906,6.227-2.697l40.058-42.722
	c13.716,4.05,28.425,5.583,43.534,4.089C281.81,310.536,327.642,254.645,321.438,191.903z"/>
</svg>