<?xml version="1.0" encoding="utf-8"?>
<!-- Generator: Adobe Illustrator 24.0.0, SVG Export Plug-In . SVG Version: 6.00 Build 0)  -->
<svg version="1.1" id="Layer_1" xmlns="http://www.w3.org/2000/svg" xmlns:xlink="http://www.w3.org/1999/xlink" x="0px" y="0px"
	 viewBox="0 0 800 800" style="enable-background:new 0 0 800 800;" xml:space="preserve">
<style type="text/css">
	.st0{fill:#37474F;}
	.st1{fill:#212121;}
	.st2{fill:#546E7A;}
	.st3{fill:#757575;}
	.st4{fill:#263238;}
	.st5{fill:#F44336;}
	.st6{fill:#FFFFFF;}
	.st7{fill:#FF285D;}
	.st8{fill:#00E577;}
</style>
<path class="st0" d="M668.1,160.4C636.2,79.8,557.6,22.8,465.8,22.8c-80.3,0-149.6,44.1-188.1,108.3c-10.6,17.7-30.3,29.3-52.5,29.3
	L175.8,345c0,56.9,19.7,109.1,52.6,150.4c-3.5,60.5-12.9,119.4-27.8,176c-1.4,5.4-6.2,9.4-11.7,9.6c-4.9,0.2-9.9,0.8-14.7,1.8
	c-13.4,2.7-23.5,14.3-23.8,28.4c-0.3,14.9,12.2,26.7,27,28.2c8.6,0.9,17.2,1.2,25.8,1c24.7-0.5,46.1-17,54.7-40.2
	c30-81,49.5-167.1,56.5-256.7c0,0,94.4-21.9,153.3-84c31.1,32.1,50.9,75.5,53.4,123.8c2,38.8,7.2,147.7,9.6,198.5
	c0.3,5.8-3.4,10.8-8.9,12.7c-9.1,3.1-18.1,6.7-26.8,10.8c-8.5,4-14.3,12.1-15.2,21.5c0,0.1,0,0.3,0,0.4c-1.3,13.7,8.8,26,22.4,27.6
	c30,3.5,60.5,1.7,90-5.4L668.1,160.4z"/>
<path class="st1" d="M785.6,397.1c-5.8-3.9-12.4-11.1-11.7-18.9c1.4-16.3,3.3-32.7,5.2-49.2c3.9-33.7,7.9-68.6,8.1-104.6
	c0.2-45.3-32.3-85.8-77.1-92.5c-16.7-2.5-32.6-0.4-46.8,5.2c-12.6,5-26.7,0.2-35.6-10C585.5,78.7,522.8,48,453.7,48
	c-70.9,0-138.1,29.3-176,83c-11.9,16.9-30.3,29.3-52.5,29.3l-43.4,194.5c11.1,67.2,53.2,123.9,111,155.1
	c-1.9,63.5-8.1,125.9-18.6,186.8c-1,6.1-6.3,10.8-12.4,10.8c-8.4,0-16.8,0.8-25.1,2.5c-14,2.8-24.5,14.4-26,28.6l-0.1,0.5
	c-1.6,15.3,8.1,29.8,22.9,33.8c18.1,4.9,37,5.6,55.4,2.4c11.6-2,21.4-10.2,26.2-21c39.9-89.3,67.1-185.4,79.1-286.3
	c38.2-18.7,71.2-46.4,96.2-80.4c30.9,11.9,54,40.7,57.9,76.2c8.5,76.8,16.1,154.3,19.6,232.8c0.2,5-2.6,9.6-6.9,12.1
	c-9.2,5.3-17.8,11.6-25.3,19c-4.1,4-6.8,9.3-7.7,14.9c-0.1,0.5-0.2,1-0.2,1.5c-2.6,16.9,11,32,28.1,32.7c15.6,0.6,31.2,0.4,46.8-0.6
	c17.7-1.2,32.2-14.7,34.6-32.3c10.4-75.6,16.8-152,19-229c0.9-31.1,4.1-62.2,9.2-92.9c7.9-47.8,14.6-96.3,15.9-145.8
	c0-1.2-0.1-2.3-0.1-3.4c11.4-33.2,26.4-69.5,30-61.6c8.7,19.5,6.9,77.9,3.2,110.6c-1.9,17.1-3.9,34.1-5.4,51
	c-2.6,30.1,12.9,60.1,40.4,78.4c5.5,3.7,11.8,5.5,18,5.5c10.5,0,20.8-5.1,27-14.4C804.5,427.2,800.5,407,785.6,397.1z"/>
<path class="st2" d="M35.9,262c-18.5-33.5-29-72-29-113c0,0,19,37.7,51.5,56.5C58.4,205.5,42,219.4,35.9,262z"/>
<path class="st0" d="M149.7,169.2c-20.5,17.8-48.8,22.2-74.5,13.7c-40.2-13.2-61.1-42.7-62.8-75.7c-0.3-5.6-7.9-6.3-9.3-0.9
	c-5.3,20.9-3.9,43.6,5.8,64.8c21.8,47.9,77.2,70,125.6,50.9C180.6,203.9,170.3,151.2,149.7,169.2z"/>
<path class="st3" d="M333.1,203c0-45.7,13-88.4,35.4-124.6L254,144.8L333.1,203z"/>
<path class="st4" d="M371.1,70.2c-43,23.7-89.9,41.2-139.4,51.7c-17-6.7-35.5-10.5-54.9-10.5c-77.9,0-141.8,59.7-148.6,135.8
	c-6.9,10.6-11,23.2-11,36.8c0,34.4,25.6,62.5,58.7,67.1c20.6,12.7,39.9,27.2,57.7,43.3c10.7,9.7,24.7,15,39.1,15.4
	c1.3,0,2.7,0.1,4,0.1c8.2,0,16.3-0.7,24.1-1.9c4-0.6,7.6-3,9.9-6.4c9.9-14.7,18.2-30.4,25.1-46.9c3-7.2,10-11.7,17.8-11.1
	c42,3.6,82.2-22.5,94.7-64.5c11.9-39.9-6.3-79.5-38.5-102.7c-11.2-8.1-29.7-24.5-43.2-34.7c40.5-14.8,77.3-37.4,108.6-65.9
	C378.4,73.1,374.8,68.2,371.1,70.2z"/>
<path class="st5" d="M98.9,317.2c18.6,13.8,34.1,31.7,45,52.3c2.6,4.9,7.9,7.9,13.3,6.8c8.6-1.8,17-4.2,25-7.3
	c8.3-3.2,14.1-10.4,16.3-19c4.9-19.9,11.8-38.9,20.4-57c3.8-8.1-4.8-16.2-12.6-12c-25.9,13.7-55.1,20.5-84.8,19.4
	C113,304.7,105.4,310.5,98.9,317.2z"/>
<path class="st6" d="M161.5,296.8c2.4,9.1,3.4,19,2.1,27.7c-0.5,3.6-2.6,6.3-2.6,6.3c-1.1-11.1-7.5-21.6-11.9-32
	C153.3,298.3,157.4,297.7,161.5,296.8z M115.8,334.8c1.7,1.8,6.1,5.2,6.1,5.2c-4-11-5.2-23.7-7.5-35.3c-3.7,2.5-7.3,5.2-10.6,8.2
	C106.5,321,110.3,328.8,115.8,334.8z"/>
<path class="st3" d="M123,294.1c0-4.4,0.8-8.6,2.4-12.4c3.4-8.5,1.3-10.6-3.6-11.5c-10.9-2-9,7.5-18.1,4.6c-2-0.6-3.9-0.4-5.6,0.6
	c-4.9,2.8-4.9,6.7,1.6,11.3c4.6,3.3,8.7,7.3,11.4,12.2C115.6,306.9,123,299.2,123,294.1z"/>
<path class="st7" d="M99.7,252.9c-6.6-11.9-12.1-22.2-27.2-22.2c-5.4,0-10.5,1-15.2,2.8c-5.2,1.9-8.6,6.9-9.3,12.4l-1.2,9.5
	c-0.4,2.8,2.3,5,5.1,4.2C67.4,254.9,83.6,252.7,99.7,252.9z"/>
<path class="st8" d="M206,203c-6.3-4.7-24.3-11.9-42.5-3c-6.8,3.3-12,9-15,16c-3.2,7.6-5.6,15.6-6.8,23.9
	C166.4,236.4,189.7,223.8,206,203z"/>
</svg>
