<?xml version="1.0" encoding="iso-8859-1"?>
<!-- Uploaded to: SVG Repo, www.svgrepo.com, Generator: SVG Repo Mixer Tools -->
<svg height="800px" width="800px" version="1.1" id="Capa_1" xmlns="http://www.w3.org/2000/svg" xmlns:xlink="http://www.w3.org/1999/xlink" 
	 viewBox="0 0 499.488 499.488" xml:space="preserve">
<g>
	<g>
		<path style="fill:#9E6459;" d="M494.299,216.643c-1.742-41.059-24.086-77.93-59.766-98.621c-3.867-2.242-6.594-6.082-7.484-10.535
			c-0.078-0.41-0.195-0.809-0.336-1.199l-17.461-47.313c-1.164-3.145-4.156-5.23-7.508-5.23h-304c-3.43,0-6.484,2.191-7.578,5.445
			l-15.227,45.156c-0.141,0.418-0.25,0.852-0.32,1.289c-0.773,4.82-3.758,9.008-8.188,11.496
			c-36.57,20.523-59.469,57.723-61.242,99.512L0.143,335.283c-1.781,41.789,13.18,81.434,42.117,111.633
			c28.945,30.195,67.914,46.828,109.742,46.828h195.484c41.828,0,80.797-16.633,109.742-46.828
			c28.938-30.199,43.898-69.844,42.117-111.633L494.299,216.643z"/>
	</g>
	<g>
		<path style="fill:#7E5C62;" d="M177.745,165.744h-89.28c-15.326,0-29.58,8.626-36.03,22.529c-4.303,9.275-6.83,19.442-7.283,30.07
			l-4.906,115.286c-1.309,30.769,8.56,61.484,29.468,84.095c21.461,23.209,50.775,36.02,82.287,36.02l192.127,0
			c30.797,0,61.064-11.166,82.766-33.017c22.276-22.429,33.829-52.261,32.489-83.745l-5.048-118.64
			c-0.451-10.601-2.981-20.773-7.293-30.063c-6.454-13.904-20.704-22.536-36.033-22.536h-89.265"/>
	</g>
	<g>
		<path style="fill:#B8BAC0;" d="M85.451,104.693c-0.84,0-1.691-0.066-2.547-0.203c-8.727-1.398-14.668-9.605-13.273-18.328
			c3.75-23.422,23.684-40.418,47.402-40.418H383.51c22.801,0,42.598,16.23,47.066,38.59c1.734,8.664-3.883,17.094-12.551,18.824
			c-8.664,1.781-17.09-3.887-18.824-12.551c-1.492-7.453-8.09-12.863-15.691-12.863H117.033c-7.906,0-14.555,5.668-15.801,13.473
			C99.971,99.088,93.174,104.693,85.451,104.693z"/>
	</g>
	<g>
		<circle style="fill:#8A8895;" cx="229.744" cy="25.744" r="20"/>
	</g>
	<g>
		<circle style="fill:#8A8895;" cx="269.744" cy="25.744" r="20"/>
	</g>
	<g>
		<g>
			<path style="fill:#C17B58;" d="M327.4,461.744h-16c-4.422,0-8-3.582-8-8s3.578-8,8-8h16c4.422,0,8,3.582,8,8
				S331.822,461.744,327.4,461.744z M279.4,461.744h-16c-4.422,0-8-3.582-8-8s3.578-8,8-8h16c4.422,0,8,3.582,8,8
				S283.822,461.744,279.4,461.744z M231.4,461.744h-16c-4.422,0-8-3.582-8-8s3.578-8,8-8h16c4.422,0,8,3.582,8,8
				S235.822,461.744,231.4,461.744z M183.4,461.744h-16c-4.422,0-8-3.582-8-8s3.578-8,8-8h16c4.422,0,8,3.582,8,8
				S187.822,461.744,183.4,461.744z M359.353,460.826c-3.992,0-7.445-2.977-7.938-7.035c-0.531-4.387,2.594-8.375,6.984-8.906
				c4.945-0.602,9.891-1.527,14.703-2.754c4.273-1.117,8.633,1.484,9.727,5.77c1.094,4.281-1.492,8.641-5.773,9.73
				c-5.469,1.398-11.102,2.453-16.734,3.137C359.994,460.807,359.674,460.826,359.353,460.826z M135.471,460.549
				c-0.383,0-0.773-0.027-1.164-0.086c-5.648-0.824-11.281-2.066-16.734-3.688c-4.234-1.258-6.648-5.711-5.391-9.949
				c1.266-4.227,5.672-6.648,9.953-5.387c4.719,1.402,9.594,2.477,14.484,3.195c4.375,0.637,7.398,4.699,6.758,9.074
				C142.799,457.686,139.377,460.549,135.471,460.549z M404.635,445.865c-2.758,0-5.445-1.426-6.93-3.984
				c-2.219-3.82-0.914-8.715,2.906-10.934c4.297-2.496,8.406-5.305,12.219-8.348c3.461-2.758,8.492-2.188,11.242,1.262
				c2.758,3.453,2.195,8.488-1.258,11.246c-4.43,3.531-9.195,6.785-14.172,9.676C407.377,445.518,405.994,445.865,404.635,445.865z
				 M90.924,443.697c-1.5,0-3.023-0.422-4.375-1.305c-4.742-3.109-9.328-6.594-13.617-10.367c-3.32-2.918-3.641-7.973-0.727-11.289
				c2.914-3.324,7.984-3.637,11.289-0.727c3.727,3.273,7.703,6.301,11.82,8.992c3.695,2.422,4.734,7.379,2.313,11.074
				C96.088,442.424,93.533,443.697,90.924,443.697z M439.572,413.533c-1.578,0-3.172-0.465-4.57-1.438
				c-3.625-2.527-4.508-7.516-1.984-11.141c2.82-4.039,5.375-8.328,7.594-12.75c1.984-3.941,6.773-5.535,10.742-3.555
				c3.945,1.984,5.539,6.793,3.555,10.742c-2.563,5.102-5.516,10.051-8.766,14.719C444.588,412.338,442.103,413.533,439.572,413.533
				z M57.549,409.736c-2.672,0-5.281-1.336-6.797-3.766c-2.977-4.777-5.664-9.883-7.984-15.172
				c-1.773-4.047,0.07-8.766,4.117-10.539c4.07-1.762,8.758,0.07,10.539,4.117c2.008,4.582,4.336,9,6.906,13.125
				c2.336,3.75,1.195,8.684-2.555,11.023C60.455,409.346,58.994,409.736,57.549,409.736z M457.783,369.529
				c-0.461,0-0.93-0.039-1.398-0.121c-4.352-0.77-7.258-4.922-6.484-9.273c0.852-4.848,1.367-9.816,1.531-14.758
				c0.133-4.332,3.688-7.746,7.984-7.746c0.094,0,0.18,0,0.266,0.004c4.414,0.141,7.883,3.836,7.734,8.25
				c-0.18,5.707-0.773,11.438-1.766,17.039C464.971,366.803,461.596,369.529,457.783,369.529z M41.4,364.896
				c-3.914,0-7.336-2.875-7.914-6.859c-0.805-5.598-1.25-11.305-1.336-16.965c-0.063-4.418,3.469-8.051,7.883-8.117
				c4.375,0.047,8.055,3.465,8.117,7.883c0.07,4.977,0.469,9.996,1.18,14.918c0.625,4.375-2.406,8.43-6.781,9.059
				C42.158,364.869,41.775,364.896,41.4,364.896z M458.385,321.654c-4.258,0-7.805-3.363-7.984-7.66l-0.68-15.984
				c-0.188-4.414,3.234-8.145,7.648-8.332c4.477-0.078,8.156,3.238,8.336,7.652l0.68,15.984c0.188,4.414-3.234,8.145-7.648,8.332
				C458.619,321.65,458.502,321.654,458.385,321.654z M41.299,316.978c-0.117,0-0.234-0.004-0.344-0.008
				c-4.422-0.188-7.844-3.918-7.656-8.332l0.68-15.988c0.188-4.414,4.234-7.707,8.328-7.652c4.422,0.188,7.844,3.918,7.656,8.332
				l-0.68,15.988C49.103,313.615,45.557,316.978,41.299,316.978z M456.346,273.697c-4.258,0-7.805-3.363-7.984-7.66l-0.68-15.984
				c-0.188-4.414,3.234-8.145,7.648-8.332c4.477-0.102,8.156,3.238,8.336,7.652l0.68,15.984c0.188,4.414-3.234,8.145-7.648,8.332
				C456.58,273.693,456.463,273.697,456.346,273.697z M43.346,269.021c-0.117,0-0.234-0.004-0.344-0.008
				c-4.422-0.188-7.844-3.918-7.656-8.332l0.68-15.988c0.188-4.414,4.234-7.727,8.328-7.652c4.422,0.188,7.844,3.918,7.656,8.332
				l-0.68,15.988C51.15,265.658,47.603,269.021,43.346,269.021z M454.307,225.74c-4.234,0-7.766-3.32-7.984-7.594
				c-0.242-4.793-0.961-9.578-2.148-14.219c-1.094-4.281,1.492-8.637,5.773-9.73c4.258-1.117,8.633,1.484,9.727,5.77
				c1.453,5.672,2.336,11.516,2.633,17.367c0.219,4.414-3.172,8.172-7.586,8.395C454.58,225.736,454.447,225.74,454.307,225.74z
				 M45.557,221.072c-0.281,0-0.57-0.016-0.867-0.047c-4.391-0.473-7.57-4.418-7.094-8.809c0.625-5.832,1.852-11.621,3.641-17.207
				c1.344-4.207,5.828-6.535,10.055-5.184c4.211,1.348,6.531,5.852,5.18,10.059c-1.453,4.559-2.453,9.285-2.969,14.043
				C53.064,218.029,49.596,221.072,45.557,221.072z M436.361,182.646c-1.766,0-3.547-0.582-5.023-1.781
				c-3.32-2.684-7.117-4.652-11.281-5.852c-4.242-1.219-6.695-5.652-5.477-9.898c1.219-4.238,5.609-6.719,9.898-5.477
				c6.234,1.793,11.93,4.75,16.922,8.789c3.438,2.777,3.969,7.816,1.188,11.25C441.01,181.631,438.697,182.646,436.361,182.646z
				 M66.916,179.928c-2.664,0-5.266-1.328-6.789-3.75c-2.344-3.742-1.211-8.68,2.531-11.027c5.445-3.418,11.438-5.688,17.805-6.746
				c4.367-0.738,8.484,2.219,9.203,6.574c0.727,4.359-2.219,8.48-6.578,9.207c-4.266,0.711-8.281,2.234-11.93,4.52
				C69.838,179.533,68.369,179.928,66.916,179.928z M390.408,173.744h-16c-4.422,0-8-3.582-8-8s3.578-8,8-8h16c4.422,0,8,3.582,8,8
				S394.83,173.744,390.408,173.744z M342.408,173.744h-16c-4.422,0-8-3.582-8-8s3.578-8,8-8h16c4.422,0,8,3.582,8,8
				S346.83,173.744,342.408,173.744z M177.744,173.744h-16c-4.422,0-8-3.582-8-8s3.578-8,8-8h16c4.422,0,8,3.582,8,8
				S182.166,173.744,177.744,173.744z M129.744,173.744h-16c-4.422,0-8-3.582-8-8s3.578-8,8-8h16c4.422,0,8,3.582,8,8
				S134.166,173.744,129.744,173.744z"/>
		</g>
	</g>
	<g>
		<path style="fill:#FFD100;" d="M321.744,181.744h-144c-8.837,0-16-7.163-16-16v0c0-8.837,7.163-16,16-16h144
			c8.837,0,16,7.163,16,16v0C337.744,174.581,330.581,181.744,321.744,181.744z"/>
	</g>
</g>
</svg>