<?xml version="1.0" encoding="iso-8859-1"?>
<!-- Uploaded to: SVG Repo, www.svgrepo.com, Generator: SVG Repo Mixer Tools -->
<svg height="800px" width="800px" version="1.1" id="Layer_1" xmlns="http://www.w3.org/2000/svg" xmlns:xlink="http://www.w3.org/1999/xlink" 
	 viewBox="0 0 511.996 511.996" xml:space="preserve">
<path style="fill:#F44336;" d="M318.63,417.479c-5.298,0-10.15-3.221-12.158-8.248c-0.759-1.92-1.039-3.927-0.89-5.891l-14.95-2.74
	c3.098-16.923,20.51-102.184,58.763-119.482c11.39-5.149,16.478,9.216,28.059,16.164c15.029,9.007,25.72,7.916,26.139,16.652
	c0.96,20.344-15.169,43.272-33.156,62.289c22.386-10.115,43.333-26.349,43.333-51.668c0-40.749-24.577-94.913,20.728-94.913
	c6.345,0,41.579,2.627,45.035,7.392c7.331,10.063,2.732,24.289-3.098,42.294c-2.592,7.995-7.951,23.722-7.244,30.372
	c1.44,13.545,24.568,1.815,39.144-7.026c2.322-1.405,4.818,1.519,3.081,3.604c-10.491,12.594-27.248,29.308-42.844,30.215
	c-7.244,0.471-13.842-2.295-18.695-7.654c-12.524-13.851-4.661-32.319,1.641-57.594c4.181-16.766,6.467-27.082,6.432-26.34
	c-18.363,8.728-17.996,33.375-17.996,79.64c0,77.249-114.83,92.225-119.726,92.836C319.703,417.444,319.162,417.479,318.63,417.479z
	 M364.153,304.054c-1.571,0-2.845,0.419-3.962,0.925c-15.98,7.218-31.228,47.199-39.702,81.438
	c26.742-21.557,57.795-53.745,56.948-71.235c-0.122-2.548-0.977-5.603-6.397-8.859C368.212,304.63,365.986,304.054,364.153,304.054z
	"/>
<path style="fill:#EF5350;" d="M197.612,402.86l-25.956-3.386c0.847-7.523,7.017-19.271,24.734-52.104
	c11.206-20.754,25.144-46.588,39.833-76.158c7.567-15.239,6.249-31.551-3.622-44.747c-9.155-12.236-23.783-18.651-37.119-16.251
	c-18.084,3.177-32.938,21.121-41.84,50.516c-12.193,40.296-27.737,49.765-48.892,54.199c-13.327,2.81-28.121,10.752-38.28-1.152
	c-16.417-19.227-21.138-50.359-11.477-75.704c3.709-9.749,12.227-23.189,20.196-29.892c-2.034,0.192-19.794,13.048-43.909,13.048
	c-10.857,0-18.974-7.785-21.793-18.546C2.191,174.893,36.726,130.827,99.862,85.53c2.191-1.571,4.713,1.44,2.784,3.317
	c-53.178,51.755-80.809,105.474-68.111,106.355c5.333,0.367,10.936-0.515,16.347-1.239c11.163-1.527,52.567-5.568,46.518,5.673
	c-9.435,17.56-12.446,24.481-17.953,47.758c-4.565,19.297-1.693,39.275,6.93,49.381c2.706,3.151,6.816,6.746,11.625,5.725
	c8.073-1.684,20.344-15.544,30.582-49.364c16.059-53.073,43.961-54.382,60.361-57.262c23.015-4.085,49.617-5.158,64.628,14.898
	c15.771,21.077,18.04,48.02,6.109,72.073c-14.881,29.98-28.941,56.032-40.243,76.952
	C209.246,378.693,198.703,398.217,197.612,402.86z"/>
<path style="fill:#212121;" d="M340.685,409.65c0,0-28.382-240.395-79.256-362.914c-2.941-7.078-13.1-7.078-16.041,0
	c-50.874,122.519-79.256,362.914-79.256,362.914H340.685z"/>
<path style="fill:#424242;" d="M55.063,454.414c8.44,2.898,12.28,8.283,12.489,8.3c34.431-7.82,70.362-5.577,103.467,6.284
	c112.028,4.224,224.31-0.061,335.797-13.022c-77.214-35.26-162.972-55.063-253.408-55.063S77.222,420.717,0,455.976
	c11.154,1.292,22.325,2.278,33.497,3.404C36.002,452.817,48.02,451.997,55.063,454.414z"/>
<g>
	<path style="fill:#C62828;" d="M330.115,334.19c-1.379-8.937-2.898-18.415-4.538-28.356
		c-46.169-11.774-93.465-17.647-141.397-17.412c-1.562,9.051-3.028,17.831-4.39,26.244
		C230.838,313.977,281.171,320.593,330.115,334.19z"/>
	<path style="fill:#C62828;" d="M312.267,260.616c2.156,1.728,4.242,3.561,6.371,5.333c-1.562-8.597-3.203-17.342-4.931-26.218
		c-27.03-20.178-56.704-36.298-88.429-47.522c23.189-11.18,47.662-19.567,72.911-24.926c-1.344-5.656-2.723-11.285-4.119-16.879
		c-31.132,6.65-61.111,17.656-89.136,32.694c-1.719,7.593-3.378,15.195-4.983,22.779c1.213-0.716,2.4-1.475,3.613-2.182
		c27.675,8.195,54.033,19.934,78.392,35.173c-29.866-2.54-59.942-1.091-89.537,4.294c-1.204,6.24-2.365,12.411-3.482,18.511
		C229.642,253.372,271.439,252.988,312.267,260.616z"/>
	<path style="fill:#C62828;" d="M173.48,355.53c-1.571,10.665-2.889,20.074-3.962,27.946
		c54.469-13.31,110.038-18.005,165.834-13.982c-1.117-7.899-2.426-16.827-3.884-26.48C278.36,339.732,225.462,343.826,173.48,355.53
		z"/>
</g>
</svg>