<?xml version="1.0" encoding="utf-8"?>
<!-- Generator: Adobe Illustrator 24.0.0, SVG Export Plug-In . SVG Version: 6.00 Build 0)  -->
<svg version="1.1" id="Layer_1" xmlns="http://www.w3.org/2000/svg" xmlns:xlink="http://www.w3.org/1999/xlink" x="0px" y="0px"
	 viewBox="0 0 5000 3309.7" style="enable-background:new 0 0 5000 3309.7;" xml:space="preserve">
<style type="text/css">
	.st0{fill:url(#SVGID_1_);}
</style>
<radialGradient id="SVGID_1_" cx="2154.7893" cy="137.8427" r="1754.5909" gradientTransform="matrix(-0.9324 0 0 -0.9324 4420.4868 1793.8635)" gradientUnits="userSpaceOnUse">
	<stop  offset="0" style="stop-color:#FFFBCC"/>
	<stop  offset="0.1146" style="stop-color:#FBF2BB"/>
	<stop  offset="0.3413" style="stop-color:#F0D98E"/>
	<stop  offset="0.3708" style="stop-color:#EED688"/>
	<stop  offset="0.6854" style="stop-color:#EBBB10"/>
	<stop  offset="1" style="stop-color:#C3922E"/>
</radialGradient>
<path class="st0" d="M2924.9,36.6c-93.8-1.8-84.4,644.5-39.9,722.6c27.4,48,43.5-75,147.2-85.7c-38.1,35.9-170.6,215.4-101,290.4
	c4.9,5.4,129.7-127,126.6-76.7c-121.6,155.7-116.7,237.9-61.5,250.9c18,30.5,27.4-47.6,103.7-63.3c-83.5,97.8-56.1,191.2-13,227.1
	c83.5,150.8,199.7,229.8,254,365.8c94.7,4,185.8,22.9,270.2,54.8c18-545.3-145.9-1115.3-660.2-1670.9
	C2941.5,41.5,2932.9,36.6,2924.9,36.6L2924.9,36.6z M823.5,573.8c-194.3-10.3,177.3,697,286.3,734.3
	c63.3,21.5-50.3-175.9,47.6-250.4c-4.9,50.7,20.6,366.7,151.7,384.2c8.5,1.3,12.1-295.8,47.1-253.6
	c-1.3,197.9,83.9,375.2,147.7,352.3c40.8,13.5-6.3-184,57-242.8c-8.1,128.4,86.2,315.1,155.3,317.8
	c199.3,70,408.9,142.3,609.9,216.8c31,11.7,7.6-47.1,48.9-77.6c7.6,64.6,88.4,129.3,110.4,137.8c57,22,112.7,44.4,167,66.9
	c28.3-31.4,58.3-60.6,90.7-87.5c-540.4-441.2-1195.6-870.7-1820.8-1070.9l37.3-120.7c738.3,280.1,1339.7,640,1889.5,1114.9
	c29.2-17.5,59.2-33.7,90.2-48C2383.1,1223.7,1728.3,715.6,833.4,574.7C829.8,574.3,826.6,573.8,823.5,573.8L823.5,573.8z
	 M3304.1,1793.3c-415.2,0-750.4,335.3-750.4,750.4c0,212.3,87.5,403.9,228.9,539.9c-9.9-63.3-13.5-129.7-10.3-193.4
	c3.6-69.1,15.3-135.5,40.8-193.9c25.6-58.3,67.3-110.4,129.3-135.1c29.2-11.7,58.8-17.1,88.4-18c88-1.8,174.1,40.8,238.8,97.4
	c29.2,25.1,54.8,53.9,74.5,85.3c92.5,19.7,224.9,0.4,330.8-51.6c59.7-29.2,110.9-67.8,143.2-109.1c22-27.8,35.9-55.7,40.8-84.4
	c0-45.3,14.4-93.8,38.1-130.6c24.7-35.5,61.9-63.7,107.3-79.4C3894.8,1991.2,3623.2,1793.3,3304.1,1793.3L3304.1,1793.3z
	 M4039.3,2392.4c-18.9,7.2-30.5,17.5-39,30.1c-35.9,65.5,4.5,145.4,52.1,180c1.3-19.3,2.2-39,2.2-58.8
	C4054.5,2491.6,4049.1,2441.3,4039.3,2392.4L4039.3,2392.4z M3916.3,2644.2c-38.1,48.5-88,88.4-144.1,121.2
	c36.4,118.5,35.9,242.4,18,350.1c115.3-98.3,200.2-230.2,239.7-381.5C3983.2,2712.9,3945,2681.5,3916.3,2644.2L3916.3,2644.2z
	 M3033.9,2671.1c-52.5-2.2-88.9,39.9-105,75.9c-16.6,38.1-27.4,91.1-30.1,149.5c-4.9,102.3,13.5,220.4,43.1,304.3
	c107.3,59.2,231.1,93.4,363.1,93.4c118.5,0,230.7-27.4,330.3-76.3c34.6-100.5,56.6-260.8,21.5-398.5c-87.5,31.9-180.9,48-269.3,41.3
	c0,25.6-4.9,51.6-16.6,76.3c-35.5,74.1-113.1,107.3-193.9,105.5c-80.8-1.8-171-61.5-192.1-171l123.9-24.2
	c12.1,62.4,35.9,67.8,70.9,68.7c34.6,0.9,74.1-26.9,77.6-34.1c6.7-13.9,7.2-33.2-4.5-60.6s-35-59.2-66-85.7
	C3140.3,2696.3,3082.4,2672,3033.9,2671.1L3033.9,2671.1z"/>
<path d="M4873.3,1275.8c-129.9,54.2-389.1,201.2-964.6,453.9c-28.6-16.9-73.9-46.5-104.9-34.6c-14.1,5.5-24.2,19.9-39.1,23.4
	c-14.9,3.5-34.6-3.8-60.6-9.9c-29.1-6.8-60.8-11.5-113.1-40.3c11.4-19.6-25.7-24.4-154.9-119.2c-170.9-125.4-242.8-219.4-312.9-342
	c-0.9,10.4-3.7,21.4-8.1,34.6c13.4-40.2,11.9-60.9-12.1-100.8c-27.6-46-85.1-117.4-113.4-178.6c-21.6-46.7-26.2-87.4-34.1-117.8
	c27.1-45.5,13.4-66.6,115.7-87.3c17-3.5,20-2.7,24.6-13.1c4-9.1,9.2-26.8,10.5-40c12.1-10.1,14.5-12,11.5-15.3
	c-3.1-3.3-12-8.1-12.2-10.3c-0.5-3.5,20.3-0.1,19-7.6c-0.3-1.9-2.4-3.5-4.6-6.2c-8.7-10.8,4.1-13.3,17.4-24
	c7.6-6.2,14.8-14.7,13.1-20.3c-1.8-5.6-12.5-8.3-21.3-27.3c-3-6.4-5.7-14.7-8.3-23.6c65.8-39.8,132.9-89.7,196.6-147.8
	c101.7-92.7,233-247.9,233-257.1c0-8.5-56,34.8-197.6,101c-91.4,42.7-218.6,94.9-323.8,80.2c-105.2-14.7-188.4-96.3-286.8-162.9
	c-98.4-66.5-211.6-117.8-289.7-147.4C2327-11.8,2285.4-7.3,2188.3,22.3c-102,31-109.6,34.2-118.5,53.3c-5.5,11.8-11.1,30-14.4,43.1
	c-3.3,13.1-4.3,21.2,18.2,12.2s68.7-35,109.1-53c98.4-43.7,149.1-30.3,250.8,79c65,69.9,157,186.3,203,247.3
	c46,61,46.2,66.9,37.7,77c-8.5,10.2-25.8,24.7-93.3,48.6c-67.6,23.9-185.4,57.2-268.6,74.8s-131.3,19.5-161.2,22
	c-29.9,2.5-40.4,5.8,9.8,14.8s160.8,23.8,278.4,34.3c103.1,9.3,211.4,15.3,305.8,10.7c-63.2,165.9-153,272.4-315.4,325
	c-126.3,40.9-342.4,62.5-459.7-0.8c-27.8-15-26.5-24.5-22.3-34c4.2-9.4,11.3-18.7,17.8-20.5s12.4,3.9,14.1,2.9c1.7-1-0.9-8.7-7.9-12
	c-14.2-6.7-46.8,5.9-60.4,37c-6.6,15.1-7.8,33.8-3.4,49.7c4.4,15.9,14.4,28.9,33.2,40.2c52.3,31.3,145.5,36,170.3,44.9
	c12.5,4.5-4.2,8.4-35.2,8c-30.9-0.4-76-5-104.1-11.6c-28.1-6.5-39.1-14.9-44.1-15.5c-5-0.6-4.3,5.1,4.8,17.1
	c76,100,265,48.5,382.6,31.4c35.9-5.2,19.6,1.9-11.3,22.9c-30.9,21-76.5,56-104.3,81.6c-50.6,46.4-31.7,47.1-102.1,99.5
	c-21.1,15.7-46.4,33.7-77.2,46.5c-67.1,27.9-168.6,29.8-194.4,20.6c-15.5-5.5-8.6-15.8-7.5-22.4c1.1-6.6-3.7-9.4-7.4-8.9
	c-3.7,0.5-6.4,4.3-9.3,11.3c-2.8,6.9-5.9,16.9-0.6,29.1s18.9,26.4,63,30.3c64.7,5.8,209.2-9.9,278.6-25.9c24.3-5.6,42.2-10.9,47-5.4
	c4.8,5.5-3.5,21.7-15.2,40.5c-34.8,55.6-59.4,76-98.1,107.8c-24.5,20.2-59.4,48.7-101.5,68.7c-62.7,29.7-164.1,49.7-227.5,24.5
	c-19.4-7.7-25.2-17.2-29.1-18.9c-3.9-1.7-6,4.3-2.9,12.3c3.1,8,11.5,18,34.1,31.3c22.6,13.2,59.4,29.7,99.3,38.9
	s83.1,11.3,103.1,13.1c56.2,5.2-63.3,9.1-143.3,1.5c-25.2-2.4-41.8-5.9-49.5-5.1c-27.8,3,95.4,46.7,186.1,45.4
	c60-0.8,114.3-20.1,164.4-41.7c50.1-21.6,98-46.5,143.7-84.9c45.7-38.4,90.2-90.8,117.9-113.9c27.8-23.1,38.9-16.8,34.4,3
	c-4.5,19.8-24.5,53.2-42.4,73.7c-17.8,20.5-33.4,28.2-28.4,30.7c5.1,2.5,30.9-0.1,60.3-26.7s62.3-77.2,89.7-115.9
	c52.1-73.5,106.9-130.8,170.8-212.6c1.3,53.2,3.5,97.5,7.9,138.3c9.1,83.8,27,144.1-22.3,222.9c-14.9,23.8-30.3,38.3-52,61.6
	s-49.7,55.5-72.2,87.7c-48.6,69.5-58.8,119.1-42.1,195.5c14.3,65.1,32.7,91,7.7,141.4c-34.8,70.4-103.8,106.9-174.8,143.6
	c-44.5,23-92.2,46.2-116.6,62.3c-24.4,16.1-25.5,25.2-20.5,25.9c5,0.6,15.9-7.2,34-14.7s43.1-14.5,48-8.8
	c4.9,5.8-10.5,24.3-18.3,37.3c-25.5,42.7,50.3-14.7,95-40.6c25.7-14.9,38.4-17.8,36.6-12.9c-2.6,7.1-50.9,43-64.5,54.7
	c-85.4,34.4-167.8,67.5-245.7,98.8c-54.2,12.6-131.2,36-204.5,64.9c19.5-11.2,39.2-26.1,64.1-49.8c31.4-29.9,117.4-119.6,120.6-163
	c0.9-11.9-6-13.7-55.6,24.6c-49.6,38.3-141.2,116.9-179.2,144.7c-63.2,46.1,18.6-43.7,44.8-136.9c9.2-32.7,6.2-55.3-19.8-18.4
	c-22.5,32-62.1,108.5-89,159.9c-29.8-2.1-56.6,19.6-59.8,50.2c-0.4-0.1-0.9-0.1-1.3-0.2l0,0c-64.8-10.6-194.5-31.9-316.8-43.5
	c-211-20-414.3-11.5-564.1,12.8c-43.9,7.1-47.5,10.9-34.2,15.3c49.8,16.3,193,18.4,122,38c-46.5,12.8-186.6,33.1-287.1,55.8
	c-100.5,22.7-161.3,47.7-204.1,68s-67.4,35.9-58.2,39.7c9.2,3.8,52.2-4.2,106.3-14.2c54.1-10,119.2-22.1,88.2-8.4
	c-56.7,25.2-374,116.1-350.6,138c8.5,7.9,62.5,5.2,132.8,6.2c70.4,1,157.1,5.9,116.6,15.8c-40.5,10-208.1,25.1-301.9,29
	s-113.7-3.3-121.8,0.3c-8.2,3.6-4.6,17.9,30.7,37.1c35.3,19.1,102.3,43.1,185,54.8s180.3,11.3,168.5,18.1
	c-11.8,6.8-132.5,20.5-188.1,32.1c-55.7,11.6-45.4,20.9,3.2,32.7s135.3,26.1,246.1,26.2c110.8,0.1,245.6-13.9,246.7-7.5
	c1.1,6.4-131.6,33.1-246.4,45.9s-211.9,11.8-209.3,25.3c2.6,13.5,104.8,41.6,214.3,45.3c109.5,3.7,226.1-16.8,319.9-34.6
	c93.8-17.7,164.7-32.6,158.8-25.2c-5.9,7.5-88.6,37.3-146.1,57.4c-57.5,20.1-89.9,30.6-131.9,36.9c-88,13.2-173,7.2-84.1,29.1
	c35,8.6,91.9,20.9,172.6,11.3c80.8-9.6,185.4-41.2,276.6-77.9s168.8-78.6,263.4-135c94.6-56.4,206.2-127.3,283.8-187.2
	c59-45.6,142.3-120.7,174.1-188.5c34.1,24.4,81.9,4.3,88.3-37.1c160.1,28.4,193.6,65.9,218.9,80c11.3,6.3,14.2,3,12.7-3.6
	c-1.5-6.6-7.6-16.8-27.8-36.2c-20.2-19.3-55-48.4-77.8-66s-33.4-23.5-16.8-22.7c16.6,0.9,60.3,8.5,90.1,19.6
	c29.7,11.1,45.3,25.4,55,32.2c9.8,6.7,13.7,5.8,13-3s-6.3-25.3-14.8-41.2c-14.7-27.5-32-41.1-50.5-48
	c79.1-30.3,163.3-62.6,250.9-96.4c1.1-1.3,2.1-2.6,3.1-3.9c-17.2,22.4-40.6,44.8-62.2,87.6c-8,16-36.9,82.9-37.8,100.3
	c-0.4,7.3,2.4,11,14-1s32-39.5,63.9-70.4c95.2-91.8,251.7-167.1,299.3-180.1c35.7-9.8,34.8,6.4,29.3,32.8
	c-5.5,26.4-15.5,63.1,9.5,39.3c25.1-23.8,85.8-108.7,142.2-155.7c56.5-47,109.8-57.7,235.9-115.8c88.7-41,37.2-20,101.4-45.3
	c115.3-9.3,146-19.6,137.9-11.5c-6.9,6.9-43,27.4-111.5,78.9c-68.4,51.5-169.3,134.1-230,192c-56,53.4-78.1,85.7-96.8,107.2
	c-11.7-7.6-16.6,1.8-22,9c-23.1,30.2-72.1,18.6-138,70.9c-40.3,31.9-95.9,92-127.9,142.1c-8.2,12.9-8.3,15.2-7.2,19.2
	c1.1,4,3.2,9.6,5.3,12c2.2,2.4,4.4,1.6,14.6-7c27-22.7,51.2-46.4,76.5-53.8c9.3-2.7,17.5-3.1,22.7-2.3c10.5,1.5,9.3,7.5,10.2,30.4
	c2.3,63.1,9.3,126.9,29.3,186.3c14.4,42.8,37.2,89.1,60,115.3c22.8,26.2,45.5,32.1,56.1,32.9c10.5,0.8,8.9-3.7,5.8-9.3
	c-3.1-5.6-7.5-12.4-11.5-24.7c-9.2-28-12.8-67.6-16.6-88c-1.9-10.4-4.4-20.6-6.6-30.8c9.9-11.8,17.8-18.5,25.5-23.1
	c8.3-5,16.2-7.4,21.4-8s7.8,0.7,9.8,4c6.6,10.7,27.1,110.2,83.3,195.7c24.8,37.7,58.6,76.8,87.2,96.3c28.7,19.5,52.2,19.5,62.6,17.6
	c10.4-1.9,7.6-5.8,3.2-10.5c-12.3-13.1-20.1-20.4-38.7-62.4c-6.4-14.5-11.3-27.3-17-39.5c-20.9-44.8-41.3-61.9-34.9-156.9
	c2.2-33.2,15.2-159.6,31.4-188.9c8.8-15.9,22-16.4,16.7-23.6v0c-1.4-1.9-4.1-4.1-9.9-8.7c53.5-74.5,306.6-277.1,509.6-469.5
	c5.7-3.2,11.3-6.4,16.6-9.5c135.9-78.9,153.2-113,155.9-144.4c2.5-28.3-7.2-53.5-19.7-74.4c-7-25.8-23.8-47.3-44.2-65
	c23.8-9.5,47.3-18.9,70.5-28.2c22.2,12.5,56.7,29.6,81.9,32.9c14.5,1.9,19.7-2.6,27.1-5.9c11.6-5.2,33.8-8.5,42.8-25.1
	c3.2-5.8,3-11.6,9.3-22.6c9.1-15.8,24.6-33.2,23.4-50.2c21.7,2.5,26.1-3.1,35-8.3c11.2-6.6,26.3-10.1,36.2-23.8
	c1038.9-421.2,1068.3-469.6,1080.8-548.2C5003.5,1264.3,5009.4,1219.1,4873.3,1275.8z M2201.5,2498.9c24.1-9.9,52.6-22.9,73.8-28.2
	C2254.1,2476,2225.2,2489.2,2201.5,2498.9z M2167.2,2506.3c-2.3-6.8,15.8-17.4,108.5-91.9
	C2183.6,2488.4,2164.9,2499.5,2167.2,2506.3z M2900.8,2692.4c-13.2-4.4-15.6,6-19,14.2c-9,21.5-27.2,27-62.2,51.6
	c-38.3,26.9-61,58.8-86.8,103.5c10.9-45.6,41.7-121.1,59.3-160.3c24.3-54.2,32.1-58.2,48.4-65.7c4-1.8,5.6-3.7,4.2-7.2v0
	c-0.9-2.2-2.9-5-7.4-10.9c34.7-28.8,107.7-66,154.2-90C2929.4,2622.2,2916.1,2661.5,2900.8,2692.4z M3445.8,1682.3
	c-5.2-5.3-12-11.6-17.7-16.9C3433.9,1670.7,3440.7,1677.1,3445.8,1682.3z M3292.4,1528.6c-26.7-29.7-55.2-63.3-82.5-98.6
	C3237.2,1465.3,3265.7,1498.9,3292.4,1528.6z M3055.8,2192.2c4.7-2.3,9.5-4.7,14.3-7C3065.3,2187.6,3060.6,2189.9,3055.8,2192.2z
	 M2904.8,1738.5c-15.9-25.4-22.2-64.3-21.9-91.5c0.7-61.7,46.3-69.5,112.5-162c21,28.9,42.1,48.2,88.5,112.6
	c49.2,68.3,126.7,187.4,180.5,268.8C2957.9,1782.7,2925.6,1771.8,2904.8,1738.5z M3096.6,2172c106.8-53.4,231.1-119.1,392.5-204.2
	C3324.8,2054.5,3200,2120.3,3096.6,2172z M3476.5,1923.9c13.3,3.6,26.6,7.2,40,10.8c0,0,0,0,0,0
	C3503.1,1931,3489.8,1927.4,3476.5,1923.9z M3522.4,1947.6c0.1-0.4,0.2-0.8,0.3-1.2C3522.7,1946.8,3522.6,1947.2,3522.4,1947.6z
	 M3462.6,1920.1c-11.2-3.5,32.3,8.7-70.5-19c4.2-29.4,8.9-56,17.8-83.4c16.9-52.5,42.5-92.6,47.3-106.8
	c-4.8,14.3-30.3,54.2-47.3,106.8c14.7,8.2,29.5,16.4,43.7,24.3c5.7,24.4,4.8,56.1,18,44.9c4.6-3.9,10.7-12.6,17.7-25.3
	c16.2,8.8,33.3,18.1,49.6,26.6C3513.8,1898.7,3488.3,1909.4,3462.6,1920.1z M3603.1,1805.4c-17.6-7.5-39.8-17.8-72.1-40.5
	c0-0.1,0.1-0.2,0.1-0.3c36.7,15.2,87.2,35.9,123.8,49.7C3639.1,1820.9,3620.8,1812.9,3603.1,1805.4z"/>
</svg>
