<?xml version="1.0" encoding="iso-8859-1"?>
<!-- Uploaded to: SVG Repo, www.svgrepo.com, Generator: SVG Repo Mixer Tools -->
<svg height="800px" width="800px" version="1.1" id="Layer_1" xmlns="http://www.w3.org/2000/svg" xmlns:xlink="http://www.w3.org/1999/xlink" 
	 viewBox="0 0 512 512" xml:space="preserve">
<path style="fill:#F7B239;" d="M157.265,310.294c11.156,8.142,19.213,18.703,24.353,30.527
	c13.866,31.924,6.404,73.012-19.006,100.306C104.839,503.165,0,497.004,0,497.004s0.012,0,0.024-0.012
	c1.495-0.802,59.924-32.544,32.629-82.479c-33.115-60.592,34.002-151.954,109.979-113.261v0.012
	c4.849,2.455,9.722,5.444,14.607,9.017C157.252,310.294,157.265,310.294,157.265,310.294z"/>
<path style="fill:#E09B2D;" d="M72.088,414.513c23.515,43.032-16.612,72.55-29.117,80.4C17.888,498.061,0,497.004,0,497.004
	s0.012,0,0.024-0.012c1.495-0.802,59.924-32.544,32.629-82.479c-30.661-56.096,24.584-138.55,93.246-119.786
	C77.836,308.252,47.638,369.768,72.088,414.513z"/>
<path style="fill:#B27214;" d="M506.659,20.167c7.121,7.121,7.121,18.654,0,25.775l-71.092,71.092
	c-3.415,3.415-8.057,5.347-12.894,5.335l-35.412,0.012L211.069,298.573l-2.443,2.443l-25.775-25.787l2.43-2.43L366.821,91.258
	c3.415-3.415,8.057-5.335,12.894-5.335l35.412-0.012l65.757-65.745C488.005,13.045,499.538,13.045,506.659,20.167z"/>
<g>
	<path style="fill:#E09B2D;" d="M99.55,336.25c-1.089,0-2.178-0.416-3.008-1.246c-1.661-1.661-1.66-4.354,0-6.015
		c36.586-36.574,63.674-24.775,66.944-23.141c1.429,0.685,2.415,2.146,2.415,3.837c0,2.349-1.904,4.253-4.253,4.253
		c-0.681,0-1.351-0.168-1.953-0.475c-1.045-0.529-24.061-11.527-57.138,21.541C101.727,335.836,100.639,336.25,99.55,336.25z"/>
	<path style="fill:#E09B2D;" d="M149.852,405.52c-1.089,0-2.178-0.416-3.008-1.246c-1.661-1.661-1.661-4.354,0-6.015
		c29.09-29.09,23.675-74.28,23.617-74.733c-0.299-2.328,1.345-4.46,3.674-4.761c2.336-0.305,4.46,1.339,4.763,3.666
		c0.262,2.016,6.063,49.742-26.038,81.843C152.028,405.105,150.939,405.52,149.852,405.52z"/>
	<path style="fill:#E09B2D;" d="M146.884,349.845c-0.866,0-1.741-0.264-2.496-0.813c-1.901-1.38-2.322-4.041-0.941-5.941
		l21.206-29.19c1.381-1.899,4.041-2.324,5.941-0.941c1.901,1.38,2.322,4.041,0.941,5.941l-21.206,29.19
		C149.497,349.236,148.2,349.845,146.884,349.845z"/>
</g>
<path style="fill:#F7B239;" d="M235.453,311.387l-22.263,12.165l-4.995,2.734l-4.995,2.734l-21.583,11.8
	c-5.14-11.824-13.198-22.385-24.353-30.527c0,0-0.012,0-0.024-0.012c-4.885-3.573-9.758-6.562-14.607-9.017v-0.012l11.593-21.194
	l5.469-9.989l12.165-22.263l19.213,19.201l25.775,25.787L235.453,311.387z"/>
<polygon style="fill:#666666;" points="213.19,323.552 208.195,326.286 203.201,329.021 154.226,280.058 159.695,270.069 "/>
</svg>