<?xml version="1.0" encoding="iso-8859-1"?>
<!-- Uploaded to: SVG Repo, www.svgrepo.com, Generator: SVG Repo Mixer Tools -->
<svg height="800px" width="800px" version="1.1" id="Layer_1" xmlns="http://www.w3.org/2000/svg" xmlns:xlink="http://www.w3.org/1999/xlink" 
	 viewBox="0 0 512 512" xml:space="preserve">
<circle style="fill:#FFE0B2;" cx="288.879" cy="194.207" r="194.207"/>
<path style="fill:#4E342E;" d="M81.069,475.092c-12.526-5.023-23.72-13.047-32.759-23.658
	c-16.057-18.838-22.378-44.509-18.088-68.891c7.715-43.873,44.641-69.085,83.262-69.349c22.281,0.194,42.99,9.039,58.297,24.903
	c31.956,33.103,58.695,73.251,79.484,119.349l-24.135,10.876c-19.527-43.299-44.562-80.922-74.399-111.828
	c-10.337-10.717-24.364-16.693-39.486-16.817c-14.451-0.23-27.842,4.864-38.506,14.186c-24.346,21.274-26.968,56.832-5.641,81.125
	c6.312,7.186,14.098,12.579,22.775,15.881c5.297,2.013,7.742,8.06,4.829,12.924c-1.518,2.534-3.107,5.217-4.493,7.609
	C89.976,475.277,85.218,476.751,81.069,475.092z"/>
<path style="fill:#5D4037;" d="M456.603,476.69H121.155v-8.828c0-14.627,11.855-26.483,26.483-26.483h282.483
	c14.627,0,26.483,11.855,26.483,26.483V476.69z"/>
<path style="fill:#3E2723;" d="M447.776,512H129.983c-14.627,0-26.483-11.855-26.483-26.483l0,0c0-4.873,3.955-8.828,8.828-8.828
	h353.103c4.873,0,8.828,3.955,8.828,8.828l0,0C474.259,500.145,462.394,512,447.776,512z"/>
<path style="fill:#FBC02D;" d="M294.944,253.246c0,12.491-10.125,22.625-22.616,22.625c-12.491,0-22.625-10.125-22.625-22.625
	c0-12.5,10.125-185.565,22.625-185.565C284.819,67.681,294.944,240.746,294.944,253.246z"/>
<path style="fill:#FFFFFF;" d="M289.983,252.275c0,9.746-7.901,17.655-17.655,17.655s-17.655-7.91-17.655-17.655
	c0-9.754,7.901-63.585,17.655-63.585C282.073,188.69,289.983,242.529,289.983,252.275z"/>
<path style="fill:#FFAB00;" d="M253.216,294.382c1.642-8.042,4.22-15.731,7.556-22.996c2.004-4.37,8.095-4.935,10.84-0.98
	c0.185,0.274,0.371,0.538,0.556,0.812c2.489,3.655,7.433,4.82,11.22,2.525c10.205-6.17,21.478-10.708,33.536-13.25
	c0.883-1.042,1.721-3.09,2.551-5.738c2.895-9.242,15.581-8.289,17.752,1.148l0.035,0.097c5.27,2.26,6.709,4.891,9.172,10.046
	c3.716-4.175,5.985-9.657,5.985-15.687c0,0,5.72,17.664-5.429,35.134c-11.149,17.47-41.419,23.446-64.009,23.446
	C260.384,308.93,253.216,294.382,253.216,294.382z"/>
<path style="fill:#880E4F;" d="M299.402,305.337c-2.233-18.785-10.443-31.117-16.569-40.969c-1.615-2.586-1.836-5.694-0.962-8.616
	c1.315-4.414,0.353-9.313-3.125-12.826c-5.146-5.199-13.533-5.244-18.723-0.097c-5.199,5.146-5.244,13.524-0.097,18.723
	c3.09,3.116,7.3,4.29,11.308,3.646c3.143-0.503,6.532,0.274,8.58,2.719c5.349,6.374,7.221,17.161,2.074,35.231L299.402,305.337z"/>
<path style="fill:#E65100;" d="M433.307,448.415c-11.635-14.777-26.13-27.118-42.487-36.617c-0.062-0.786-0.132-1.571-0.212-2.357
	c-0.953-9.56-4.785-18.503-10.258-26.403c-1.156-1.668-2.269-3.363-3.328-5.102c1.686-8.81,4.281-17.293,7.724-25.335
	c3.628-8.474,4.396-17.761,2.454-26.783c-1.545-7.168-2.454-14.574-2.728-22.14l0,0c9.198,0.865,14.504-10.328,8.801-17.514
	c-11.29-14.23-23.94-27.321-37.844-39c0,0,9.375,18.282,2.127,31.064c-7.247,12.782-11.935,40.068-10.231,71.609
	s10.231,98.569,10.231,98.569h75.749V448.415z"/>
<path style="fill:#EF6C00;" d="M360.312,296.969c-16.234,12.27-48.155,71.892-56.761,42.549c-8.607-29.343-33.713-20.233-39.203-0.9
	c-4.431,15.607,2.613,41.331-14.645,38.047c-15.598-2.966-15.598-37.076-21.451-54.643s-13.656-27.313-18.238-12.217
	c1.907,22.908,1.536,45.912-1.156,68.687c-16.834,13.365-29.246,32.018-34.648,53.513c-11.82,3.099-22.387,9.278-30.685,17.752
	l226.948-0.026c-7.662-35.902-11.688-73.154-11.688-111.342C358.785,325.199,359.341,309.919,360.312,296.969z"/>
<path style="fill:#FB8C00;" d="M228.251,322.03c5.853,17.567,5.853,51.668,21.451,54.643c17.267,3.284,10.222-22.44,14.645-38.047
	c5.482-19.324,30.596-28.434,39.203,0.9c7.892,26.898,35.363-19.103,52.392-36.414c2.41-2.454,4.149-5.402,5.526-8.563
	c1.05-2.41,2.737-4.537,4.802-6.294c6.126-5.191,10.046-12.888,10.046-21.557c0-7.124-2.719-13.533-7.036-18.529l0.124-0.062
	c8.165-4.211,8.58-15.996,0.521-20.392c-6.091-3.328-12.915-5.817-19.138-8.36c-3.655-1.492-7.865-0.847-10.664,1.942
	c-0.035,0.044-0.079,0.079-0.124,0.124c-3.584,3.593-3.778,9.234-0.556,13.153c7.459,9.066,12.341,19.994,9.684,32.291
	c-1.58,7.309-4.988,13.709-9.551,18.997c-4.97-7.406-7.442-16.075-7.309-24.753c0.062-3.734-4.696-5.544-7.071-2.657
	c-4.546,5.544-7.733,12.244-9.084,19.588c-0.6,3.293-2.348,6.338-4.961,8.413c-4.202,3.337-8.051,7.23-11.502,11.599
	c-3.213,0.441-11.458,1.156-11.944,0.636c-7.168-7.671-4.979-29.564-8.748-29.564c-6.285,0-2.807,10.108-4.458,16.137
	c-0.962,3.496-4.943,5.173-8.298,3.796c-3.134-1.289-6.153-2.79-9.022-4.493c-2.816-1.668-4.334-4.793-4.59-8.06
	c-0.38-4.838,1.907-12.641-2.604-14.106c-6.744-2.189-10.443,9.596-14.495,15.431c-2.86,0.574-5.738-0.327-7.804-2.401
	c0.168-12.006-0.83-23.808-2.842-35.337c-0.936-5.394,1.686-10.752,6.312-13.692c1.757-1.121,3.346-2.392,4.458-4.131
	c1.871-2.922,1.924-7.309,0.274-10.355c-1.81-3.354-6.197-4.281-9.596-5.791c-5.5-2.436-12.023-0.892-15.766,3.822
	c-1.298,1.633-2.586,3.293-3.849,4.961c-1.651,2.172-2.551,4.829-2.666,7.556c-1.05,25.291-5.111,49.805-12.341,72.987
	c-2.048,6.568,1.545,13.559,8.104,15.642c3.584,1.139,7.265,0.53,10.24-1.289C214.595,294.718,222.399,304.463,228.251,322.03z"/>
</svg>