<?xml version="1.0" encoding="utf-8"?>
<!-- Generator: Adobe Illustrator 24.0.0, SVG Export Plug-In . SVG Version: 6.00 Build 0)  -->
<svg version="1.1" id="Layer_1" xmlns="http://www.w3.org/2000/svg" xmlns:xlink="http://www.w3.org/1999/xlink" x="0px" y="0px"
	 viewBox="0 0 800 800" style="enable-background:new 0 0 800 800;" xml:space="preserve">
<style type="text/css">
	.st0{fill:#DBEFFF;}
	.st1{fill:#FFF4AB;stroke:#000000;stroke-width:3;stroke-miterlimit:10;}
	.st2{fill:#282D32;}
</style>
<title></title>
<ellipse class="st0" cx="216.7" cy="483.3" rx="83.3" ry="183.3"/>
<ellipse class="st0" cx="583.3" cy="483.3" rx="83.3" ry="183.3"/>
<path class="st0" d="M400,733.3L400,733.3c-110.5,0-200-89.5-200-200v-200c0-110.5,89.5-200,200-200l0,0c110.5,0,200,89.5,200,200
	v200C600,643.8,510.5,733.3,400,733.3z"/>
<path class="st0" d="M600,333.3l-166.7-100L571.5,95.1c6.5-6.5,17.1-6.5,23.6,0c3.1,3.1,4.9,7.4,4.9,11.8V333.3z"/>
<path class="st0" d="M200,333.3L355.3,225L228.6,95.8c-6.4-6.6-17-6.7-23.6-0.2c-3.2,3.1-5,7.4-5,11.9V333.3z"/>
<circle class="st1" cx="308.3" cy="308.3" r="66.7"/>
<circle class="st2" cx="308.3" cy="308.3" r="25"/>
<circle class="st1" cx="491.7" cy="308.3" r="66.7"/>
<circle class="st2" cx="491.7" cy="308.3" r="25"/>
<path class="st1" d="M400,466.7L366.7,400c0-12,66.7-12,66.7,0L400,466.7z"/>
</svg>
